<?xml version="1.0" encoding="utf-8"?>
<!-- Generator: Adobe Illustrator 18.1.0, SVG Export Plug-In . SVG Version: 6.00 Build 0)  -->
<svg version="1.1" id="Layer_1" xmlns="http://www.w3.org/2000/svg" xmlns:xlink="http://www.w3.org/1999/xlink" x="0px" y="0px"
	 viewBox="0 0 768 768" enable-background="new 0 0 768 768" xml:space="preserve">
<g>
	<path fill="#CC3A3A" d="M384,747.4C183.8,747.4,20.6,584.2,20.6,384S183.8,20.6,384,20.6S747.4,183.8,747.4,384
		S584.2,747.4,384,747.4z M386.7,635l205.7-251H480V192H288v192H181L386.7,635z"/>
	<path fill="#EE4C4C" d="M384,41.1c189.3,0,342.9,153.6,342.9,342.9S573.3,726.9,384,726.9S41.1,573.3,41.1,384S194.7,41.1,384,41.1
		 M384,0C171.4,0,0,171.4,0,384s171.4,384,384,384s384-171.4,384-384S596.6,0,384,0L384,0z"/>
</g>
</svg>
