<?xml version="1.0" encoding="utf-8"?>
<!-- Generator: Adobe Illustrator 18.1.0, SVG Export Plug-In . SVG Version: 6.00 Build 0)  -->
<svg version="1.1" xmlns="http://www.w3.org/2000/svg" xmlns:xlink="http://www.w3.org/1999/xlink" x="0px" y="0px"
	 viewBox="0 0 320 180" enable-background="new 0 0 320 180" xml:space="preserve">

<style>
	svg * {
		/* transition: opacity 150ms ease; */
	}
	#complex {
		opacity: 0;
	}
	@media (min-width: 201px) {
		#simple {
			opacity: 0;
		}
		#complex {
			opacity: 1;
		}
	}
</style>

<g id="leg">
	<path fill="#555555" d="M166.3,163.5c0,0,19.4-5.7,25-7.9c5.6-2.3,7.6-4.3,10.8-3.1c1.9,0.7,3.9,3.6,5,5.7
		c-2.8-0.1-6.5-0.2-6.5-0.2s-0.7-1.4-4.9,3.1s-8.6,7-9.2,8c-0.6,1-2.3,3.7-1,6.6s1.9,3.6,1.9,3.6s-3.1-0.7-4.6-4s-1.3-8.5,4.3-12.8
		c-9.8,2.9-22.8,8.8-22.8,8.8S161.8,166.9,166.3,163.5z"/>
</g>
<g id="body">
	
	<linearGradient id="SVGID_1_" gradientUnits="userSpaceOnUse" x1="93.2621" y1="30.2992" x2="293.8892" y2="30.2992" gradientTransform="matrix(0.9982 -5.981084e-02 5.981084e-02 0.9982 -17.2179 95.2352)">
		<stop  offset="0" style="stop-color:#AAAAAA"/>
		<stop  offset="1" style="stop-color:#FFFFFF"/>
	</linearGradient>
	<path fill="url(#SVGID_1_)" d="M292.7,64.9l-19.1,2.5l-33.5,18.9l-23.2-9.6l-68.7,7.2c0,0-18.6-9.2-39-17.4l-2-1.5
		c-10,16.4-28.1,28.5-29.6,48.1l2.6,0.2c0.5,1,1,1.8,1.3,2.5c10.4,19.7,20.9,24.6,20.9,24.6s-41.9,32.7-11.9,25.8
		c29.9-7,38.7-5.7,48.8-6.1c5.3-0.2,11.6-1.8,17.2-3.7c-3,5.8-3.9,12.1-2.9,13.7c1.3,2.2,4.6,2.3,9.2,1.6c4.6-0.6,3.8-5.1,4.1-9.3
		c0.3-4.2,2.6-6.5,4.3-9.3c0.7-1.1,1.1-2.7,1.3-4.1c5-2.4,11.2-4.2,20.9-6.5c12.2-2.9,19.6-7.5,24.4-10.1
		c4.8-2.7,13.4-6.6,27.9-10.5c14.4-3.9,17.9-9.2,22.3-13.1c4.4-3.9,12.1-8.6,18.8-15.9c6.7-7.3,11.5-17.7,11.5-17.7l18.4-26.7
		L292.7,64.9z"/>
</g>
<g id="complex">
	<path fill="#B23434" d="M107,64.9l-0.7-0.5L93.9,44.8L77.8,16.5c0,0-7.9-8.4-12-11.7c-1.2,1.8-1.6,10.6-1.6,10.6s-1.7-5-5.2-9.5
		c-1.6,4,0.6,12.4,0.6,12.4l-6.1,0.9L45.7,24l-5.1,6.4l-3.8,5.2l-2.3,12.9l-6.1-2.7L26.6,53l-6.1,3.2c0,0,13.5,9.1,3.6,9.4
		s-9.5,2.2-9.5,2.2s-1,4.2,3.7,13.8C3.5,82.3,3.5,88.5,3.5,88.5s16.9,9.1,13.4,9.6c-3.4,0.5-6.9,3.6-9.5,6.4c-2.6,2.7-3,11-3,11
		l50.3-4l22.7,1.6C78.9,93.5,97,81.3,107,64.9z"/>
	<path fill="#EE4C4C" d="M289.9,59.1c-8.1-6.3-27.2-0.2-27.2-0.2c-10.5,3.6-18.2,7.2-21.4,9.8c-3.2,2.6-9.8,2-13.5,0.3
		c-3.7-1.7-12.4-9.2-32.4-9.1c-20,0.1-34.6,6.3-34.6,6.3S133.3,76,128,73.4c-5.4-2.7-19.8-8.9-19.8-8.9l-7.6-10.3l-13-18.4l-7.4-4.4
		L64.8,8.5l0.7,2.6l7.7,16.8l0.9,6.6L59.7,18.4c0,0-3.2,2.8,2.9,10.3c5.1,6.3,3.9,7.1,2.8,8.3C64.5,38,50.7,20.4,49.9,21
		c-5.2-8.7-7.6-5.8-7.6-5.8l17.2,20.4l1.7,7.6L45.4,26.4L44,23.9c0,0-2.7-0.7-5.4-3.2c-1.9,1.4-3.5,2.3,0.3,5.2
		c7.1,5.4,16.9,16.6,16.9,16.6s1.6,9.1-20.9-14.2c-5.2-5.4-3.1,2.2-3.1,2.2l3.7,6.9L32,41L25.9,36c0,0-1.5,2.5-0.2,4.9
		C27.1,43.3,44.1,59,44.1,59l1.7,5.4L29.4,52.8c0,0-6.2-5.7-8.3-6.3c-2-0.5-2.6,2.1,0.4,5.4c3,3.2,19.9,15.3,19.9,15.3l1.7,5.6
		L22.7,61.4c0,0-5.3-6.8-6-6.8c-0.8,0-4.6,4.4-0.9,7.4c3.7,3,26.3,16.2,26.3,16.2l-6.5,6.2l-9-3.5L11.2,70.4c0,0-4.6,1.1-4.2,2.4
		c0.4,1.3,2.9,3.4,8.7,7.4c5.8,4,25.1,9.5,25.1,9.5l3.5,8l-20.5-1.5L6.1,87.8c0,0-3.7-1.1-3,3.8C7.4,99,40,101.7,40,101.7l5.7,10.9
		c0,0-36.5-1.2-41.4,2.9c4.5,6.1,15,1.6,17.9,0.8c2.9-0.8,14-1.2,22.8-1.2c8.8,0,52.1,2.6,52.1,2.6l6.6,0.5c0,0-7.4,4.9-8,7.7
		s3.5,6.7,6.3,8.4c1.2,0.7,2.2,2.2,3.1,3.6l-0.8,0.8l-0.8,0.6c-8.8,7-29.6,17.6-35.7,18.7c-6,1.1-8,9.4-5.7,10.7
		c2.3,1.3,9.9,0.9,9.9,0.9l17.9-3.4l0.7-1.4c0.1,0.5,0.6,0.8,1.5,0.9c48.6-9.5,75.4-19.8,75.4-19.8l0-0.1c0.5,0,1.2-0.2,2.1-0.5
		c8.1-2.9,19.9-8.9,33.1-17.4c0,0-0.2,0-0.6,0.1c1.6-0.3,3.3-0.8,4.8-1.5c5.1-2.2,16-18,16-18s-5.4,1.1-9.3,1.7
		c-4,0.6-21.9,1.3-25.7,1.1c-3.8-0.1-11-0.5-13.1-1.1c-2.2-0.5-5.5-3.3-7.5-5.3c-2-2-2.3-6.2-2.3-6.2l4.9-0.6c0,0,8.3,4.7,18.2,8.2
		c9.9,3.5,29.6-0.2,29.6-0.2l4.9-1.5c0,0,2.7-2.7,1.4-8.5c-0.7-3.1-7.2-10.2-7.2-10.2s3.8-0.7,6.9-0.2c3.1,0.4,8,9.4,8.7,10.8
		c0.7,1.4-2.8,3.8-2.7,4.9c0.1,1.1,2.3,1.8,2.3,1.8s-2.2,3.2-0.9,4.5c1.2,1.3,3.7-1.9,3.7-1.9s-2.2,3.5-0.2,4.4
		c1.6,0.7,3.1-1.9,3.7-2.9c-0.4,0.9-1.3,3,0.1,3c1.7,0,3.9-3,3.9-3s-0.7,2.6,0.7,3.1c1.4,0.5,5.3-3.1,5.3-3.1s0.4,3,2.1,3.3
		c1.7,0.3,5.2-6,5.2-5.6c0,0.5,0.4,2.7,2.4,2.8c2,0.1,5.7-7,7-6.5c1.2,0.5,2.2-1.2,3.6-1c1.4,0.2,2.7-1.9,2.9-2.7s2.2,1.2,3.2,1.5
		c1.1,0.4,0.3-2.7,0.8-3.9c0.5-1.2,3.4,1.5,3.9,0.8c0.5-0.8,1.3-0.9,2.5-0.9c1.3,0,0.9-1.9,1.6-2.1s1.1-5.1,1.1-5.1
		s-3.8,0.7-5.4,1.1c-0.7,2.6-11,5.9-16.2,6.2c-5.2,0.3-11.1,1.7-11.1,1.7s5.6-3.7,11.2-5.1c5.5-1.4,13.1-6.8,14.3-8.8
		c1.1-2,2.8-3.4,5.2-4.5c2.4-1.2,3.3,0.1,3.3,0.1l5.7-4.5C291.9,74.1,298,65.4,289.9,59.1z M170.3,122c2.4-0.9,5.3,1.1,7.8,1.7
		c2.5,0.6,4.7,0.3,7.1-0.5s4.5,0.3,6.3,0.5c1.7,0.2,7.4-1.5,9.2-2.5c1.8-1,2.8-0.1,4.2,0.1c1.4,0.2,1.7,0.8,2.4,2.4
		s-17.3,4.4-17.3,4.4s0.1,0,0.2,0c-4.8-0.1-9.6,0.2-13.2,1.4l0.5-0.8c0,0-10.9,0.4-13.5-0.5c-1.8,0.7-7-1.2-8.7-3.3
		c-3.5-0.1-8.3-4.5-9.5-6.5c-4.7-0.2-8.5-3.8-9.2-5.2c-0.7-1.4-2.4-3.5-2.9-6.8c-0.5-3.2,2.2-3.6,3.7-7.3c1.5-3.7,3.5-5.4,5.3-4.5
		c1.9,0.9-0.6,5,0.5,7.6c1.2,2.6,5.8,6,5.8,6s-12.2-1.5-10.9,0.4c1.3,1.9,9.2,6.8,16.6,6.6c7.4-0.2,4.9,4.3,7.9,4.4
		C165.7,119.8,167.9,122.9,170.3,122z"/>
	<path fill="#44BBEE" d="M285.5,80.6c1.9,0.8,0.9,4.2-0.9,5.3c-1.9,1.1-4.3,1.4-6,0.8s-0.6-4.4,1.7-5.7S283.3,79.7,285.5,80.6z"/>
	<g>
		<path fill="#B23434" d="M223.1,108.5c0,0-10,14.6-16.7,16.9c-6.7,2.3-16.3,2.8-16.3,2.8s13.7-4.2,16.4-6.1
			S217.5,114.6,223.1,108.5z"/>
		<path fill="#B23434" d="M218.7,109.3c0,0-11.1,11.2-13.8,12s1.1-1.1,2.9-3c1.8-1.8,8.6-8.6,8.6-8.6L218.7,109.3z"/>
		<path fill="#B23434" d="M213.8,110.2c0,0-16.4,13-19.1,13.7s-7.2,0.9-1.3-2.2c5.9-3.1,14.9-10.4,16.2-11.2
			C210.7,109.9,213.8,110.2,213.8,110.2z"/>
		<path fill="#B23434" d="M206.1,112.1c0,0-17.1,11.1-20.5,12.1c-3.3,1-6.4,1-1.4-1.6c5-2.5,16.8-9.7,18-10.7
			C203.4,110.9,205.2,110.6,206.1,112.1z"/>
		<path fill="#B23434" d="M199.5,111.8c0,0-17.4,11.3-20.1,12.1s-7.9,1.5-4.7-0.1c3.2-1.6,14.2-7.3,20.5-12.1
			C197.7,111.2,198.6,111.5,199.5,111.8z"/>
		<path fill="#B23434" d="M193.5,111.3c0,0-13,9-17.4,10.6s-10,1.8-12.2,1.5c-2.2-0.3,7.8-3.6,13.4-6c5.6-2.5,12.2-6,12.2-6
			S191.8,110.9,193.5,111.3z"/>
		<path fill="#B23434" d="M187.5,111.3c0,0-18.4,9.7-26.6,9.7s-10.8-1.2-4-2.6c6.8-1.4,18.9-5.8,21.3-6.9S184.5,110.7,187.5,111.3z"
			/>
		<path fill="#B23434" d="M175.8,110.4c0,0-17.7,7.5-26.5,6.4c-8.8-1.1-3.8-3.4,0.1-3.6c3.9-0.2,17.3-4.2,21.1-5.6
			C172.6,108.1,175.8,110.4,175.8,110.4z"/>
		<path fill="#B23434" d="M168.8,106.2c0,0-20.4,6.3-24.3,5.5c-3.9-0.9-7.4-2-7.6-4.2c-0.3-2.2,0.3-4.8,1.8-3.3
			c1.5,1.5,4.9,3.6,12.4,2.8s15.2-3.9,15.2-3.9S168.2,104.5,168.8,106.2z"/>
		<path fill="#B23434" d="M165.7,103c0,0-12.4,3.3-17.3,2.3s-8-2.5-8-4.3c0.1-1.8,2.4-5,4.6-4.6s2.7,2.5,6.6,2.6
			c3.9,0.1,13.5-0.4,13.5-0.4S166.1,101.5,165.7,103z"/>
		<path fill="#B23434" d="M177.1,96.3c0.5,0.1-17.5,2.3-24,1c-6.4-1.3-9.5-4.8-7.9-5.8c1.6-1,6.6-3.1,6.7-2c0.1,1.1,0.9,5,7.1,5.2
			C165.2,95,174.3,95.5,177.1,96.3z"/>
		<path fill="#B23434" d="M198.7,84.1c0,0-17.4,9.5-25.1,9.5c-7.7,0-14.5-0.7-17.1-1.8c-2.7-1-4.3-2.9,0.2-4.6
			c4.4-1.7,6.4-2.1,8.2-0.7c1.8,1.5,7.5,2.7,14,2.1S192.4,85.9,198.7,84.1z"/>
		<path fill="#B23434" d="M191.6,83.9c0,0-9.4,3.6-16.6,2.7c-7.2-0.8-11-2.5-6.8-3.5c4.3-1,7.3-2.5,8.5-1.2
			C178,83,183.2,85.4,191.6,83.9z"/>
		<path fill="#B23434" d="M215.4,106.4c0,0-2.6,1.5-5.1,1.6s-3.1-0.8-6-0.2s-5.1,1.2-6.5,1.1c-1.4-0.1-2.8-1-4.8-0.5s-5.1-2-6.1-1.2
			s-4.1,1.3-5.2,0.8c-1.2-0.5-3.1-2.3-6.1-2.3s-1.5-3.7-3.8-3.9s-7.1-3.4-0.9-4.5c6.2-1.1,8.6-3,11.2-1.4s2.9,4.3,4.1,4.9
			c1.2,0.5,4.5,1.6,5.5,2.7s5.4,1.4,7.1,2c1.6,0.6,5.5,0.3,6.8,0.7c0.6,0.2,3.1-0.3,5.1-0.2C212.8,106.2,214.5,106.9,215.4,106.4z"
			/>
		<path fill="#B23434" d="M279.6,75.8c1.3,0.1-0.1,2.8-2.3,4.3s-4.2,3.5-8.2,5.7s-8.5,5.1-9.4,5.7s-4.5,2.9-9.8,1.2
			c-5.4-1.7-10.9-2.7-7.8-4.7c3-2,9.1-3.5,11.8-5.8s7.6-5.4,10.9-5.4C268,76.8,275.2,75.3,279.6,75.8z"/>
		<path fill="#B23434" d="M279.5,89.1c0,0-2.7,5.3-15.5,6.1c1.2-1.6,6.7-3.4,9.1-5.1c2.4-1.7,3.5-4.3,4.6-3.2
			C279,88,279.4,87.7,279.5,89.1z"/>
		<path fill="#B23434" d="M288.2,58.1c0,0,3.9,0.8,7.2-0.7s20.3-10,20.9-9.5c0.5,0.5-1.7,3.3-4.6,5.5c-2.9,2.2-11.8,11.1-12.2,12.5
			c-0.4,1.4-5.3,7.6-6.5,9.4c-1.1,1.8-1.8,5-2.9,5.8c-1.1,0.8-1.4,2.7-2.2,2.2s-1.2-3.8-2.6-3.9c-1.4,0,0-1.4,1.9-2.9
			C289.1,75,298.3,68.4,288.2,58.1z"/>
		<path fill="#B23434" d="M265.4,58.2c0,0-10.8,1.6-21.9,7.3c-11.2,5.7-13.9-0.1-23.9-4s-22.7-4.7-31.8-3.5s-30.1,7-37.6,9.2
			c-7.5,2.2-19.2,6.8-22,6.2c3,1.4,5.7,2,10.8,0.6s17.7-4.9,21.5-6.1c3.8-1.2,26.8-8.5,39.8-7.1c13,1.4,21.2,6.8,25.8,9.7
			c4.6,3,9.7,5.9,16.4,2.2C249.3,69.2,255.5,61.7,265.4,58.2z"/>
		<path fill="#B23434" d="M314.8,50.5c0,0-9.1,12.6-11.5,15.1c-2.4,2.5-4.3,4.9-8.7,7.4c-4.3,2.5,3.4-5.5,5.9-7.5
			S313.4,50.9,314.8,50.5z"/>
		<path fill="#B23434" d="M186,128.3c0,0-9.9-1.1-13.4,4c-4,5.8-12,15.4-4,13.2c9.1-2.4,31-15.1,34.3-17.7c-1.7,0.2-3.1,0.5-4.4,0.4
			c-1.2,0.9-20.2,13.2-28.3,13.3c0.9-1.2,4.1-1.5,6.6-2.3c2.5-0.8,9.6-4.1,19.5-11c-0.9-0.3-3.2,0-3.9,0c-1.4,1.5-11,8.8-17.6,9
			c0.4-1.1,1.9-1.5,4.1-2c2.2-0.6,7.6-3.3,11.5-7.1c-1.2-0.1-1.7,0-2.2,0.6c-0.5,0.5-7.4,6.3-14.2,5.7c0.5-0.9,2.5-1.4,5.1-1.7
			C181.5,132.3,185.7,129.7,186,128.3z"/>
		<path fill="#B23434" d="M156.9,126.4l2.7,1.4c0,0-24,7.9-32.2,10.9c-8.2,3-14.1,6-18.6,7.2c-5.5,1.5-10.7,2.1-4.5-7
			c1.4,2.8,5.5,3.4,11.7,1.3C125.5,136.8,147,131.2,156.9,126.4z"/>
		<path fill="#B23434" d="M161.8,128.1l3,0.1c0,0-13.8,5.5-24.3,9.5c-10.5,4-30,11.1-35.3,12.5c-5.2,1.4-9.1,1.7-7.6-4.4
			c0.5-1.9,1.2-3.3,1.2-3.3l0.9-0.6c0,0-1.3,5.1,0.5,6.1c1.7,1,7.3-0.2,18.2-4.2C129.5,139.9,147.8,133,161.8,128.1z"/>
		<path fill="#B23434" d="M168,128.9l3.5,0.1c0,0-16.7,7-33.2,12.5c-16.5,5.5-28.7,9.5-36,12.1c-7.3,2.6-10.1,0.9-8.9-4.3
			c0.5-2.3,1-3.9,1-3.9l1.3-0.8c0,0-1.8,5.2,0.2,6.7c2.1,1.4,5.9,1.5,15.4-1.8S158.4,133.3,168,128.9z"/>
		<path fill="#B23434" d="M173.5,129l4.1-0.1c0,0-10,5.8-29,11.4c-19,5.7-31.3,9.7-38,11.8c-6.7,2.1-20.2,9-21.9,6.5
			c-1.7-2.5,0.2-7,3.3-11.8c0.6-0.4,1.4-0.8,1.4-0.8s-3.6,8.8-1,9.5s4,0.7,16.2-3.7s38.8-12.4,47.5-15.5
			C164.8,133.1,173.5,129,173.5,129z"/>
		<path fill="#B23434" d="M173.1,132.1c0,0-5,3.3-14.3,6.2c-9.3,2.9-20.5,6.1-26.1,8c-5.7,1.9-20.3,6.2-30.1,10.3
			c-9.8,4.1-14.1,4.6-15.6,3.2c-1.5-1.4-1.6-5.1,1.5-11.1c-2.5,1.4-9.8,9.3-8.4,12.1c1.5,2.8,6.9,3.5,14.1,0.5
			c7.2-3,24.3-9.6,33.7-12.3c9.3-2.6,27.1-7.9,32.6-9.8s11.2-4.7,11.2-4.7l1.4-2.2"/>
		<path fill="#B23434" d="M170.2,136.3c0,0-5.4,3.3-14.4,6s-21.1,5.3-29.4,8c-8.3,2.8-23.6,8.8-31,11.5s-17.6,3.3-18.5,0.8
			c-0.9-2.6,2.8-7.4,5.8-10.8c-2,1-10.3,7.2-10,11.3c0.3,4.1,13.5,2.9,22.9-0.7c9.4-3.6,23.3-8.7,31.1-11c7.8-2.3,21.8-5.3,29.5-8.2
			s12.6-4.9,12.6-4.9L170.2,136.3z"/>
		<path fill="#B23434" d="M168.1,139.9c0,0-10.7,5-18.7,7c-8,2-17.1,4.5-22.5,6c-5.4,1.5-37.8,13.3-46.2,14.2S69,165.9,69,164.9
			c0-1-0.4-2.6,5.1-9c-3,1.2-9.9,6.8-9.3,9.4c0.6,2.6,9.1,4.1,16.2,2.5c7-1.7,36.4-10.9,46.4-13.9c10.1-3,17.2-4.6,22-5.7
			c4.8-1,17.5-6.6,17.5-6.6L168.1,139.9z"/>
		<path fill="#B23434" d="M166.3,143.2c0,0-9.2,3.8-16.6,6c-7.4,2.2-17.7,4.5-22.6,6s-31,8.5-41.8,11.9s-21.9,1.6-22.2-0.2
			s-0.2-5.2,3.3-8.3c-4.6,2.1-9.5,6-8.6,8.6c0.9,2.6,10.7,5.3,27.6,0.5s34.1-9.3,42.3-11.4c8.1-2.1,17.7-4.3,22.4-6.1
			s16.1-5.7,16.1-5.7L166.3,143.2z"/>
		<path fill="#B23434" d="M166.3,145.2c0,0-9,4.1-19.1,7c-10.1,2.8-39.6,9.1-48.7,11.6s-18.5,4.4,3.8,0.1
			c6.4-1.2,39.9-9.3,45.7-10.9c5.8-1.6,16.5-5.6,21.7-7.8C174.9,143,166.3,145.2,166.3,145.2z"/>
		<path fill="#B23434" d="M153.9,124.8l1.5,0.3l0.6,0.6c0,0-3.8,2.3-9.3,3.9c-5.4,1.6-12.4,3.2-18.8,5.2c-6.4,2-19.4,8.1-22.8,3.2
			c1.3-0.2,3.4,0.9,5.5,0.5c2.1-0.5,11.3-3.5,16.9-5.4s14.5-3.3,18.7-5C150.4,126.3,153.9,124.8,153.9,124.8z"/>
		<path fill="#B23434" d="M150,122.7l1.9,1.2c0,0-6.6,3.1-14.4,5.3c-7.8,2.2-8.9,1.6-15.1,3.8c-6.2,2.2-11.7,4.9-16.5,3.5
			c3.8-0.4,7.9-1.7,15.7-4.8c7.8-3.1,10.3-2.2,15.2-3.8C141.9,126.3,150,122.7,150,122.7z"/>
		<path fill="#B23434" d="M147.8,120.9l1.1,1c0,0-2.9,2.1-8.7,3.9c-5.8,1.8-9.8,1.7-13.8,3.2c-4.1,1.5-14.4,5.3-16.7,5.8
			c-2.3,0.5-3.6,0.5-4.5-0.4c1.5,0.1,5.3-0.8,8.8-2c3.5-1.2,6.6-3,12-4.6c5.4-1.6,9.2-1.5,13.5-3.1
			C143.9,123.1,147.8,120.9,147.8,120.9z"/>
		<path fill="#B23434" d="M145.9,118.6l1,1.3c0,0-7.6,3.3-11.7,4.2c-4.1,1-5.9,0.6-9.9,2.1c-4,1.5-15.8,6.8-19.8,6.9
			c-4,0.1-4.2-0.8-4.2-0.8s1.3,0.5,4.5-0.3c3.2-0.8,15.2-5.4,18.6-6.6c3.4-1.1,7.7-1.5,10.8-2.6C138.3,121.9,143,120.2,145.9,118.6z
			"/>
		<path fill="#B23434" d="M141.4,117.5l1.7,0.7c0,0-3.8,2.6-9,4s-6.4,0.8-10.4,2.3c-3.9,1.5-15.1,6.3-19.2,6.6c-4.1,0.2-6.4-1-6.4-1
			s3.7,0.7,6.6,0.1c2.9-0.6,13.8-5,18.4-6.6c4.6-1.6,7.6-1.7,10.9-2.8C137.3,119.6,139.7,118.5,141.4,117.5z"/>
		<path fill="#B23434" d="M137.3,114.4l2.5,2.2c0,0-4.7,1.9-8.3,3c-3.6,1.1-6.9,0.5-11.6,2.9c-4.7,2.4-11.6,5.1-16.4,5
			c-4.8,0-10.4,0.1-6.9-4.1c3.5-4.1,9.2-8.2,13.3-10.6c2.2,3.3,3.2,5.3,7.3,5.7s10.9-0.5,13.3-1.4
			C132.9,116.2,137.3,114.4,137.3,114.4z"/>
		<path fill="#B23434" d="M133.8,105c0,0,0.1,3.5,1,5.1c0.9,1.7,1.8,3.2,1.8,3.2s-8,2.5-14.1,2.4s-8.5-1.7-10.2-2.8
			c-1.7-1.1-2.3-2.3,0.5-4c2.9-1.7,3.8-2.9,3.8-2.9s0.3,1.9,4.5,1.9C125.3,107.8,129.6,106.8,133.8,105z"/>
		<path fill="#B23434" d="M142.6,94.7c0,0-3.4,4.9-8.3,7.2c-4.9,2.3-9.1,2.8-11.8,2.6c-2.7-0.2-3.2-0.7-1.2-2.3c2-1.6,5.9-4.4,9.5-6
			c3.6-1.7,7-2.8,9.1-4.8C141.2,91.6,141.2,94.3,142.6,94.7z"/>
		<path fill="#B23434" d="M146.1,87.9c-1.6,0.5-3.1,1.1-4.5,3c-1.3,1.9-1.6-1.6-0.5-2.5s2-2.6,5-3C149.2,85.1,147.7,87.4,146.1,87.9
			z"/>
		<path fill="#B23434" d="M155.9,84c-1,0.9-0.7,2.6-3.7,2.9s-4.3-0.3-3.4-1.5s2.7-1.1,3.6-1.9c0.9-0.9,2-1.7,3.8-1.7
			C158,81.9,157,83.1,155.9,84z"/>
		<path fill="#B23434" d="M167.7,79.5c-1,1.1-1.4,4-4.4,4c-3,0.1-5.5-0.5-3.4-1.8c2.1-1.4,3.9-3.8,5.8-4.2c1.8-0.4,4.6-1.4,4.1-0.4
			S168.9,78.1,167.7,79.5z"/>
		<path fill="#B23434" d="M176.7,77c-1.5,0.7-0.8,2.8-2.8,3.4s-3.8,1-4.7,0.7c-0.9-0.3-1.6-1.7,0.7-2.5c2.2-0.9,3.6-1.1,4.6-2
			C175.5,75.8,179.1,75.8,176.7,77z"/>
		<path fill="#B23434" d="M190.2,74.1c-1.3,0.5-3.3,1.8-4.5,2.6c-1.2,0.8-2,1.5-4.5,1.7c-2.5,0.2-5.5-0.1-3-1.3s4.8-1.3,6.8-2
			S192.4,73.2,190.2,74.1z"/>
		<path fill="#B23434" d="M199.9,72.8c-1.3,0.9-1.7,1-3.6,1c-1.9,0-0.6-1.5,1.1-1.7C199,71.8,201.1,72,199.9,72.8z"/>
		<path fill="#B23434" d="M209.7,72.6c-3.1,0.1-3.8-0.6-5.1-0.8s-2.1-1.3,0.6-1.2c2.6,0.1,2.8,1.2,4.4,1.1S212.3,72.5,209.7,72.6z"
			/>
		<path fill="#B23434" d="M204.8,65.9c1.8-0.1,3.9,1.8-0.2,1.9c-4.1,0.1-2.2,0.4-4.2,0.5C198.3,68.3,195.7,66.2,204.8,65.9z"/>
		<path fill="#B23434" d="M192.4,65.1c2.5-0.1,4.4,0.8,1,1.5c-3.3,0.7-1.7,2-4.4,2.3c-2.7,0.3-2.4,0.8-4.4,0.8
			C182.6,69.6,180.1,65.4,192.4,65.1z"/>
		<path fill="#B23434" d="M179.4,66.4c1.3-0.1,0.5,1.6-0.7,2c-1.2,0.4-1.3,1.7-4.4,2.2c-3.2,0.6-5.7-1-1.8-2.6
			C176.3,66.4,177.8,66.4,179.4,66.4z"/>
		<path fill="#B23434" d="M167.3,68.4c2.8-0.4,4.7,0.2,1.4,1.7c-3.4,1.5-1.6,3-4.6,3.2c-3,0.2-6.3-1.3-2.1-2.5
			S164.8,68.8,167.3,68.4z"/>
		<path fill="#B23434" d="M157.6,72.7c1.8,0,2.5,1.9,0,2.7c-2.5,0.7-4.3,1-6.3,0.9c-2.1-0.1,0.1-2.3,2.4-2.7
			C156.1,73.2,155.5,72.7,157.6,72.7z"/>
		<path fill="#B23434" d="M117.8,71.2c0,0-3.7,0.7-7.1-1.2c-3.4-1.8-9.6-5.4-9.2-6c0.5-0.6,4.2-0.9,6,0.6
			C109.4,66.2,113.1,70,117.8,71.2z"/>
		<path fill="#B23434" d="M105.3,68.4c0,0-1.3,0.9-4.5,0c-3.3-0.9-10.5-6.1-12.3-7s-1-1.5,1.7-0.8c2.7,0.7,7.9,2.8,9.7,4.4
			C101.6,66.8,103.5,67.1,105.3,68.4z"/>
		<path fill="#B23434" d="M93.9,67.3c0,0-1.2,1.3-3.9-0.1c-2.7-1.5-7.5-5.8-10.8-7.1c-3.3-1.3-2-1.9,1-1.6s7,3.8,8.4,5.2
			C90.1,65.1,93.3,65.9,93.9,67.3z"/>
		<path fill="#B23434" d="M85.8,67.3c0,0-0.8,1.6-2.6,0.9c-1.8-0.8-2.4-2.2-5.6-4.1c-3.2-1.8-6.4-4.4-7.5-5.7
			c-0.2-0.9,1.3,0.1,2.7,0.7c1.4,0.5,3.8,2,6,2.9S85.6,65.8,85.8,67.3z"/>
		<path fill="#B23434" d="M80.6,68.6c0,0-3.4,0-4.1,1.4c-0.7,1.4-0.4,2.7-0.9,2.6c-0.5-0.2-8.9-3.1-10.8-4.8
			c-1.9-1.7-5.8-6.9-6.3-10.4c3.3-0.4,10.4,2.5,14.7,5C77.5,64.9,80.6,67.5,80.6,68.6z"/>
		<path fill="#B23434" d="M78.1,77.2c0,0-3.6-2.3-6.4-2.2c-2.8,0-3.5,1.7-5.8,0c-2.3-1.7-5.1-6.3-4.3-6.5c0.7-0.2,4.4,2.8,6.4,3.5
			C70.1,72.6,76.8,73.5,78.1,77.2z"/>
		<path fill="#B23434" d="M85.1,86.2c0,0-4.2-2.3-7.7-1.9s-4.1,3.5-5,2.7c-0.9-0.8-4.3-3.3-4.4-6.4c-0.1-3,2.8-4.4,5.8-3.8
			C76.9,77.4,82.2,81,85.1,86.2z"/>
		<path fill="#B23434" d="M92.7,96.9c0,0-6.2-2.6-9.6-2.4c-3.3,0.2-2.7,2.2-3.6,2.1c-0.9-0.1-6.1-5.6-5.4-7.9s6.3-4.5,12.1,0.4
			C90.5,92.7,92.5,95.9,92.7,96.9z"/>
		<path fill="#B23434" d="M100,107.1c0.1,0.3-4.3-3.2-8.4-2.9c-4.1,0.4-2.5,1.6-3.4,1.5c-0.9-0.1-4.8-5.7-4-7.4
			c0.8-1.7,7.2-0.2,9.5,1.7S99.6,105.4,100,107.1z"/>
		<path fill="#B23434" d="M105.2,112c0.1,0.1-2.9,0.2-4,0.5c-1,0.3-1.6,2.1-2.3,1.8c-0.7-0.3-7.5-5.7-5.5-6.9
			C95.4,106.3,97.6,106.3,105.2,112z"/>
		<path fill="#B23434" d="M93.6,114.4c0,0-15.3-0.7-26.7-0.4s-24-1.3-35.7-0.5c-11.7,0.8-25.3,3.5-26.8,2.1
			c-1.5-1.4-1.7-7.1,3.5-11.5c5.1,2.3,11.1,5.2,11.9,8c5-0.2,17.7-1.1,22.3-0.9c-1.4-5-1.2-8.3-3.4-9.6c5.7-0.3,22.7,5,28.7,7.1
			c6,2,12.1,2.7,17.1,3.2S93.6,114.4,93.6,114.4z"/>
		<path fill="#B23434" d="M88,108.8c-6.4,0.1-9.6-2-15.9-3.1c-6.3-1-23-5.3-28.6-5.7c-5.6-0.4-32.9-4.9-36.3-7.2s-6.2-2.7-2.7-6.7
			c3.5-4,5.2-2.5,5.2-2.5s8.7,6.6,11.5,10.3c4.6,1.1,13.8,2.3,15.3,0.9c0.1-2.7,0.1-6.4,0.1-6.4s13.2,3.7,21.5,8s10.6,6.9,15.3,7.8
			c4.7,0.9,12.1,1.3,13,2.3S88,108.8,88,108.8z"/>
		<path fill="#B23434" d="M80.7,101.9c0.1,0.2-10.9-3.7-16.8-5.9c-5.9-2.2-13.2-6.5-21.6-8.5c-8.4-2-20.8-5.3-24.6-8.2
			c-3.8-2.8-11.6-5.8-9.9-7.7c1.7-1.9,5.5-5.5,8.6-5.1s7.7,9.7,10.1,11.9c2.4,2.2,5,4.5,7.4,4.3s6-5.9,6-5.9s10.5,4.5,18.9,9.8
			c8.4,5.2,9.6,8.3,14.2,10.3C77.7,99,79.7,100.6,80.7,101.9z"/>
		<path fill="#B23434" d="M72.6,92.4c0,0-12.3-8.7-20.1-12.2S25.3,66.1,20.7,62.4s-6.3-5-4.9-7.2c1.4-2.2,2.8-3.4,6.9-1.8
			c2.9,1,1.7,2.4,4.1,6.7s7.4,7.8,10,8.6c1.8-0.7,3.2-2.4,3.2-2.4s6.7,4.2,10.2,7.6c3.4,3.4,9.4,8.7,14.3,11.6
			C69.4,88.2,72.6,92.4,72.6,92.4z"/>
		<path fill="#B23434" d="M65.6,81.3L51.2,70.9c0,0-6.9-6.2-12-8.7C34.1,59.7,23,50,21.8,48.9c-1.3-1.1-2.6-1.6-1.7-2.3
			c0.8-0.7,6.6-2.6,9.2-0.2c2.6,2.4,2.8,7.8,6.6,10.4c3.8,2.7,4.8,1.1,6.7,0.7c2.1,1,15.2,10.8,15.6,12.8
			C58.5,72.3,65.6,81.3,65.6,81.3z"/>
		<path fill="#B23434" d="M57.9,66.6c0,0-13.5-10.8-18.8-15.3S25.2,38.9,25.9,36s7.5-0.1,9.5,1.4s10.4,10.1,14.4,13.5
			C53.9,54.4,56,56,56,56S56.3,63,57.9,66.6z"/>
		<path fill="#B23434" d="M61.5,53.7c0,0-2.6-1-5.1,0.7C53.7,52.1,36.9,39,35,36.6s-5.8-7.4-3.4-9.9c2.1,0.9,9.3,8.4,13,12.5
			S56.2,49.9,61.5,53.7z"/>
		<path fill="#B23434" d="M62.8,53.1c0,0-10-8.6-11.1-9.9c0-2,0.1-5.8-2.6-7.8c-2.6-2-7.6-3.4-10.2-2.9c-1.7-2.2-5.3-5.3-2.1-10.4
			c2.5,1,4.6,3.1,8.6,7.2s14.9,16.1,18.4,18.8c3.6,2.7,5.6,4.6,5.3,5.1C69,53.9,66.8,52.8,62.8,53.1z"/>
		<path fill="#B23434" d="M81.5,56.6c0,0-7.8-2.9-10.2-3C69.4,51,58,41.7,57.3,40.8s1.9-3.7-1-6.5c-2.9-2.8-5.5-4.8-8.4-5.9
			s-5.7-6.6-6-8.5c-0.6-4.1,0.1-5,1.6-4.7c1.5,0.3,7.7,9.9,11.7,15S75,51.9,81.5,56.6z"/>
		<path fill="#B23434" d="M95.5,60c0,0-6.3-2.9-8.4-3.2c-2.6-2.3-8.2-7.9-12.5-11.3S65.5,37.9,62.8,35c0.5-2.4,0.3-5.8-2.5-8.4
			c-2.8-2.6-7.8-2.4-10.5-5.7c-1.3-1.6-1.2-10.7,1.4-12.1s8.6,10.5,14.1,17.3c5.5,6.8,8,12.3,17.1,21S95.5,60,95.5,60z"/>
		<path fill="#B23434" d="M102.8,62.4c0,0-3.6-1.7-5-1.7c-2-2.2-11.6-12-14.8-15.1c-3.2-3.1-6.6-7.4-8.5-9.4
			c-0.7-3.8-0.9-6.7-5.8-12.9s-9.7-7.4-10-9.5c-0.4-2.8-1.1-5.5-0.2-8.2c0.9-2.7,2.6-4.4,5.2,0.8c2,3.8,11.7,22.5,16.9,28.7
			C85.7,41.2,91.1,50.5,102.8,62.4z"/>
		<path fill="#B23434" d="M108.2,64.5c0,0-16.8-20.3-22.3-29.7s-7.6-16.5-13.2-20.7c-5.6-4.2-7.9-5.7-7.2-8.7
			c0.8-3.1,0.6-4.5,3.7-1.4s6.2,6.2,11.3,14.7s9.7,18.2,13.6,24.4C97.6,48.6,108.2,64.5,108.2,64.5z"/>
		<path fill="#B23434" d="M212.1,84.6c-6.4-0.9-8.3,2.5-17.4,6.2c-9.2,3.6-16.1,4.8-16.1,4.8c-6.9,1.6,6.8,6,8,6.3
			c1.2,0.2,0.3-1.3,1.9-1.8c1.6-0.4,1.6,0.8,3.4,0.8c1.8,0.1,1.6,1.3,4.8,1.6c3.2,0.3,2.8-0.2,3.1-0.6c0.4-0.3-1.2-0.7-4-0.9
			c-2.8-0.2-2.9-2.2-6-2.9c-3.1-0.7-0.1-1.7,2.3-1.8c2.4-0.1,3,2.4,5.4,2.6c2.4,0.2,2.8,0.5,4,1.7c1.2,1.2,3.1,0.3,4.7-0.1
			c1.5-0.4-0.9-1.4-3.9-1.5c-2.9,0-3.2-2.4-5.5-2.3c-2.2,0-2.9-1.3-4.7-2.2c-1.8-0.9,1.2-2,1.9-1c0.6,1,1.6,1.3,4.2,1.3
			c2.6,0,2.7,2.1,4.4,2.1c1.7,0,3.4,1.9,5.7,2.1c2.2,0.1,1.6,1.6,3.4,1.7s1.7,1.1,2.9,1.8c1.2,0.6,4.7,0.3,6.5,0.2
			c1.8-0.1,3,0.3,0.6,1.2c-2.4,0.9-2.3-0.1-2.9,0.6s1.1,2.3,2.9,1.5c1.7-0.8,3.2-2.5,3.1-8.7C224.8,90.8,218.5,85.5,212.1,84.6z
			 M214,89.9c1.4,0.7,2.1,1.6,3.6,1.7c1.5,0.1,3.5,2.3,2,2.2c-1.3,0-1.9-1.9-4.3-1.8c-2.4,0.1-4.5-0.7-4.7-2.1
			C210.4,88.5,212.6,89.2,214,89.9z M220.2,100.8c-3,0-4.9-2.3-7.1-2.4c-2.2-0.1-2.8-2-4.9-1.9c-2,0-3.7-0.9-5-0.9
			c-1.2,0-2.3-2.8,0.1-2.2c2.4,0.6,2.7,2,4.5,2c1.8,0,2.7,1.3,4.2,1.3c1.4,0.1,1.9,1.5,3.6,1.5c1.7,0,1.8,1.4,3.5,1.5
			C220.8,99.8,222.4,100.7,220.2,100.8z M221.2,98.3c-2.7-0.1-3.2-1.8-4.8-1.9c-1.6-0.1-2.1-2.4-4.3-2.3c-2.2,0-4.1,0.7-4.9-0.4
			c-0.8-1.1-2.6-2.7-0.3-2.4c2.3,0.2,3.7,0.4,5.1,1.4c1.3,1,3.9,0.6,4.7,1.8c0.8,1.2,1.7,0.3,2.8,1.3
			C220.4,96.8,223.3,98.3,221.2,98.3z"/>
	</g>
	<path fill="#13353F" d="M283.1,82.4c0.3-0.7,1.9,1.4,0.6,2.6c-1.3,1.2-2.7,1.5-3.9,0.5s-0.1-2.8,1.1-3.2
		C281,83.2,282.4,84.2,283.1,82.4z"/>
	<path fill="#AAAAAA" d="M228.2,106.4c0,0,2.9-1.1,2.5,0.1s-3.1,4.7-6.1,7.3C226.3,110.7,227.5,109.5,228.2,106.4z"/>
	<path fill="#AAAAAA" d="M232.5,108c1.3-0.8,1.7,1.3-0.1,2.8c-1.8,1.5-3.9,5-5.8,7C229,114.1,229.9,109.6,232.5,108z"/>
	<path fill="#AAAAAA" d="M219.6,116.7c0,0-1.4,3-4.8,6.2c-3.4,3.2-8,6.6-8,6.6s5-5.5,7.7-8.2S219.6,116.7,219.6,116.7z"/>
	<path fill="#888888" d="M169.7,150.5c0,0-5.5,3.9-13.4,5.9c-2,3.9-3.8,8.3-3.3,11.4c1.1,1.9,4.6,2.2,5.1,1.8
		c0.5-0.4-1.7-0.8-2.7-1.4c-0.9-0.6,2.8-0.6,3.5-1.5c0.7-0.9-3.5,0-4.4-0.9c-0.9-0.9,1.1-2.3,2.6-2.4s3.8-1.8,1.6-1.7
		c-2.2,0.1-4.7-1.7-1.9-1.7c2.8-0.1,3.4-0.4,4.3-1.2c0.9-0.7-4.3,0.2-3.7-0.6C158.9,156.3,166.8,154.9,169.7,150.5z"/>
</g>
<g id="simple">
	<g>
		<path fill="#44BBEE" d="M286.3,82.6c2.8,1.1,1.4,6-1.4,7.6c-2.7,1.6-6.2,2.1-8.7,1.2c-2.4-0.8-0.9-6.4,2.5-8.2
			C282.2,81.3,283.1,81.3,286.3,82.6z"/>
		<path fill="#B23434" d="M155.9,84c-1,0.9-0.7,2.6-3.7,2.9s-4.3-0.3-3.4-1.5s2.7-1.1,3.6-1.9c0.9-0.9,2-1.7,3.8-1.7
			C158,81.9,157,83.1,155.9,84z"/>
		<path fill="#EE4C4C" d="M289.9,59c-6.2-4.8-18.9-2-24.5-1c0,0,0,0,0,0c0,0-10.8,1.7-21.9,7.4c-11.2,5.7-13.9-0.1-23.9-4
			s-22.7-4.7-31.8-3.4c-9.1,1.2-30.1,7-37.6,9.2c-7.5,2.2-19.1,6.8-22,6.3c-0.1,0-0.2,0.2-0.3,0.1c-5.4-2.7-19.9-8.6-19.9-8.6H108
			v-0.5c0,0-1.5-2.3-1.6-2.5c-15-5.5-42.4-16.9-52.2-7.9c-14,15.5,14.5,47.1,31.1,62.9c3.2,0.2,11.7,0.7,11.7,0.7l6.6,0.5
			c0,0,37.1-23.3,39.2-23.5c5.7-0.5,13.9,1.6,18.7,3c1.7,0.5,5.6-4.2,6.1-4.1c5.9,1,7.6,3.1,7.6,3.1s3,2.6,12.9,6
			c9.9,3.5,29.1,2.1,29.1,2.1l5.5-0.3c0,0,2.7-2.7,1.4-8.5c-0.7-3.1-7.2-10.2-7.2-10.2s3.8-0.7,6.9-0.2c3.1,0.4,8,9.4,8.7,10.8
			c0.7,1.4-1.1,3.4-1.5,4.4c-4.3,13.7,24.1,7.1,27.5,5.6c1.9-0.8,5.2-5.6,6.4-5.1c1.2,0.5,2.2-1.2,3.6-1c1.4,0.2,2.7-1.9,2.9-2.7
			s2.2,1.2,3.2,1.5c1.1,0.4,0.3-2.7,0.8-3.9c0.5-1.2,3.4,1.5,3.9,0.8c0.5-0.8,1.3-0.9,2.5-0.9c1.3,0,0.9-1.9,1.6-2.1
			c0.8-0.3-5.3,2-9.7-0.8c-1.7,1.3-5.6,2.7-10.8,3c-5.2,0.3-11.1,1.7-11.1,1.7s0.2-2.5,5.9-3.5c1.7-0.3,9.8-10.9,18.2-13.3
			c2.2-0.6,9.9-1.4,9.9-1.4l5.7-4.6C291.9,74.1,298,65.3,289.9,59z"/>
		<g>
			<polygon fill="#B23434" points="136.6,113 136.6,113 136.6,113 			"/>
			<path fill="#B23434" d="M83.4,84.7c-4.1-11.3-2-15.7,6.6-15.9s20.6,2.3,28.4,5.9c-2-3.4-19.8-10.7-35.3-12.3
				c-15.4-1.6-22.7,0.1-13.3,16S92.3,107,98.7,112c2.1,0,4.1-2,4.1-2S87.9,96.9,83.4,84.7z"/>
			<path fill="#B23434" d="M59.5,56.7c9.9-9,33.5,2.1,48.5,7.6c-1.3-1.9-10.7-16.1-13.8-21.2c-3.9-6.2-8.5-15.9-13.6-24.4
				C75.4,10.2,72.3,7,69.2,4s-2.9-1.7-3.7,1.4c0,0,0,0,0,0c-0.3,0.8-0.5,1.8-0.7,3c-0.5-0.9-0.8-1.6-1.1-2.1
				c-2.6-5.2-4.3-3.5-5.2-0.8s-0.2,5.5,0.2,8.2c0,0,0,0,0,0c0.3,1.8,0.6,3.3,0.8,4c-3.5-5.2-6.6-9.9-8.3-9
				c-2.6,1.4-2.7,10.5-1.4,12.1h0c-5.2-8.7-7.6-5.8-7.6-5.8l0,0c-0.7,0.4-0.9,1.8-0.5,4.6c0.1,0.9,0.8,2.4,1.7,4
				c-0.9-0.3-2.9-1.2-4.9-3c-0.7,0.5-1.3,1-1.7,1.4c0,0,0,0,0,0c0,0,0,0,0,0c-0.1,0.1-0.1,0.2-0.2,0.4c-2.7,4.8,0.6,7.8,2.3,9.9
				c-1.3-1.3-2.7-2.7-4.2-4.2c-1.9-2-2.9-2.2-3.2-1.6c0,0,0,0,0,0c-2.4,2.5,1.5,7.5,3.4,9.9l0,0l0.5,0.9c-2-1.5-8.8-4.3-9.5-1.4
				c0,0-1.5,2.5-0.2,4.9c0.5,0.9,3.1,3.5,6.1,6.5l-3.5-1.6l0,0c-2.8-1.4-7.6,0.2-8.3,0.8c0,0,0,0,0,0c-1,0.6-0.8,2.7,1.6,5.3
				c0.4,0.5,1.1,1.1,2,1.8c-0.2-0.1-0.5-0.3-0.9-0.4c-4.2-1.5-5.5-0.4-6.9,1.8c0,0,0,0,0,0c-1.2,1.3-2.8,4.5,0,6.7
				c0.9,0.8,3.1,2.2,5.8,3.9c-2.4,0.2-4,0.5-5.1,0.8c0,0,0,0,0,0c-3.2-0.4-7,3.2-8.6,5.1c0,0,0,0,0,0c-0.6,0.3-0.9,0.7-0.8,1.1
				c0.4,1.3,2.9,3.4,8.7,7.4c0.7,0.5,1.6,1,2.6,1.5c-4.4,0.2-7.5,0.9-9.6,1.8c-0.8,0.1-2,0.5-3.6,2.2c-0.2,0.2-0.4,0.4-0.6,0.6
				c0,0,0,0,0,0c0,0,0,0,0,0c0,0-0.1,0.1-0.1,0.1c-1.4,1.6-1.7,2.6-1.4,3.4c-0.1,0.5-0.1,1.2,0,2c1.6,2.8,7.4,4.9,13.8,6.5
				c-3.2,0.5-6.6,3.3-9.1,6c-5.2,4.4-5,10.1-3.5,11.5c0,0,0,0,0,0c4.5,6.1,15,1.6,17.9,0.8c2.9-0.8,14-1.2,22.8-1.2
				c6.9,0,39,1.8,50.7,2.5C77.6,102.4,46.7,68,59.5,56.7z"/>
			<path fill="#B23434" d="M279.6,76.8c1.3,0.1-0.1,2.8-2.3,4.3s-4.2,3.5-8.2,5.7s-8.5,5.1-9.4,5.7s-4.5,2.9-9.8,1.2
				c-5.4-1.7-10.9-2.7-7.8-4.7c3-2,9.1-3.5,11.8-5.8s7.6-5.4,10.9-5.4C268,77.8,275.2,76.3,279.6,76.8z"/>
			<path fill="#B23434" d="M175.8,110.4c-9.3-4-13.9-8.2-10.6-11.7c0.6-0.6,2.7-2.2,4.2-3.1c1.6,1.1,4.7,0.7,4.7,1.8
				c0,1.1,1.9,3.1,4.1,3.2c2.3,0.1,1.4,3.2,4.3,3.2c2.9,0,4.7,1.7,5.8,2.2c1.1,0.5,4.1-0.1,5-0.8c1-0.7,3.9,1.7,5.8,1.2
				c1.9-0.5,3.3,0.4,4.6,0.5c1.4,0.1,3.5-0.5,6.3-1s3.4,0.3,5.8,0.2c1.7-0.1,3.4-0.8,4.3-1.2c0.5,0.2,1.2,0.3,1.9,0
				c1.7-0.8,3-2.4,2.9-8.3c-0.1-5.9-6.1-11-12.2-11.9c-4.1-0.6-9-1.1-14.5-0.3c0.2,0,0.4-0.1,0.5-0.1c-0.9,0.1-1.7,0.2-2.5,0.3
				c-8.1,0.7-14.7-0.9-16.5-1.4c-1.7-0.4-6.4,0.5-11.2,2c-4.9,1.4-23.2,8.8-25,11.7c-2.2,3.6-2.3,5.4-1.7,6.3c0.6,1-1.8,2.7,0.4,5.4
				c2.1,2.6,5.2,5,5.2,5s-0.1,3,4.8,3.4c4.9,0.4,5,1.4,5,1.4s1.4,2.4,6.9,2.4c2.4,0,4.2,0.3,4.2,0.3s4.5,1.5,7.1,1.2
				c2.5-0.4,2.5,0.1,2.5,0.1s1.9,1,3.8,0.7c1.9-0.3,2.9-0.4,2.9-0.4s0.9,1.3,3.8,0.4s4.3-0.8,4.3-0.8s1.4,1,4.4,0.5
				c3-0.5,4.6-1.6,7.4-1.6c1.3,0,3.6-0.4,6.5-2c-2,1.4-3.6,2.6-4.5,3.2c-2.7,1.8-16.4,6.1-16.4,6.1s0.1,0,0.2,0
				c-4.8-0.1-9.6,0.2-13.2,1.4c0,0-10.3-0.4-13-1.2c-1.8,0.7-7-1.2-8.7-3.3c-3.5-0.1-9-4.4-10.2-6.4c-2.4-0.1-3.8-1.1-5.5-2.2
				l-2.5-2.2c-0.3-0.4-0.5-0.8-0.7-1c0-0.1-0.1-0.3-0.1-0.3c0,0,0,0.1-0.1,0c-0.1-0.2-0.2-0.3-0.3-0.5c-0.3-0.6-0.8-1.4-1.3-2.4
				c-0.1-0.3-0.2-0.5-0.4-0.8c-0.6-1.8-0.7-4.4-0.7-4.4c0.4-0.7,1.3-2,2.2-3.1c0.6-0.9,1.1-1.5,1.5-1.9c2.6-2.3,3.3-4.2,3.3-4.2
				c7.9-7,13.5-8.5,18.2-11.2c9-5.1,20.7-6,22.2-6.1c2.5-0.2,3.3-0.8,4.5-1.7c1.2-0.8,3.2-2.1,4.5-2.6c0.5-0.2,0.6-0.3,0.5-0.3
				c0,0,0,0,0,0c0,0-0.1,0-0.1,0c-0.1,0-0.2,0-0.4,0c-6.5,0.4-22.6,2.6-36.6,8.4c-9.4,3.9-17.7,10-22.3,13.9
				c-0.2,0.1-0.3,0.1-0.5,0.2c-3.6,1.7-7.5,4.5-9.5,6c-1.2,0.9-4.7,3.7-4.7,3.7s-16.6,13.2-20.1,17.3c-1.1,1.3-1.3,2.2-0.9,2.8
				c-0.4,2.8,3.6,6.6,6.3,8.3c1.2,0.7,2.2,2.2,3.1,3.6l-0.8,0.8l-0.8,0.6c-8.8,7-30.1,16.9-35.9,18.7c-4.2,1.3-9.6,5.5-9.9,8.4
				c-0.1,1.5,2.5,2.5,4.5,3.1c2.5,0.8,10.9,0.4,10.9,0.4l16.8-3.7c0,0,1.4-0.4,2.4-0.5c48.6-9.5,75.4-19.9,75.4-19.9l0-0.1
				c0.5,0,1.2-0.2,2.1-0.5c8.1-2.9,19.9-8.9,33.1-17.4c0,0-0.2,0-0.6,0.1c1.6-0.3,3.3-0.8,4.8-1.5c6-2.5,16-18,16-18
				C214.8,111.4,185,114.4,175.8,110.4z"/>
			<path fill="#B23434" d="M316.3,47.8c-0.5-0.5-17.5,8-20.9,9.5c-3.4,1.5-7.2,0.7-7.2,0.7c10.1,10.3,0.9,17-1,18.4
				c-1.8,1.5-2.9,2.2-1.4,2.2c1.4,0,1.9,3.4,2.7,3.9c0.8,0.5,0.6-0.7,1.7-1.5s1.8-3.9,2.9-5.8c0.3-0.5,0.9-1.3,1.6-2.3
				c4.3-2.5,5.6-5.6,8-8.1c2.4-2.5,12.1-14.4,12.1-14.4C316,49.2,316.7,48.1,316.3,47.8z"/>
		</g>
		<path fill="#13353F" d="M282.8,85.2c0.4-1,2.6,1.9,0.8,3.5s-3.7,2-5.4,0.6c-1.7-1.4-0.2-3.8,1.6-4.4
			C279.8,86.4,281.7,87.7,282.8,85.2z"/>
	</g>
</g>
</svg>
