<?xml version="1.0" encoding="utf-8"?>
<!-- Generator: Adobe Illustrator 18.1.0, SVG Export Plug-In . SVG Version: 6.00 Build 0)  -->
<svg version="1.1" id="Layer_1" xmlns="http://www.w3.org/2000/svg" xmlns:xlink="http://www.w3.org/1999/xlink" x="0px" y="0px"
	 viewBox="0 0 1024 382.6" enable-background="new 0 0 1024 382.6" xml:space="preserve">
<g>
	<path fill="#222222" d="M757.5,301.1c-0.2,1.2-0.4,2.3-0.5,3.5c-0.1,0.6-0.1,1.2,0,1.7c2.7,7.8,0.9,15.2-2.4,22.3
		c-1,2.3-3.1,4.1-4.6,6.2c-0.3,0.4-0.4,0.9-0.7,1.4c0.1,0.1,0.3,0.3,0.4,0.4c1.2-0.6,2.4-1.1,3.5-1.9c1.6-1.2,3.2-2.3,4.4-3.8
		c1.5-1.9,2.6-4.1,3.7-6.3c1.1-2.3,1.9-4.7,2.8-7c0.4-1,0.6-2.1,0.7-3.1c0.3-4.6,0.6-9.3,0.9-13.9c0-0.7-0.3-1.5-0.2-2.1
		c0.2-0.8,0.7-1.5,1.2-2.2c0.1-0.2,0.9-0.1,1.2,0.2c1.5,1.3,3.1,2.5,4.5,3.9c1.6,1.6,3,3.5,4.3,5.3c0.3,0.4,0.2,1.3,0.1,1.9
		c-0.8,4.4-3,8.3-4.9,12.3c-1.8,3.8-4,7.4-6.9,10.3c-2.5,2.5-5.4,4.8-8.3,6.8c-2.3,1.6-4.9,2.9-7.5,3.7c-3.4,1.1-6.9,2.3-10.6,2.5
		c-2.6,0.2-5.3,1.3-7.8,2.4c-3.6,1.5-7.2,2.4-11.1,1.6c-1.3-0.3-2.6-0.1-3.9,0.9c-0.8,0.6-2.4,0.5-3.5,0.4c-1.4-0.1-2.7-0.5-3.2-2.1
		c-0.6-1.7-1.8-2.6-3.4-3.5c-0.9-0.5-1.7-1.7-1.8-2.6c-0.2-1.5,0.2-3.2,0.2-4.7c0-1.2,0-2.5-0.2-3.7c-0.2-1.1-0.8-1.9-2.4-1.5
		c0.4-1.1,0.7-2,1.1-2.9c0.7-1.4,0.2-2.7-0.6-3.9c-0.6-0.9-1.1-1.8-1.6-2.7c-1.3-2.6-0.3-5.1,1.2-7.1c1.8-2.3,2.6-4.9,3-7.6
		c0.3-2,1.7-3.1,2.7-4.6c1.2-1.7,2.7-3.3,3.9-5c1.3-1.8,2.8-3.2,4.9-4.2c1.7-0.8,3-2.2,4.4-3.5c0.4-0.3,0.6-0.9,0.9-1.6
		c2.7,2.9,5.4,4.4,8.5,5.4c1.9,0.7,3.8,0.8,5.8,0.5c2-0.3,4-0.6,6-1c0.6-0.1,1-0.7,1.5-1c-0.5-0.5-1-1.2-1.6-1.4
		c-1.7-0.4-3.4-0.6-5.1-0.7c-2.6-0.1-5-0.3-7.2-1.9c-0.2-0.1-0.6-0.2-0.8-0.2c-2.1,0-3.1-1.5-3.9-3.1c-1.9-3.9-2.4-8-2.2-12.2
		c0-0.4,0-0.7,0-1.1c0-0.1-0.1-0.2-0.3-0.6c-0.6,2-1.2,3.7-1.5,5.4c-0.2,1.3-0.1,2.7-0.1,4.1c0,1.4,0,2.7-1.1,3.9
		c-0.9,0.9-1.2,2.3-1.8,3.5c-0.5,0.9-1,1.7-1.5,2.4c-1.5-2-2.8-4.1-4.4-5.7c-1.9-1.9-4.1-3.5-6.3-5.1c-2.6-2-5.1-4.1-7.7-6
		c-2.1-1.5-4.4-3-6.7-4.1c-4.8-2.4-9.8-4.6-14.7-6.9c-0.9-0.4-1.8-1-2.7-1.3c-0.4-0.2-1.1-0.1-1.5,0.1c-0.2,0.2-0.1,0.9-0.1,1.3
		c0.1,0.6,0.2,1.3,0.4,1.9c-0.1,0.1-0.2,0.2-0.3,0.3c-0.8-0.4-1.7-0.8-2.5-1.3c-0.8-0.5-1.6-1-2.4-1.4c-3.4-1.8-5.5-4.8-7-8.2
		c-0.7-1.5-1.1-3.2-2-4.6c-1.1-1.6-2.5-3.1-4-4.4c-1.3-1.2-2.7-2.1-4.2-3c-0.6-0.4-1.4-0.6-2.3-0.9c-0.1,3.4,0.6,6.2,2,8.8
		c1.4,2.6,1.6,5.4,1.3,8.3c-0.2,2.2-1.6,3.8-2.6,5.6c-0.7,1.3-2.4,1.6-3.7,1c-2.1-1-4.2-1.9-6.3-2.9c-1.3-0.6-2.2-1.6-2-3.2
		c0.4-4.8-0.9-9.3-3-13.6c-1.1-2.3-3.3-3.5-5.3-4.8c-0.3-0.2-0.9,0.1-1.4,0.2c0.1,0.6,0.1,1.2,0.4,1.6c0.8,1,1.8,1.9,2.5,2.9
		c1.5,2,2.9,4,4.2,6.1c0.4,0.8,0.3,1.9,0.4,2.9c0.2,1.5,0.3,2.9,0.5,4.4c-1.4,0.2-2.2-0.1-3-1c-0.6-0.6-1.3-1.1-2.1-1.5
		c-1.7-0.9-3.5-1.8-5.3-2.5c-1.5-0.6-2-1.9-2.4-3.1c-1.1-2.8-2.7-5.3-5-7c-2.3-1.8-5.1-3.2-8.6-2c0.3,0.4,0.5,0.8,0.8,1
		c1.7,0.9,3.5,1.6,5,2.8c1.8,1.4,3.3,3.2,4.8,4.8c0.2,0.2,0.1,0.9-0.1,1.1c-0.3,0.2-0.9,0.3-1.2,0.2c-1-0.3-1.9-0.8-2.9-1.1
		c-2.5-0.7-4.9-1.6-7.4-1.9c-1.8-0.2-3.7-1.2-5.6,0c-0.4,0.2-1.2-0.2-1.8-0.2c-0.4,0.1-0.8,0.5-1.3,0.8c6.8,2.2,13.2,4.2,20,6.3
		c-2,1.8-3.7,3.2-5.8,3.6c-2.7,0.5-5.4,0.9-8,1.4c-0.8,0.1-1.1,0.7-0.4,1.2c0.6,0.4,1.4,1,2,0.9c2.1-0.2,4.2-0.7,6.3-1.1
		c3.2-0.6,5.7-2.6,8.3-4.3c0.4-0.2,1-0.3,1.4-0.2c1.7,0.7,3.3,1.5,5,2.3c0.9,0.4,1.8,0.7,2.6,1.2c0.4,0.2,0.8,0.6,0.9,1
		c0,0.3-0.3,0.8-0.7,1.1c-1.8,1.4-3.6,3-5.6,4c-2.1,1-3.9,2.9-6.5,2.6c-1-0.1-2.1,0.1-3.1,0.3c-0.6,0.1-1.2,0.4-1.8,0.8
		c2.1,1.6,4.2,2.3,6.7,1.7c3.2-0.7,6.2-1.7,8.7-3.8c1.5-1.3,3-2.6,4.2-4.2c0.8-1,1.4-0.8,2-0.3c2,2.1,4.2,4.1,5.7,6.4
		c1.5,2.2,1.1,4.8-0.3,7.1c-2.4,3.9-4.9,7.6-7.5,11.6c-1.7-0.7-3.2-1.6-4.8-2c-4.1-1-8.3-1.9-12.5-2.6c-1.5-0.3-3.2,0.2-4.8,0.4
		c-2,0.3-4.1,0.4-6,1c-3,1-6.3,1.7-8,5.2c1.2-0.3,2.4-0.6,3.6-0.8c3.4-0.8,6.8-1.7,10.2-2.3c2.6-0.4,5.4-0.6,8-0.6
		c4-0.1,7.4,1.9,10.8,3.7c0.2,0.1,0.3,0.3,0.4,0.4c0.1,0.1,0.3,0.3,0.6,0.7c-1.1,1.5-2.3,3-3.4,4.5c-1.9,2.5-3.9,4.9-5.8,7.4
		c-1.4,1.9-1.8,1.9-4,0.7c-2.2-1.2-4.5-2.2-6.9-3c-1.1-0.4-2.5-0.3-3.7-0.2c-2.9,0.2-6.1,0-8.8,0.9c-2.9,1-5.5,3-8.2,4.6
		c-0.1,0.1-0.1,0.5-0.2,1c2.8-0.8,5.4-1.6,8.1-2.4c1.4-0.4,2.8-0.7,4.2-1c0.9-0.2,1.8-0.4,2.7-0.4c2.2,0,4.5,0.4,6.6,0.2
		c2.4-0.3,3.9,1.5,5.8,2c0.8,0.2,1,1.1,0.2,1.8c-2.2,2.3-4.4,4.5-6.5,6.8c-1.7,1.8-3.5,3.7-5.2,5.5c-0.8,0.8-1.6,1.3-2.8,0.8
		c-2.5-0.9-5.2-1.4-7.9-1.3c-2.2,0.1-3.9,0.9-5.7,1.9c-1,0.6-2.6,0.5-3.5,1.5c-1.6,1.7-3.9,2.9-3.7,6.2c1.2-0.8,2.2-1.4,3.1-2.1
		c2-1.6,3.8-3.5,5.9-4.8c1.2-0.7,2.9-0.5,4.4-0.5c1.7,0,3.5,0.2,5.2,0.4c0.5,0,0.9,0.4,1.3,0.6c-0.2,0.4-0.4,1-0.7,1.3
		c-2.1,1.9-4.2,3.8-6.4,5.5c-3.8,2.8-7.8,5.5-11.6,8.3c-1.7,1.2-3.4,2.6-5,3.9c-0.2,0.2-0.3,0.5-0.4,0.7c0.1,0.1,0.2,0.3,0.3,0.4
		c4.4-2.2,9-4.1,13.1-6.7c4.2-2.7,7.8-6.1,12-9.4c-1.2,2.9-2.3,5.5-3.3,8.2c-1,2.7-4.1,3.8-4.8,6.7c0.1,0.1,0.2,0.2,0.3,0.3
		c0.9-0.5,1.9-0.8,2.7-1.5c3.5-2.7,5.4-6.5,6.6-10.6c0.4-1.2,0.6-2.5,0.8-3.8c0.3-1.9,1.7-3.1,2.9-4.4c2.4-2.7,5-5.3,7.5-7.9
		c0.4-0.4,0.7-0.9,1.4-1.6c0.4,1.2,0.9,1.9,0.9,2.7c0.4,4.4-0.2,8.7-2.3,12.6c-0.4,0.8-0.7,1.8-1.1,2.7c1.2,0.4,1.8,0.2,2.3-1.1
		c1.1-2.8,2.5-5.4,3.5-8.2c0.9-2.4,1.2-5,0.8-7.7c-0.2-1.4-0.1-2.9,0-4.4c0-0.5,0.4-1.1,0.7-1.5c1.6-1.9,3.2-3.8,4.9-5.7
		c0.5-0.5,0.9-1.1,1.8-2c0.3,1.6,0.6,2.7,0.7,3.8c0.2,4,0,8-1.1,11.8c-0.2,0.7,0.2,1.7,0.3,2.6c2.7-1.4,3.1-3.7,3.6-5.8
		c0.8-2.9,0.6-6-0.2-9c-0.4-1.4-0.6-2.8-0.9-4.1c-0.5-1.9,1-2.9,1.8-4.2c1.3-2,2.9-3.7,4.5-5.7c1.6,1.2,2.1,2.8,2.1,4.7
		c0,0.4-0.1,0.9,0,1.1c1.6,1.2,1.3,3,1.5,4.5c0.5,3-0.5,5.9-1,8.8c-0.3,1.9-0.7,3.8-1.1,5.7c-0.1,0.5-0.4,0.9-0.6,1.4
		c-0.3,0.8-0.6,1.6-0.9,2.4c1.3,0.5,1.9,0.1,2.5-0.9c1.7-3.1,2.7-6.5,3-10c0.2-1.9,0.7-3.9,0.9-5.8c0.1-1.2,0-2.5-0.3-3.7
		c-0.5-2.1-1.1-4.2-1.9-6.2c-0.3-0.9-1.1-1.7-1.7-2.5c-0.7-1-0.8-1.8-0.1-2.9c2-2.9,4-5.9,6-8.8c1.3-1.9,3.5-1.8,4.6,0.3
		c0.9,1.7,1.5,3.5,1.6,5.5c0.1,2.9,0.8,5.7,1.1,8.6c0.2,2,0.4,4,0.3,6c0,0.4-0.9,1.3-1.3,1.3c-3.6,0-5.1,2.6-6.6,5.4
		c1.6-0.6,3.2-1.2,4.9-1.8c0.1,0,0.1-0.2,0.2-0.2c0.8-0.2,1.7-0.4,2.5-0.7c0,0.9,0.1,1.8,0,2.6c-0.3,1.9-0.5,3.7-1,5.5
		c-0.4,1.4-1.1,2.7-1.6,4.1c-0.7,1.9-1.4,3.9-2,5.9c-0.2,0.7,0.3,1.5,0.5,2.3c0.1,0.4,0.3,0.8,0.2,1.2c-0.3,1.7-0.8,3.4-1.1,5
		c-0.1,0.8,0,1.7,0,2.5c0.2,0,0.5,0.1,0.7,0.1c0.5-1.4,1.1-2.8,1.5-4.2c0.6-1.9,1-3.8,1.4-5.7c1.2-4.7,3.5-9.1,3.9-14
		c0-0.3,0.4-0.6,0.7-0.9c0.3,0.3,0.8,0.6,0.8,0.9c0.5,3,0.9,5.9,1.3,8.9c0.1,1,0.3,1.9,0.4,3.3c0.5-0.6,1-0.9,1.1-1.3
		c1.8-5.5,0.7-10.6-2.4-15.4c-0.3-0.5-0.6-1.2-0.6-1.8c-0.1-3,0-6.1-0.1-9.1c0-0.6-0.2-1.2-0.1-2c2.5,1.2,4.7,2.9,6.5,5
		c1.8,2.1,3.3,4.3,5,6.6c0.9-0.6,1.3-1.2,0.9-2.5c-0.9-2.9-2.3-5.4-4.7-7.2c-1.6-1.2-3.4-2.1-5.1-3.1c-1.5-0.9-3-1.5-3.2-3.9
		c-0.2-2.2-1.3-4.3-2-6.5c-0.2-0.6-0.3-1.3-0.4-1.9c-0.2-1,0.5-1.5,1.3-1.4c1.9,0.2,3.9,0.4,5.7,0.9c2.8,0.9,5.4,2.1,8.2,3.1
		c-0.1-1.9-1.5-3.1-3-4.1c-3.1-2.3-6.7-2.9-10.5-2.4c-0.9,0.1-1.9,0-2.7,0c-1.4-2.7,0-7.5,2.8-9.2c2.3-1.3,2.2-1.4,4.4,0.1
		c2.6,1.8,5.4,3.4,8,5.3c2.3,1.7,4.7,3.3,6.5,5.5c2.6,3.2,4.3,7.1,4.8,11.3c0.3,2.7-0.2,5.5,0.1,8.3c0.3,3-0.7,5.7-1.4,8.4
		c-1.1,4.8-4,8.7-6.9,12.6c-2,2.6-3.9,5.2-5.7,7.9c-2.3,3.3-4.6,6.6-6.6,10.1c-1.9,3.4-3.2,7.1-4.1,10.9c-0.3,1.3-0.6,2.7-1,4
		c-0.1,0.4-0.5,0.9-0.8,1c-0.3,0.1-0.8-0.3-1-0.7c-1.8-2.5-3.6-4.9-5.2-7.5c-2.9-4.6-5.2-9.4-6.9-14.6c-0.2-0.7-0.5-1.5-1.4-1.1
		c-0.5,0.2-1,0.7-1.1,1.1c-1.4,3.9-4.1,7-7.2,9.6c-2.1,1.8-4.2,3.6-6.4,5.4c-0.2,0.2-0.5,0.4-0.8,0.5c-3.1,1.1-6.2,2.2-9.2,3.4
		c-3.3,1.3-6.5,2.7-9.9,3.8c-3.1,1-6.3,1.7-9.4,2.6c-1.4,0.4-2.8,1-4.2,1.2c-2.1,0.3-4.3,0.4-6.5,0.6c-2.3,0.2-4.6,0.8-6.9,0.6
		c-4-0.3-7.7,1-11.5,1.7c-1.2,0.2-2.4,0.8-3.6,1c-0.5,0.1-1.2,0-1.6-0.2c-0.2-0.1-0.1-1,0.1-1.4c1.1-1.7,2.3-3.4,3.5-5.1
		c2.8-3.9,5.2-8.1,6.9-12.6c1.4-3.8,3-7.5,4.2-11.4c0.9-2.8,1.1-5.7,1.7-8.5c0.9-4.5,2.1-8.9,2.8-13.4c0.7-4.2,3.1-7.5,4.9-11.2
		c2.1-4.2,5.2-7.6,8.6-10.6c2.3-2,5.3-3.1,8-4.6c0.2-0.1,0.5-0.2,0.7-0.3c0.7-0.4,1.4-0.9,2.1-1.4c-0.6-0.6-1.1-1.3-1.8-1.9
		c-2.9-2.3-5.7-4.7-7.4-8c-2.7-5.3-5.3-10.7-7.9-16.1c-0.8-1.5-0.1-2.9,1.6-3.5c2-0.8,4.1-1.6,5.9-2.8c6-3.8,11.8-7.7,17.7-11.6
		c1.6-1,3-2.3,4.6-3.2c1-0.6,2.1-1,3.2-1.3c1.9-0.5,2.3-1.3,1.7-3.2c-0.9-2.8-2.3-5.4-4.2-7.6c-1.7-2.1-3.3-4.3-5.1-6.3
		c-2-2-4.2-3.8-6.4-5.7c-0.9-0.8-2-1.5-3-2.3c-1-0.8-2.5-0.7-3.5,0.2c-0.9,0.8-1.9,1.7-3,2.3c-5,2.9-10.1,5.8-15.2,8.7
		c-2.8,1.6-5.6,3-8.4,4.5c-2,1.1-2.2,3.4-2.8,5.2c-0.8,2.8-1.4,5.7-3.4,7.8c-1.8,1.8-4.1,3.1-6.2,4.6c-0.1,0.1-0.4,0.1-0.6,0.1
		c-3.2-0.3-6.5-0.4-9.7-1c-2-0.4-3.9-1.3-5.6-2.4c-2.9-1.9-5.8-1.5-8.8-0.7c-2.6,0.6-5.1,1.5-7.6,2c-3.2,0.7-6.5,1.1-9.7,1.7
		c-0.2,0-0.4,0.2-0.5,0.2c-2.7-1.4-5.5,0-8.2-0.1c-4.1-0.2-8.3-0.2-12.4-0.4c-2.7-0.1-5.4-0.2-8-0.7c-2.9-0.6-5.7-1.7-8.4-2.7
		c-1.7-0.6-3.4-1.4-4.9-2.3c-1.5-0.9-2.9-2-4.3-3.2c-3.1-2.7-6.3-5.4-9.2-8.3c-3.5-3.5-6.7-7.4-10.2-11c-0.6-0.6-1.7-0.9-2.6-1.1
		c-2.1-0.3-4.2-0.5-6.3-0.6c-2.2,0-4.5,0.1-6.7,0.2c-1.6,0.1-3.3,0.2-4.8,0.6c-0.9,0.2-1.8,0.9-2.3,1.6c-0.7,1-1.2,2.2-1.6,3.4
		c-1.1,3.3-3,6.2-5.4,8.4c-4.3,4-9.3,6.8-15.7,5.5c-3.9-0.8-7.5-1.9-11-3.7c-2-1-4-2.1-6-3.2c-0.3-0.1-0.6-0.4-0.8-0.3
		c-1.3,0.6-2.8,0.9-3.7,1.8c-2.5,2.5-4.9,5.2-7.2,8.1c-1.7,2.1-3.2,4.4-4.3,6.8c-1,2.2-1.5,4.6-2,7c-0.5,2.6-0.7,5.3-1.1,8
		c-0.2,1.2,0.4,1.7,1.5,1.9c2.5,0.5,5.1,0.9,7.6,1.6c3.9,1,7.7,2,11.3,3.9c5.1,2.6,9.6,6.1,13.2,10.5c1.7,2.1,3.6,4.2,4.7,6.6
		c1.8,3.8,2.9,8,3.6,12.2c0.4,2.3,1.4,4.4,2.2,6.6c0.5,1.4,1.1,2.7,1.8,4c1,1.9,2.3,3.7,3.3,5.6c0.8,1.5,0.3,2.1-1.3,2.3
		c-2,0.2-4,0.6-6,0.9c-1.9,0.3-3.9,0.5-5.7,1c-2.8,0.8-5.5,1.9-8.3,2.7c-2.4,0.7-4.9,1.2-7.4,1.6c-1.4,0.2-2.9,0.3-4.3,0.3
		c-1.7,0.1-2.2,0.7-1.4,2.4c0.7,1.5,1.6,2.9,2.2,4.5c1.1,2.9,2.1,5.7,2,8.9c-0.1,2.6,0.4,5.1,0.6,7.7c0.4,6-0.6,11.9-1.6,17.7
		c-0.6,3.5-1,7-1.5,10.6c-0.5,3.6-0.9,7.2-1.2,10.8c-0.1,0.9,0.1,1.8-0.1,2.6c-0.1,0.7-0.6,1.3-0.9,2c-0.6-0.3-1.2-0.5-1.7-0.9
		c-2.5-2-4.8-4.3-7.5-6.1c-1.6-1.1-3.8-1.4-5.6-2.3c-2.6-1.3-5.1-2.8-7.7-4.2c-1.6-0.9-3.3-1.7-4.8-2.7c-1.2-0.8-2.2-1.8-3.4-2.7
		c-3-2.2-5.5-4.8-7.4-8.1c-0.7-1.2-0.8-2.8-1.3-4.2c-0.6-1.8-1.3-2.1-2.7-0.8c-2.9,2.5-6.4,3.3-9.9,4.4c-2.7,0.8-5.4,2.1-7.9,3.5
		c-2.4,1.4-4.5,3.4-6.8,5.1c-0.4,0.3-1,0.6-1.5,0.5c-0.2,0-0.4-0.8-0.5-1.3c-1-2.8-2.1-5.7-3.1-8.5c-0.4-1.2-0.8-2.4-1.3-3.5
		c-1.9-4.7-3.9-9.3-5.8-14c-2.1-5.2-2.8-10.7-3-16.3c-0.2-4.2-0.1-8.4,0.7-12.6c0.5-2.7,1.1-5.4,1.9-8c0.5-1.5-0.2-2.1-1.3-2.4
		c-3.3-0.9-6.7-1.6-10-2.5c-3.8-1-7.6-2-11.4-3.1c-2.2-0.6-2.9,0.1-3,2.4c-0.1,4.1-0.5,8.2-0.8,12.3c0,0.5,0,0.9,0,1.4
		c-0.2,7.3-0.5,14.6-0.6,22c0,2.5,0.4,5,0.6,7.5c0.1,1.3,0,2.5,0.1,3.8c0,0.7,0.3,1.4,0.2,2.1c-0.1,0.7-0.4,1.5-0.9,1.8
		c-0.4,0.2-1.3-0.2-1.8-0.6c-2-1.8-3.8-3.8-6-5.4c-2.1-1.6-4.6-2.8-7-3.9c-4.3-2-8.7-3.9-13-5.8c-1.6-0.7-3.3-1.1-4.7-2
		c-2.3-1.4-4.5-3.1-6.8-4.8c-2-1.5-3.9-3-5.8-4.5c-2.5-2.1-5.2-4.1-7.3-6.6c-2.4-2.7-4.2-5.9-5-9.6c-0.5-2.4-1.2-4.7-1.9-7
		c-0.4-1.3-1.3-1.6-2.2-0.5c-1.5,1.6-2.8,3.3-4.2,4.9c-0.4,0.5-0.9,0.9-1.4,1.4c-1.3,1.5-2.8,2.9-3.8,4.5c-2.3,3.7-4.5,7.4-6.7,11.2
		c-1.3,2.3-2.4,4.6-3.8,7.3c-0.5-0.8-1.2-1.4-1.4-2.2c-0.4-2.3-2.1-3.6-3.4-5.2c-2.1-2.5-4.6-4.8-6.7-7.4c-1.9-2.5-3.5-5.2-5.3-7.8
		c-1.8-2.6-3.8-5-5.3-7.8c-1.7-3.3-3.1-6.8-3.8-10.6c-0.6-3.1-0.9-6.2-0.9-9.3c0.1-6.1,1.7-11.7,4.6-17.2c2.1-3.9,5-6.7,8.6-9.1
		c2.2-1.5,4.3-3.3,6.5-4.7c1.7-1.1,3.6-2,5.4-3c1.4-0.9,2.7-2.1,4.2-2.8c2.1-1,4.3-1.4,6.1,0.6c0.5,0.6,1.1,1.4,1.1,2.2
		c0,2.1-0.3,4.3-0.6,6.4c-0.2,1.2-0.8,2.3-1.1,3.4c-0.4,1.3-1.2,1.9-2.6,1.8c-3.6-0.4-7,0.4-10.1,2.2c-2.4,1.3-4.2,3.2-5.7,5.4
		c-0.9,1.3-1.9,2.6-2.8,4c0.1,0.1,0.1,0.3,0.2,0.4c0.4-0.2,0.9-0.2,1.1-0.5c2.2-3.5,5.7-5.3,9.3-6.7c1.4-0.6,3-0.7,4.6-1
		c1.2-0.2,2.5-0.4,4.1-0.7c-0.4,1.5-0.8,2.7-1.1,4c-0.6,3.3-1.1,6.5-1.6,9.8c-0.2,1-0.4,1.8-1.6,2.1c-4.1,1-7.3,3.2-9.3,7.1
		c-1.7,3.1-2.9,6.4-2.8,10c0,1.7,0.5,3.4,0.9,5.1c0.1,0.3,0.6,0.6,0.9,0.9c0.3-0.4,0.8-0.8,0.9-1.2c0.2-0.7,0-1.6,0.1-2.3
		c0.5-4.9,1.8-9.5,5.2-13.3c0.9-1,2.1-1.6,3.2-2.3c0.9-0.5,1.6,0.1,1.5,1.1c-0.3,4.5-0.6,9-0.9,13.4c-0.2,2.9-0.4,5.9-0.3,8.8
		c0.1,2.6-0.9,4.5-2.4,6.4c-1.1,1.3-1.8,2.8-3,4.7c0.9,0,1.6,0.2,1.9,0c2.6-1.7,4.3-4.2,5.5-7c0.6-1.6,1.2-3.4,1.4-5.1
		c0.4-2.7,0.5-5.4,0.6-8.1c0.1-4.3,0-8.6,0.1-12.9c0-0.4,0.2-0.9,0.3-1.3c1.5,0.4,3.3,4.6,4.7,8.3c1.3,3.3-0.3,6.7,1,10.1
		c2.7-2.8,3.2-6,2.9-9.4c-0.1-1.2-0.5-2.5-0.8-3.7c-0.5-2.6-2.5-4.2-4-6.1c-0.6-0.8-1.5-1.5-2.3-2.2c-0.6-0.6-1.1-1.2-0.8-2.3
		c0.6-2.7,0.8-5.4,1.4-8.1c0.6-2.7,1.4-5.2,2.3-8.2c0.9,1.1,1.6,2,2.3,2.9c1.9,2.7,2.8,5.8,3.8,8.9c0.4,1.4,0.4,2.9,0.7,4.4
		c0.1,0.7,0.5,1.3,0.8,1.9c0.1,0,0.3,0,0.4,0c0.2-0.6,0.6-1.2,0.6-1.9c0.2-4.6-0.5-9-2.9-12.9c-1.1-1.8-2.5-3.4-3.7-5.1
		c-0.3-0.5-0.7-1.3-0.6-1.8c0.4-1.3,0.7-3.1,1.7-3.7c1-0.7,2.8-0.6,4.1-0.3c1.6,0.4,3.2,1.3,4.7,2.1c2.2,1.2,4.4,2.5,6.4,3.9
		c1.2,0.9,2.3,2.1,3.3,3.3c0.9,1,0.7,1.9-0.2,3.1c-1.1,1.4-1.8,3.3-2.6,4.9c-1.5,3.3-2.1,6.8-2.1,10.3c0,0.8,0.4,1.6,0.9,2.4
		c1.9-6.2,3.6-12.4,7.8-17.9c1.1,1.3,2.3,2.6,3.3,3.9c1.9,2.4,3.7,4.8,5.5,7.3c1.4,1.9,1.4,2.2,0,4c-1.7,2.2-2.8,4.9-4.2,7.4
		c-1.7,3.1-2.2,6.6-2.1,10.1c0.1,2.3,1.2,4.6,1.9,6.8c0.1,0.3,0.7,0.6,1,0.6c0.3,0,0.7-0.6,0.7-0.9c0.1-1.7-0.1-3.3,0.1-5
		c0.3-3.1,0.8-6.1,1.2-9.1c0.1-0.6,0.1-1.2,0-1.9c-0.1-2,1-3.6,2.1-5.1c0.6-0.8,1.3-1.5,2.1-2.4c0.6,1.1,1.1,2.1,1.6,3.1
		c1.3,2.4,2.6,4.8,3.9,7.2c1,1.8,2.1,3.6,3.3,5.3c0.6,1,0.7,1.8-0.2,2.6c-2.4,2.3-3.4,5.4-4.4,8.4c-1,2.9-0.7,5.9-0.8,9
		c-0.1,3.2,1.9,5.5,2.5,8.3c0.1,0.5,0.8,0.9,1.5,1.8c0.2-1,0.5-1.6,0.4-2.2c-0.3-1.7-0.9-3.3-1.1-5c-0.4-3.5-0.7-6.9,0.5-10.3
		c1-2.8,2.1-5.6,3.1-8.4c0.2,0,0.3,0.1,0.5,0.1c1,1.8,2.1,3.5,2.9,5.4c1.7,4.4,3.3,8.8,4.9,13.2c1.7,4.7,3.4,9.3,5.2,13.9
		c0.2,0.6,0.7,1,1.1,1.6c1.7-1.3,0.9-2.7,0.6-3.8c-1.8-5.5-3.7-10.9-5.8-16.3c-1.8-4.7-3.7-9.4-5.6-14.1c-0.8-2-1.8-3.9-2.7-5.9
		c-0.2-0.4-0.1-1-0.1-1.5c0.5,0.1,0.9,0.2,1.4,0.3c1.4,0.4,3,0.6,4.1,1.4c2.2,1.6,4.1,3.6,6.1,5.4c0.8,0.7,1.4,1.6,2.3,2.3
		c-0.3-2.4-1.6-4.2-3.3-5.6c-1.7-1.4-3.6-2.6-5.4-3.7c-2.2-1.3-4.5-2.2-6.7-3.5c-0.6-0.4-1.1-1.1-1.5-1.8c-1.7-2.9-3.3-5.8-4.9-8.7
		c-0.2-0.4-0.2-0.8-0.5-1.6c1.7,0.4,3.1,0.6,4.4,0.9c2.6,0.6,5.2,0.9,7.7,1.8c2,0.8,3.9,2.1,5.8,3.3c1.3,0.8,2.4,1.9,3.6,2.8
		c0.2,0.1,0.6,0.2,0.8,0c0.2-0.1,0.4-0.5,0.3-0.7c-0.7-2.8-2-5.3-4.6-6.7c-2.9-1.5-5.7-3.3-9.1-3.5c-3.1-0.2-6.3-0.4-9.4-0.5
		c-1.2,0-1.8-0.4-2.4-1.4c-1.7-2.5-3.7-4.9-5.6-7.3c-0.5-0.6-1-1.3-1.6-1.9c-1.7-1.8-3.4-3.5-5-5.4c-0.4-0.4-0.4-1.2-0.7-2.2
		c5,0.8,9.7,1.1,14.1,2.4c4.3,1.3,8.2,3.8,12.8,6c-0.7-1.3-1-2.5-1.8-3.2c-1.3-1.3-2.7-2.6-4.2-3.5c-3.6-2-7.6-3-11.7-3.8
		c-3.2-0.7-6.5-0.4-9.7-0.3c-1.3,0.1-2-0.3-2.9-1.5c-2.2-2.8-4.9-5.3-7.5-7.8c-0.6-0.6-1.5-1.1-2.1-1.7c-0.3-0.3-0.4-1-0.3-1.3
		c0.4-0.7,0.9-1.4,1.6-1.8c2.9-1.8,5.9-3.4,8.8-5.1c0.1,0,0.2-0.1,0.3-0.1c0.7-0.4,1.6-1.2,2-1c0.8,0.5,1.6,1.4,2,2.2
		c1,1.9,2.6,3.2,4.5,4.2c0.3,0.1,0.5,0.4,0.7,0.6c2.6,2.5,8.1,3.4,12,1.6c-1.3-0.6-2.3-1.4-3.4-1.6c-1.4-0.2-2.8-0.2-3.9-1.5
		c-0.3-0.4-1-0.5-1.5-0.7c-3-1.1-4.7-3.9-6.9-6c-0.6-0.6-0.2-1.3,0.6-1.5c4.3-1,8.6-1.8,12.9-2.9c1.4-0.4,2.2,0.1,3,1
		c1.2,1.3,2.3,2.7,3.7,3.7c1.8,1.3,3.7,2.5,5.7,3.3c1.7,0.7,3.8,0.7,5.6,1.1c1.4,0.3,1.7-0.6,2.2-1.7c-6.1-0.8-10.8-3.8-15.1-8.2
		c0.5-0.2,0.8-0.4,1.1-0.4c3.3-0.1,6.6-0.1,9.9-0.4c2.4-0.2,4.8-0.6,7.1-0.8c0.8-0.1,1.6,0.2,2.4,0.2c3.1,0,3.2,0,4.7-3.1
		c-3.7,0.2-7.2,0.5-10.6,0.7c-1.2,0.1-2.4-0.1-3.6-0.1c-3.8,0-7.7-0.2-11.5,0.1c-3,0.2-5.9,1.2-8.9,1.8c-0.5,0.1-1.1-0.1-1.7-0.1
		c0.1-0.5,0-1.2,0.3-1.6c1.9-2.4,3.8-4.8,6-6.9c1.7-1.6,3.8-2.8,5.8-4.2c0.6-0.4,1.1-0.9,1.8-1.5c-0.4-0.3-0.7-0.7-0.9-0.6
		c-2.1,0.6-4.3,1-6.2,2.1c-4.3,2.5-7.8,6-9.2,10.7c-0.9,3.1-3.1,3.4-5.4,4.3c-2.1,0.8-4.2,1.8-6.4,2.7c-0.6,0.2-1.2,0.4-1.8,0.5
		c-0.1-0.6-0.4-1.2-0.3-1.7c1-5,2.7-9.8,5-14.3c0.8-1.6,2.2-3,3.3-4.5c0.2-0.3,0.3-0.6,0.6-1.2c-2.4,0.3-4.1,1.3-5.4,2.9
		c-2.9,3.4-4.2,7.5-5,11.8c-0.5,2.4-0.3,4.8-0.4,7.3c0,0.3,0.1,0.8-0.1,0.9c-2.3,2.1-4.1,5.1-7.8,5.2c-3.8,0.2-5.5-2.4-5.4-5.5
		c0.1-3,0.8-6,1.3-9c0.5-2.8,1.1-5.7,1.8-8.5c0.5-2.3,1-4.7,1.6-7c0.5-1.7,0-2.6-1.6-3.4c-3.6-1.7-7-3.6-10.6-5.1
		c-3.3-1.5-6.6-3.3-10.5-2.9c-4.5,0.4-8.8,1.4-13,3c-2.6,1-5.2,1.8-7.7,3c-2.2,1-2.3,2.3-0.5,4c2.4,2.3,3.8,5.2,4.7,8.3
		c0.7,2.2,0.7,4.5,1.1,6.7c-0.2,0.1-0.3,0.2-0.5,0.3c-0.4-0.3-1-0.6-1.3-1c-1-1.4-1.8-2.8-2.8-4.2c-0.2-0.3-0.5-0.7-0.8-0.9
		c-0.4-0.2-0.9-0.5-1.3-0.4c-0.3,0.1-0.6,0.7-0.7,1.1c-0.5,2.2-0.7,4.5-1.5,6.5c-1,2.3-2.3,4.7-3.9,6.6c-1.9,2.2-2.5,4.8-3.6,7.3
		c-1.3,3.1-1.3,6.4-2,9.7c-0.7,3.5-3,6.4-4.7,9.5c-0.2,0-0.4,0-0.6-0.1c-0.3-1.1-0.5-2.3-0.8-3.4c-0.4-1.5-0.6-3-1.2-4.5
		c-1.6-4.3-3.4-8.5-5-12.8c-0.8-2.1-0.6-4.3-0.2-6.4c0.5-2.7,1.2-5.3,2.1-7.9c0.7-2,1.9-3.9,2.9-5.8c0.3-0.5,0.4-1.1,0.7-1.8
		c-4,0.2-5.2,4.3-8.5,5.3c-0.4-1.9,1.1-2.9,1.9-4c1.6-2.3,3.3-4.5,5.3-6.5c2.1-2.3,5-3.5,8-4.2c1.2-0.3,2.5-0.6,3.7-0.7
		c3-0.3,5-2.6,7.4-4c2-1.1,4-2.1,6.1-3.1c0.9-0.4,1.7-1,2.4-1.6c0.2-0.1,0.1-1-0.2-1.2c-1.6-1.2-3.2-2.5-5-3.4
		c-1.7-0.9-3.6-1.5-5.5-1.9c-4.4-1.1-8.9-2-13.6-2c-0.2,0-0.4,0.1-0.6,0c-3-1.4-4.9,0-6.5,2.4c-1.7,2.5-3.7,4.6-6.2,6.2
		c-0.7,0.4-1.2,1.2-1.9,1.6c-0.3,0.2-0.9,0-1.4,0c0-0.4-0.1-0.9,0.1-1.2c0.7-1.3,1.4-2.5,2.1-3.8c-0.1-0.2-0.3-0.4-0.4-0.5
		c-1.3,0.4-2.7,0.6-4,1.2c-2.9,1.4-5.8,2.8-9,3.2c-1,0.1-2,0.2-3.1,0.3c-3.9,0.2-6.9,2.5-10,4.4c-3.6,2.2-7.4,3.8-11.6,4.2
		c-1,0.1-2,0.3-3.1,0.3c-0.4,0-0.8-0.3-1.2-0.5c0.2-0.4,0.3-0.9,0.6-1.2c2.6-2.3,5.2-4.5,7.7-6.8c2.4-2.2,4.6-4.5,6.3-7.3
		c2.1-3.4,5.2-5.5,8.7-7.3c3.8-2,7.9-2.4,12.1-2.9c-0.5-2.2-2.9-2.6-4.2-4.4c0.6-0.2,1.1-0.5,1.6-0.5c2.5,0.4,5.1,0.8,7.6,1.4
		c3.6,0.8,6.7,2.7,9.5,4.9c1.9,1.5,4,1.4,6.1,1.6c4.2,0.4,8.6,0.2,12.6,1.9c3.5,1.4,7,2.9,10.4,4.5c1.5,0.7,2.7,1.8,4.2,2.5
		c2.6,1.3,5.2,2.2,8.2,2c4.4-0.3,8.7,0.9,13,2.1c2.5,0.7,5,1.4,7.3,2.4c2.7,1.2,5.3,2.6,7.9,4.1c1.7,1,2.4,1.2,4,0.1
		c2.5-1.7,5-3.2,7.5-4.8c1-0.6,1.4-1.3,0.6-2.2c-1.7-1.9-3.4-4-5.4-5.5c-2.7-2-5.6-3.7-8.5-5.3c-2.7-1.4-5.6-2.5-8.4-3.7
		c-0.1,0-0.3,0.1-0.4,0c-3.4-1.4-6.7-2.9-10.1-4.2c-1.7-0.6-3.5-0.8-5.3-1.3c-1.3-0.3-2.5-0.8-3.7-1.1c-4.8-1.2-9.5-2.4-14.3-3.6
		c-4.3-1.1-8.7-2.1-12.9-3.5c-2.5-0.9-5.2-2.1-7.2-3.8c-4.4-3.9-8.7-8.1-12-13.1c-0.6-1-1.4-1.9-2.2-2.7c-1.3-1.6-2-1.1-3.2,0.4
		c-2,2.6-3.7,5.3-5.5,8.1c-2.2,3.4-5.6,5.7-8.9,7.6c-3.3,2-7.3,2.7-10.8,4.4c-3.3,1.5-6.9,1.9-10.4,2.6c-0.5,0.1-1.1-0.4-1.7-0.7
		c0.3-0.4,0.4-0.9,0.8-1.1c3-1.3,5.9-2.7,9-3.7c3.7-1.2,6.7-3.5,10-5.4c1.5-0.8,2.8-2,4.2-2.9c2.8-1.9,4.8-4.6,6.8-7.3
		c0.4-0.5,0.4-1.4,0.5-2.1c-0.7-0.1-1.4-0.3-2.1-0.2c-4,0.7-7.9,1.6-11.8,2.3c-2,0.3-4.1,0.3-6.2,0.4c-3.6,0.1-7.2,0.2-10.8-0.1
		c-2.1-0.1-4.2-0.9-6.3-1.5c-1.1-0.3-2.1-0.6-3.2-1c-4.1-1.4-7.8-3.7-11.3-6.2c-4.4-3.1-8-7-10.7-11.7c-1.8-3-3.5-6.1-5.2-9.2
		c-0.4-0.7-0.9-1.2-2-1.1c-3.2,0.2-6.4-0.3-8.7-2.7c-1.4-1.4-2.1-3.5-2.9-5.4c-0.3-0.6,0-1.7,1.3-1.7c1.1-0.1,2.2-0.8,3.3-0.8
		c1.6,0,3.3,0.5,4.6,0.7c1.2-2,2.5-3.9,3.7-5.8c1.6-2.5,1.6-2.4,4.2-1.1c2.2,1.2,4.2,4.8,3.9,7.3c-0.1,0.6-0.7,1.2-1.1,1.7
		c-1,1.1-2,2.3-3.1,3.3c-1.3,1.2-1.7,3.5-0.7,4.9c2.8,3.8,5.4,7.8,8.4,11.4c3,3.7,6.6,6.4,10.1,9.4c1.5,1.3,3.3,2.4,5.2,3
		c2.2,0.8,4.5,1.1,6.9,1.3c3.8,0.3,7.6,0.4,11.3,0.5c3.8,0.1,7.7,0.3,11.4-0.5c3.5-0.8,7-1.5,10.5-2.3c1.9-0.4,3.8-0.8,5.6-1.1
		c1.3-0.2,1.7-1,1-2.4c-1.8-3.7-3.7-7.4-5.6-11c-3.2-5.9-7.2-11.3-12.6-15.6c-2.7-2.1-5.4-4.2-8.1-6.3c-2.6-2-5.1-4.2-7.9-6.1
		c-1.4-1-3.1-1.5-4.6-2.2c-2.3-1.1-4.6-2.3-7-3.3c-2.6-1-5.2-1.8-7.9-2.7c-3.1-1-6.2-1.3-9.4-1.6c-3.3-0.3-6.5-0.6-9.8-0.9
		c-1.4-0.1-2.6,0.4-3.6,1.5c-2.9,3.2-6.3,6.1-10.2,7.9c-3.1,1.5-6.6,2.3-10,3.4C36,85.9,35.2,86,34.4,86c-0.5,0-0.9-0.5-1.3-0.8
		c0.4-0.3,0.7-0.8,1.1-1c2.3-0.7,4.8-1.1,6.9-2.1c3.8-1.9,6.9-4.8,9.9-7.7c1.3-1.2,0.9-2.3-0.8-2.7c-3.7-0.7-7.4-1.2-11.1-1.9
		c-1.8-0.3-3.5-1-5.2-1.5c-3.7-1.1-7.2-2.9-10.4-5c-4.2-2.8-8.1-6.1-11-10.2c-2-2.7-3.3-5.8-4.3-9C7.1,41,6.9,38,7,34.8
		c0.1-4.4,1.3-8.4,3-12.2c1.4-3.2,3.5-5.8,6.1-8.2c2-1.8,3.7-4.1,5.8-5.7c1.8-1.3,3.4-3.2,6-3c3.5,0.2,7,0.5,10,2.4
		c2.2,1.4,3.5,3.7,4.5,6.1c0.2,0.5,0.7,1,1.1,1.1c3,0.9,4.9,2.5,5.1,5.9c0.1,1.7,0.7,3.4,1.2,5c0.2,0.5,0.9,1.2,1.4,1.2
		c2.9,0.3,5,1.8,6.6,4.1c1.9,2.6,3.7,5.2,5.7,7.6c0.8,1,2,1.8,3.1,2.6c1.5,1,3.1,0.9,4.7-0.1c1-0.6,2.1-1,3.2-1.3
		c0.5-0.1,1.5,0.2,1.7,0.6c0.2,0.5,0,1.5-0.4,1.9c-1.4,1.4-3.3,2-5.3,2.5c-3.6,0.9-6-1.3-8.4-3.3c-2-1.7-3.8-3.6-5.6-5.6
		c-0.8-0.9-1.1-2.4-2-3.1c-1.4-1.2-3.2-2-4.9-2.9c-0.1-0.1-0.8,0.7-1,1.1c-0.8,2.2-1.6,4.4-3.4,6.1c-1.8,1.7-4.2,1.8-6,0.8
		c-3-1.6-3.5-1.5-1.2-5.4c1.3-2.2,3.2-3.5,5.1-5c0,0,0.1-0.1,0.1-0.1c0.8-0.4,2.2-0.7,2.3-1.2c0.3-2.2,0.4-4.5-0.9-6.6
		c-0.3-0.5-0.7-0.9-1.1-1.4c-0.2,0.1-0.4,0.1-0.4,0.2c-0.1,2.6-2.4,4-3.2,6.2c-0.2,0.5-0.7,0.9-1.1,1.1c-0.6,0.3-1.2,0.5-1.8,0.8
		c-1.8,0.9-2.8,0.7-4.3-0.7c-1.6-1.5-2-3.2-1.5-4.9c0.8-2.7,2.4-4.6,4.8-6.1c1-0.6,0.7-1.6,0.1-2.3c-1.5-1.9-3.2-3.6-6-3
		c-0.5,0.1-1.2-0.4-1.7-0.3c-1.1,0.3-2.1,1.1-3.2,1.1c-2,0-2.8,1.5-4,2.6c-0.5,0.4-0.6,1.1-1.1,1.6c-1.3,1.5-2.8,2.9-4.1,4.5
		c-0.9,1.1-1.6,2.4-2.1,3.6c-1.1,2.6-2.1,5.3-3,8c-1,3-0.7,6,0.1,9.1c1.1,4.7,4,8.2,6.9,11.8c1.4,1.7,2.9,3.3,4.3,4.9
		c0.2,0.2,0.4,0.4,0.6,0.5c4,1.9,8,4,12.1,5.7c3.2,1.3,6.6,2.3,10,3.1c2.1,0.5,4.4,0.4,6.6,0.6c2.3,0.2,4.6,0.5,6.8,0.8
		c3.2,0.4,6.4,0.9,9.7,1.4c2,0.4,4,1,6,1.4c1.9,0.4,3.8,0.7,5.7,1.1c2.6,0.6,5.2,1.3,7.8,2.1c4.6,1.5,8.9,3.5,13,6.2
		c6,3.9,11.8,8.1,17,13.1c3.2,3,6.3,6,8.8,9.7c1.8,2.7,3.9,5.1,5.5,7.9c2.2,3.6,4.1,7.3,6,11c0.7,1.4,2,1.9,4.1,1.6
		c1.6-0.3,3.2-0.5,4.9-0.6c5.1-0.1,10.2-0.3,15.2,0c4.4,0.3,8.7,1,13,1.8c3.3,0.6,6.7,1.4,9.9,2.2c2.4,0.7,4.8,1.6,7.2,2.5
		c3.3,1.3,6.5,2.7,9.7,4.3c2.5,1.2,4.9,2.7,7.2,4.2c2.9,1.9,5.8,3.8,8.5,5.9c1.7,1.3,3.1,2.8,4.6,4.3c0.6,0.6,1.1,1.3,1.7,1.9
		c3.4,3,5.2,7.1,7.4,10.9c1.3,2.3,2.1,4.8,2.9,7.3c1.1,3.2,2.1,6.6,3.3,9.8c0.2,0.6,1,1.1,1.7,1.4c7.1,2.9,14.2,5.8,20.6,10.2
		c0.5,0.3,1,0.6,1.4,1c1.6,1.7,3.5,1.2,5.4,0.9c2.3-0.4,4.6-1.1,6.9-1.1c4.6,0.1,9.2,0.6,13.8,0.8c3.2,0.1,6.5,0,9.7-0.3
		c5.7-0.4,11.3-0.5,16.8,1.7c0.6,0.2,1.3,0.1,2,0.2c-0.3-0.7-0.4-1.5-0.8-2.1c-0.6-0.9-1.4-1.6-2-2.4c-0.2-0.3-0.2-0.7-0.2-1.1
		c0.4,0,0.8-0.2,1.1,0c1.7,0.8,3.5,1.3,5,2.4c3.2,2.3,6.4,4.8,9.3,7.5c2,1.8,3.8,4.1,5.1,6.4c1,1.8,2.5,2.2,4.2,2.7
		c0.7,0.2,1.5,0.4,2.2,0.6c4,1,8,2.1,12.1,3.1c0.8,0.2,1.6,0,2.5,0c0.5-1.3-0.6-1.8-1.2-2.4c-3.6-3.3-7.3-6.3-9.6-10.8
		c-1.9-3.6-3.6-7.5-6.5-10.6c-1-1.1-2.2-1-3.3-1.1c-3.8-0.5-7.7-0.7-11.6-1.4c-1.7-0.3-3.2-1.3-4.7-2.3c1.7-1.3,3.3,0.3,5.2-0.3
		c-0.3-0.6-0.4-1.4-0.9-1.9c-2-2.3-4.3-4.3-5.9-6.8c-2.5-3.7-6.1-6.2-9.3-9c-2.5-2.2-5.4-3.8-8.1-5.7c-1.3-0.9-2.5-1.9-3.8-3
		c0.8-1.2,1.8-0.9,2.6-0.7c2.8,0.7,5.6,1.4,8.3,2.4c1.7,0.6,3.3,1.8,5,2.4c3.8,1.4,7.6,2.7,11.4,4c2.9,1,5,3,6.8,5.4
		c0.7,1,1.8,1.8,2.7,2.6c0.2-0.1,0.4-0.1,0.6-0.2c0.2-2,0.5-4.1,0.7-6.4c0.4,0.3,1,0.5,1.2,0.8c1.9,3.9,4.7,7.7,4.7,12.2
		c0,3.7,2.1,6.1,3.8,9c2.3,4,4.5,8.1,7,12c0.8,1.3,2.2,2.4,3.5,3.4c2.6,1.9,5.2,3.8,7.9,5.5c1.6,1,3.4,1.6,5.1,2.4
		c2.7,1.2,5.5,1.6,8.4,1.7c1.3,0.1,2.6,0,3.9-0.2c0.3,0,0.8-0.5,0.9-0.9c0.1-0.4-0.2-1-0.5-1.2c-3.7-2.4-6.2-6-8.9-9.4
		c-3.3-4.2-6-8.7-8-13.7c-1.2-2.8-2.2-5.8-3.1-8.7c-1-3.3-1.5-6.7-2.5-10c-0.7-2.4-1.8-4.7-3-6.9c-1.3-2.4-2.9-4.6-4.4-6.9
		c-0.6-0.9-1-2-1.9-2.6c-0.9-0.6-2.3-1.1-3.4-1c-4.8,0.4-9-1.7-13.3-3c-1.4-0.4-2.6-1.5-3.9-2.2c-1.5-0.8-3-1.6-4.6-2.3
		c-0.9-0.4-1.9-0.6-2.8-1.1c-0.3-0.2-0.6-0.8-0.6-1.3c0-0.2,0.6-0.5,0.9-0.7c0.3-0.1,0.6-0.2,0.9-0.3c0.5-0.2,1.5-0.5,1.5-0.7
		c-0.1-0.7-0.3-1.4-0.8-1.9c-2.5-3-5-6-7.6-8.8c-3.8-4-7.8-7.9-12.5-10.9c-3-1.9-6.3-3.4-9.5-5.1c-0.5-0.3-1-0.5-1.6-0.9
		c-0.2,0.3-0.6,0.6-0.6,0.9c0.1,1.7-1.2,2.3-2.3,2.7c-3.1,1.1-5.1,3.4-7.1,5.8c-1.1,1.4-1.8,3.1-2.8,4.5c-0.7,0.9-1.7,1.7-2.7,2.4
		c-2,1.3-3.9,2.8-6.1,3.8c-2.7,1.3-5.5,2.4-8.3,3.2c-2.6,0.7-4.5,2-6.3,3.8c-0.3,0.3-0.9,0.4-1.4,0.7c-0.6,0.4-1,0.9-1.6,1.3
		c-0.4,0.3-1,0.6-1.3,0.5c-1.9-0.7-3.7-1.6-5.6-2.2c-0.9-0.3-2-0.4-3-0.5c-2.2-0.1-4.1-0.6-5.8-2c-0.6-0.5-1.7-0.5-2.5-0.5
		c-1.2,0-1.6-0.6-1.8-1.6c-0.1-0.6-0.3-1.3-0.7-1.7c-0.7-0.9-1-2-1.6-3c-2-3.8-0.8-7.7-1.1-11.6c-0.2-2.1,0.2-4.2-0.1-6.2
		c-0.3-1.9-0.9-3.8-1.6-5.6c-0.2-0.5-1.1-0.7-1.8-0.9c-0.8-0.2-1.4-0.5-1.2-1.4c0.4-2.1,0.8-4.1,1.3-6.2c0.6-2.6,2.2-4.8,1.9-7.8
		c-0.2-2.5,0.6-5,1-7.5c0.1-0.9-0.2-1.9,0.1-2.6c1.3-3,2.7-5.8,4.1-8.7c0.3-0.6,1.1-0.9,1.6-1.4c1.8-1.8,3.5-3.7,5.3-5.6
		c1.3-1.4,2.7-2.4,4.8-2.7c2.1-0.3,3.7-1.5,4.9-3.5c1.1-1.8,3.1-3.2,4.7-4.7c0.4-0.4,1-0.7,1.4-1.2c1.8-2,3.4-4.1,5.3-6.1
		c2-2.2,4.1-4.3,6.2-6.3c1.3-1.2,2.8-2.1,4.3-3c3.2-1.7,6.5-3.4,9.8-4.9c2.3-1.1,5-1.5,7.2-2.7c2.2-1.2,4.4-1.2,6.7-1.2
		c1.2,0,2.3,0.4,3.5,0.4c0.8,0,1.7,0,2.5-0.3c1.1-0.3,3.9,0.1,4.5,1.1c0.3,0.5,0.2,1.3,0.4,2.2c0.6,0.1,1.5,0.2,2.4,0.2
		c4-0.1,8,0,11.7,1.7c2.6,1.2,5.4,1.9,8,3c1.4,0.7,2.6,1.9,3.1,3.5c0.2,0.7,0.4,1.5,0.7,2.1c0.3,0.5,0.7,1,1.2,1.3
		c1.2,0.7,2.1,3.3,1.7,5c-0.7,3.5-2.9,6.2-5.1,8.9c-1.9,2.2-4,4.6-3.9,7.5c0,3.7-2.1,6.2-3.9,8.9c-1.8,2.7-4,5.3-7,6.9
		c-2.7,1.5-5.3,3.1-7.8,4.9c-1.6,1.1-2.3,0.2-3.2-0.7c-4-4-8.5-6.3-14.4-5.7c-2.2,0.2-4.4,0-6.6,0c0,0.2-0.1,0.4-0.1,0.6
		c0.6,0.2,1.3,0.5,1.9,0.5c1.3,0,2.7-0.4,4-0.2c1.9,0.3,3.9,0.8,5.6,1.6c2.6,1.3,4.9,2.9,7.4,4.4c2.1,1.3,2,1.4,0.2,3.3
		c-1.4,1.5-2.6,3.4-3.6,5.2c-1.4,2.6-2.5,5.4-3.8,8.1c-0.2,0.5-0.3,1-0.4,1.5c-0.4,1.9-0.7,3.9-1.1,6.3c1.5-1.8,2.9-3.2,3.9-4.8
		c1.1-1.8,1.7-3.8,2.6-5.6c1.6-3.1,3.3-6.2,5.1-9.3c0.4-0.6,1.1-1,1.9-1.8c0.3,1.2,0.7,2,0.8,2.9c0.6,3.9,2.9,6.8,5,9.9
		c2.5,3.6,5.1,7.1,7.8,10.6c0.8,1,1.7,1.9,2.6,2.8c2.1,2,4.1,4.1,6.3,6c3.4,3,6.8,5.8,10.2,8.7c0.4,0.3,1,0.4,1.5,0.6
		c0.2-0.5,0.4-1,0.5-1.5c0.1-0.3,0-0.6,0-0.9c0.1-0.3,0.3-0.8,0.5-0.8c0.2-0.1,0.7,0.1,0.9,0.3c1.8,1.9,3.6,3.7,5.1,5.8
		c1.6,2.2,2.4,4.7,2.4,7.4c0.1,4.7,1.7,8.7,4.8,12.2c2.6,2.8,3.9,6.4,5.2,9.9c0.7,1.8,1.5,3.5,2.2,5.3c2.2,6.4,4.2,12.9,6.6,19.2
		c1.3,3.3,3.4,6.2,5.1,9.4c1.7,3,4.1,5.4,6.8,7.4c0.4,0.3,1,0.5,1.4,0.7c0.2-0.1,0.3-0.3,0.5-0.4c-1-2.3-2-4.6-2.9-6.9
		c-1.6-4.2-3.1-8.5-4.4-12.7c-0.4-1.3-0.4-2.8-0.6-4.2c3.3,0.2,4.4,1.4,4.9,4.7c0.4,2.3,1.4,4.5,2.3,6.7c1.5,3.5,3.2,6.9,4.9,10.2
		c0.8,1.6,2.1,2.9,3.1,4.4c1.5,2.2,1.8,2.2,4.4,1.5c5.3-1.4,10.6-2.7,15.9-4.1c3.2-0.8,6.3-1.8,9.5-2.7c1.4-0.4,2.8-0.5,4.2-0.7
		c1.2-0.2,1.8-0.7,2.5-1.8c1.4-2.4,3.2-4.6,4.9-6.9c1.4-1.9,3.2-3.4,5.7-3.8c2.3-0.4,4.6-1.3,6.9,0.2c1.2,0.7,2.8,0.6,4,1.4
		c2.7,1.8,5.4,3.6,7.6,5.8c1.8,1.8,3.7,2.3,6,2.4c3.7,0.1,7.5,0,11.2,0.4c4.2,0.4,8.5,1.2,12.7,1.8c1.9,0.3,3.7,0.4,5.6,0.7
		c2.3,0.4,4.6,0.9,6.8,1.4c2.7,0.6,5.3,1.1,7.9,1.8c3.8,1,7.5,2.2,11.2,3.3c2.4,0.7,4.9,1.4,7.3,2.2c2,0.7,4,1.6,5.9,2.7
		c1,0.5,1.6,0.6,2.6,0c3.2-2.2,6.6-4.2,9.7-6.5c3.4-2.4,6.7-4.9,8.6-8.9c1.1-2.3,2.7-4.3,3.7-6.6c1.1-2.6,1.9-5.3,2.5-8.1
		c0.6-2.6,1.1-5.2,1.2-7.9c0.1-2.1-0.2-4.2-0.6-6.2c-0.6-2.9-1.2-5.8-2.2-8.6c-1.6-4.8-3.8-9.3-7.4-12.9c-0.6-0.6-1-1.4-1.5-2.1
		c-1.4-2-3.4-3.3-5.4-4.7c-0.8-0.5-1.4-1.3-2.4-2.2c-1.2,2.8-1.9,5.3-3.2,7.5c-1.1,2-2.7,3.7-4.3,5.3c-1,1-2.1,1.7-3.8,1.7
		c-1.7,0-2.7-1-3.3-2.2c-0.8-1.8-1.5-3.8-1.9-5.7c-0.9-4,0.3-7.5,4.1-9.3c0.2-0.1,0.4-0.3,0.6-0.5c1.5-1.6,3.4-2.5,5.5-2.5
		c0.9,0,1.8,0.1,2.6,0.3c1.4,0.5,1.4-0.5,1-1.2c-1.4-2.9-2.9-5.8-4.5-8.6c-1.7-3.1-4.5-5.1-6.9-7.5c-0.7-0.7-1.8-1.1-2.8-1.5
		c-1.2-0.6-2.4-1-3.6-1.5c-0.8-0.3-1.5-0.4-1.7,0.6c-0.3,1.2-0.6,2.4-0.6,3.6c0.1,1.2,0.7,2.4,0.9,3.6c0.1,0.4-0.3,0.9-0.5,1.4
		c-0.5-0.4-1-0.6-1.3-1.1c-0.3-0.4-0.4-0.9-0.5-1.4c-0.3-2.5-0.7-5.1,0.7-7.2c1.4-2.1,3-1.9,5.4-0.8c2.3,1.1,4.5,2.4,6.5,3.9
		c1.6,1.2,3,2.7,4.3,4.3c1.5,1.8,3,3.6,4.1,5.7c1.3,2.4,2.2,5,3.4,7.5c0.3,0.7,0.7,1.6,1.4,2c3.4,2.4,6.8,4.7,9.3,8.1
		c1.5,2,3.2,3.7,4.4,5.8c1.9,3,3.7,6.1,5,9.5c1.3,3.5,2.1,7.3,2.9,10.9c0.9,3.9,0.8,7.7,0,11.6c-0.4,2.3-0.8,4.7-1.3,7
		c-0.7,3.5-2.1,6.8-3.5,10.1c-1.4,3.3-4.1,5.5-6.1,8.2c-2.3,3.2-5.7,5.1-8.7,7.4c-1,0.7-2.3,1.1-3.4,1.6c-1.5,0.8-1.8,2-0.5,3
		c1.8,1.4,3.8,2.6,5.7,3.8c0.4,0.2,1,0.3,1.5,0.2c2.3-0.4,4.6-0.7,6.9-1.2c4-1.1,8-2.2,11.6-4.4c0.8-0.5,1.3-1.8,1.4-2.7
		c0.4-4.7,1.1-9.3,3.7-13.3c2-3.1,4.1-6,8-7.4c4-1.5,7.8-1.8,12-1.5c3.8,0.3,7.6,0.8,11.3,1.9c1.5,0.4,3.8-1.2,4.5-2.9
		c1.9-4.5,3.9-8.9,5.6-13.4c1.1-2.9,1.1-6,0.8-9.1c-0.1-1.1-0.1-2.3-0.2-3.4c-0.4-2.3-0.8-4.7-1.3-7c-0.1-0.4-0.9-0.9-1.3-0.9
		c-2.7,0.2-5.4,0.7-8.1,0.7c-3.2,0.1-6.4,0.1-9.6-0.3c-3-0.4-6-1.2-8.8-2.1c-1.9-0.6-3.7-1.7-5.5-2.6c-3.5-1.8-6.7-4-9.6-6.6
		c-2-1.8-3.5-4.3-5-6.6c-1.7-2.5-2.9-5.4-4.8-7.8c-2.4-3-5.1-5.8-7.8-8.6c-0.6-0.7-1.6-1.2-2.1-1.9c-0.3-0.4,0-1.2,0.2-1.7
		c0-0.2,0.4-0.4,0.6-0.5c3-1.2,6-2.3,9-3.6c1.3-0.6,2.5-1.5,3.7-2.4c4.4-3.2,8.9-6.2,14-8.3c0.7-0.3,1.4-0.6,2.1-0.7
		c1.9-0.5,2.3-1.5,0.9-2.8c-2.5-2.2-4.6-4.8-6.1-7.7c-2.3-4.4-3.8-9.1-5.1-13.9c-1.3-4.8-2-9.6-2.5-14.5c-0.6-5.1-1.8-10.1-2.7-15.1
		c-0.6-3.4-1.1-6.7-1.6-10.1c-0.1-0.5,0.2-1,0.5-1.8c1.2,0.6,2.3,1.1,3.4,1.6c3.2,1.2,6.2,2.8,9.8,3.2c3.7,0.4,7.5,0.8,11.1,2.3
		c3.3,1.4,7,2.1,10.4,3.3c2.6,0.9,5.1,2.2,7.4,3.9c2,1.5,3.1,3.5,4.4,5.5c0.9,1.4,2,1.6,2.8,0.2c2.2-3.7,6-5.4,9.2-7.8
		c3.2-2.4,6.2-5,8.4-8.4c0.8-1.2,1.8-2.3,2.6-3.6c0.7-1.3,1.4-0.8,1.9,0c1.4,1.9,2.6,4,4.1,5.9c2.6,3.5,5.4,6.8,8.1,10.3
		c2.4,3.1,4.6,6.2,6.9,9.3c2.8,3.9,4.1,8.4,5.7,12.8c1,2.8,1.5,5.7,2.2,8.5c1,3.7,0.6,7.3,0.8,10.9c0.1,1.7,0.6,2.3,2.3,2.3
		c6.2-0.2,12.3-0.4,18.5-0.6c1.3,0,2.6-0.1,3.8-0.1c1.3,0,2.2-0.3,1.9-1.8c-0.6-3.3-1.3-6.7-2.1-10c-1.6-6.5-3.4-13-5.1-19.5
		c-0.9-3.5-1.8-7.1-2.8-10.6c-0.9-2.9-2.1-5.8-3.1-8.6c-0.2-0.5-0.3-1.2-0.2-1.6c0.3-1,1-1.1,1.9-0.6c2.8,1.5,5.4,3.2,8.3,4.2
		c2.5,0.9,5.3,1.2,7.9,1.6c2.9,0.5,5.8,0.9,8.8,1.4c1.6,0.2,3.2,0.3,4.7,0.5c2.8,0.5,5.6,1,8.3,1.7c2.1,0.5,4.2,1.3,6.3,2.1
		c1.5,0.6,3,1.4,4.5,2.1c1.7,0.8,3.4,1.5,5.1,2.2c3.8,1.6,7.1,3.9,9.6,7.2c2.2,3,4.3,6.1,6.4,9.3c0.7,1,1.4,1.1,1.9,0.1
		c0.8-1.5,1.4-3.2,2.2-4.8c1.2-2.4,2.6-4.7,3.6-7.2c1.1-2.9,1.9-5.9,2.6-8.9c0.8-3.2,1.4-6.4,2-9.7c0.1-0.6,0.1-1.3,0.2-2
		c0.1-0.4,0.3-1,0.6-1.1c0.4,0,0.9,0.3,1.3,0.5c0.1,0.1,0.2,0.3,0.3,0.5c0.6,2.2,2.8,2.8,4.2,4.1c1.3,1.2,3.1,1.8,4.6,2.9
		c3.7,2.6,7.5,5.3,11.1,8c2.9,2.2,5.9,4.4,8.4,7c2.5,2.6,4.7,5.4,6.4,8.7c2.1,4.1,3.4,8.3,4.3,12.8c0.8,4,0.8,8,0,11.9
		c-0.3,1.5-0.4,3-0.9,4.5c-1,3.4-3,6.3-5.2,9c-2.6,3.1-5.2,6-7.8,9.1c-1.6,1.8-3.1,3.7-4.6,5.6c-1.3,1.7-2.8,2.5-4.8,1.9
		c-1.8-0.6-3.6-1.4-5.2-2.3c-1.4-0.8-1.6-1.9-0.2-3.7c1.8-2.3,1.8-5,2-7.7c0.1-1.3,0.7-1.7,1.6-1.8c4.1-0.2,7-2.5,9.5-5.4
		c2.6-3.1,3.8-6.9,4.8-10.7c0-0.2,0-0.4-0.2-0.7c-1.6,3.3-3.3,6.6-6.3,8.7c-2.9,2.1-6,3.9-9.3,6c-0.2-0.7-0.4-1.1-0.4-1.4
		c-0.1-2.9-0.2-5.8-0.3-8.7c-0.1-1.5-0.3-3-0.6-4.5c-0.2-1.2,0-2,1.2-2.6c4.1-2.5,6.3-6.3,6.9-11c0.4-3.2,0.4-6.3-1-9.3
		c-0.7-1.5-1.6-2.9-2.4-4.4c-0.2,0.1-0.5,0.1-0.7,0.2c-0.1,0.7-0.4,1.5-0.1,2c1.3,2.5,0.6,5.1,0.9,7.7c0.4,2.6-0.5,5.1-1.4,7.4
		c-0.5,1.4-1.6,2.6-2.6,3.7c-0.7,0.8-1.7,0.4-1.9-0.8c-0.5-2.4-0.8-4.9-1.3-7.3c-0.3-1.8-0.8-3.6-1.3-5.3c-0.7-2.5-1.4-4.9-2.2-7.4
		c-0.2-0.8-0.5-1.7-2-1.2c0.3,2,0.7,4.1,1.1,6.2c0.6,3.7,1.2,7.4,1.9,11.1c0.3,1.4,0.7,2.9,0.9,4.3c0.1,0.5-0.1,1.1-0.3,1.9
		c-5.5-4.3-8.7-9.5-9.7-16c-0.2,0-0.4,0-0.6,0c-0.4,0.8-1.1,1.7-1.1,2.5c-0.1,3.1,0.5,6.1,2,9c1.8,3.5,4.9,5.6,8,7.1
		c2.2,1.1,2.6,2.1,2.7,4.1c0.1,2.4,0.7,4.7,0.9,7c0.2,2.1,0,4.3,0,6.4c0,0.5-0.2,0.9-0.3,1.6c-5.2-3.7-8.5-8.4-10.5-14
		c-0.2-0.1-0.3-0.1-0.5-0.2c0,0.2-0.1,0.4-0.1,0.6c-0.1,0.2-0.2,0.3-0.5,0.6c-0.1-0.7-0.2-1.3-0.3-1.9c-0.1,0-0.2,0-0.4,0
		c-0.1,0.7-0.3,1.4-0.1,2c1.2,3.5,2.5,7,5,9.9c0.8,0.9,1.8,1.7,2.8,2.4c1.1,0.9,2.5,1.5,3.5,2.5c0.5,0.5,0.9,1.6,0.8,2.3
		c-0.5,2.2-0.9,4.5-3.4,5.7c-2,1-3.6,1.7-6.1,0.6c-4.1-1.8-7.8-4.2-11.8-6.2c-0.7-0.4-1.6-0.9-0.9-1.9c1.6-2.2,1.5-4.8,2-7.3
		c0.6-3.3-0.2-6.4-0.7-9.6c-0.1-0.6-0.6-1.2-0.9-1.8c-1.6,0.6-1.3,1.8-1.1,2.7c0.7,4.2,0.1,8.3-0.9,12.4c-0.3,1.1-0.5,2.2-0.8,3.7
		c-2.3-1.5-4.3-2.8-6.3-4.2c-2.2-1.6-4.3-3.2-6.5-4.8c-1.1-0.9-1.1-1.8-0.7-3.2c1-3.2,2.1-6.5,2.5-9.8c0.3-2.3-0.4-4.8-0.9-7.1
		c-0.5-2.7-2-4.9-3.9-6.9c-0.3-0.3-0.9-0.4-1.3-0.6c-0.1,0.5-0.4,1.1-0.3,1.5c0.3,1.2,1,2.3,1.2,3.6c0.7,3.7,1.3,7.5,1.9,11.3
		c0.2,1.3,0.3,2.7,0.1,3.9c-0.2,1.2-0.8,2.4-1.4,3.6c-0.1,0.2-1.2,0.2-1.5-0.1c-2.4-2.3-4.7-4.6-7-6.9c-1.6-1.6-3.3-3.2-5-4.7
		c-1-0.8-1.1-1.7-0.6-2.6c2.8-5.2,2.3-10.4,0.9-15.9c-0.9-3.6-3.6-6.1-5.4-9.1c-0.2-0.4-1-0.4-1.5-0.5c0.1,0.6,0,1.2,0.3,1.6
		c2,4,4.4,7.9,4.4,12.5c0,3-0.2,6-0.3,9c0,0.5-0.4,1-0.7,1.9c-1.5-1.6-2.8-2.8-4-4.3c-3-3.8-6.2-7.5-8.9-11.5
		c-2.2-3.2-4.5-6.3-7.1-9.2c-2.7-3.2-5.1-6.7-7.6-10c-0.2-0.3-0.7-0.4-1-0.5c-0.2,0.1-0.3,0.3-0.5,0.4c0.7,1.4,1.4,2.9,2.2,4.3
		c0.6,1,1.5,1.8,2.1,2.9c0.7,1.2,1.2,2.6,1.9,3.8c0.8,1.4,1.8,2.7,2.7,4.1c2.1,3,4.1,6.1,6.4,9c2.9,3.7,6.1,7.1,9.2,10.7
		c2.1,2.4,4.2,4.7,6.3,7.1c-0.1,0.1-0.2,0.4-0.3,0.4c-2.9,0.2-5.9,1.2-8.6-0.9c-1.6-1.2-3.3-2.1-5-3.1c-0.2-0.1-0.5,0-0.8,0
		c0,0.3-0.1,0.7,0.1,0.8c1.5,1.1,2.9,2.6,4.6,3.2c2.9,1.1,6,1.6,9,2.3c0.8,0.2,1.6,0.3,2.4,0.2c1.2-0.1,2,0.5,2.8,1.2
		c2.3,2.2,4.7,4.3,7.1,6.5c0.4,0.4,0.5,0.9,0.8,1.4c-0.5,0.3-1,0.8-1.6,0.8c-2.8,0.2-5.7,0-8.5,0.4c-3.5,0.4-6.6-0.7-9.7-1.6
		c-0.9-0.3-1.7-0.9-2.6-1.2c-0.3-0.1-0.8,0-1.2,0.1c0.1,0.4,0,1,0.2,1.3c2.4,2.9,5.4,4.7,9.2,5.1c1.6,0.2,3.2,0.4,4.8,0.4
		c4-0.1,7.9-0.9,11.7-2.5c0.4-0.2,1.1,0,1.4,0.3c3.5,3.5,7.7,5.9,11.9,8.2c1.8,1,3.4,2.2,5,3.4c0.8,0.6,1,1.3-0.3,1.5
		c-2.7,0.5-5.5,1-8.2,1.5c-4.7,0.9-9.4,0.2-14-1c-1.3-0.4-2.7-0.7-4.1-1c-0.1,0.1-0.2,0.2-0.3,0.3c0.7,0.8,1.3,1.8,2.3,2.2
		c2,0.9,4.1,1.8,6.2,2.2c4.8,1.1,9.6,1,14.4-0.1c2.7-0.6,5.6-0.9,7.9-2.8c0.2-0.1,0.5-0.2,0.7-0.1c1.7,0.9,3.4,1.7,4.9,2.7
		c3,1.9,4.7,6.1,3.9,9.5c-0.7,2.9-2.6,5.1-4.5,7.3c-1,1.2-2.3,0.9-3.3-0.1c-1.9-2-4.4-2.8-6.9-3.6c-1.4-0.4-2.7-1.3-4.2-1.1
		c-2.4,0.3-4.8,0.5-6.7,2.9c1,0.2,1.9,0.7,2.5,0.4c2.3-1.1,4.4,0.3,6.6,0.5c3,0.3,5.4,2.3,8,3.7c0.2,0.1,0.3,0.3,0.7,0.7
		c-1.5,1-2.9,1.9-4.3,2.8c-3,1.8-6,3.6-9,5.4c-0.3,0.2-0.9,0.4-1.1,0.2c-1.6-0.9-3.1-2-4.7-3c-0.3-0.2-0.5-0.6-0.7-0.6
		c-1.8,0.2-3.1-1.3-4.8-1.4c-0.6-0.1-1.3,0-1.9,0c-0.8,0-1.5,0-2.2,0c-0.4,0.4-1.1,0.9-2,1.7c1.5,0.3,2.7,0.7,4,0.9
		c2.7,0.5,5.4,1,8.1,1.6c0.7,0.2,1.2,0.9,1.7,1.4c-0.5,0.4-1,1-1.6,1.2c-3.3,1.3-6.6,2.6-9.9,3.7c-2.2,0.8-4.6,1.1-6.8,2.1
		c-2,0.9-3.9,2.3-5.9,3.6c1.4,1.5,2.6,0.7,3.7,0.3c0.9-0.3,1.8-0.7,2.7-1c5.3-1.5,10.7-2.8,15.8-4.6c3.8-1.4,7.4-3.4,11.2-5.2
		c0.4-0.2,0.8-0.5,1.2-0.6c0.3,0,0.8,0.5,0.8,0.6c-0.4,1.7-0.8,3.3-1.4,4.9c-0.7,1.8-1.6,3.5-2.5,5.1c-0.7,1.1-1.6,2.1-2.4,3.1
		c-1,1.3-2,2.5-2.9,3.8c0.1,0.2,0.3,0.4,0.4,0.5c1.1-0.5,2.2-1,3.3-1.6c3.9-2.5,6.2-6.2,7.5-10.5c0.7-2.3,0.8-4.8,1.3-7.2
		c0.1-0.7,0.8-1.4,1.4-1.7c3-1.7,5.7-3.6,8-6.2c0.3-0.4,1-0.4,1.4-0.7c0.1,0.5,0.3,0.9,0.4,1.4c0.1,2.3,0.4,4.6,0.3,6.9
		c-0.2,3.1-0.8,6.2-1.3,9.2c-0.3,1.8-1,3.5-1.6,5.4c3-0.8,4.2-3,4.7-5.3c0.6-2.6,1-5.3,0.9-8c-0.1-3-0.4-6.1-1.3-8.9
		c-0.9-2.8-0.2-5.3,0.6-7.8c0.7-2.1,2.1-4,3.3-6c0.5-0.8,1.3-0.9,2.3-0.7c3.1,0.5,4.9,2.7,6.3,4.9c1.9,3.1,3.5,6.5,4.7,10
		c0.8,2.5,0.9,5.3,0.9,7.9c0,3.2-0.4,6.4-0.7,9.6c-0.1,1.4-0.4,2.9-0.8,4.2c-0.4,1-1.1,2-1.8,2.8c-1.4,1.6-2.7,3.3-4.3,4.5
		c-2.4,1.9-5,3.5-7.5,5.2c-0.5,0.3-0.9,0.6-1.4,1c-2.1,2-4.8,3-7.5,3.5c-2.3,0.4-4.8,0.1-7.1-0.2c-3.9-0.6-7.9-1.5-11.8-2.4
		c-2.2-0.5-4.2-1.3-6.4-1.9c-1.1-0.3-2.2-0.4-3.4,0.3c-1.9,1.2-4.1,2-6.1,2.9c-1,0.5-2,0.9-3.1,1.2c-3.1,0.8-6.3,1.5-9.4,2.2
		c-2.9,0.6-5.8,1.1-8.6,1.9c-1.8,0.5-3.5,1.2-5.2,2c-4.4,2-9.1,2.7-13.9,2.3c-0.9-0.1-1.9,0-2.8,0c-0.1,0.2-0.1,0.4-0.2,0.6
		c1.1,0.7,2.1,1.4,3.2,2.1c0.3,0.2,0.7,0.2,1,0.4c0.4,0.4,0.7,0.9,1.1,1.4c-0.6,0.2-1.2,0.7-1.7,0.7c-3.2-0.3-6.3-1-9.2-2.2
		c-3.7-1.6-7.5-2.9-10.6-5.5c-1.1-0.9-2.2-1.7-3.2-2.6c-1-1.1-2.2-1.4-3.5-1.4c-3.5,0-7-0.1-10.5,0c-2.3,0.1-4.6,0.4-6.9,0.6
		c-0.3,0-0.6,0.4-1,0.6c0.3,0.4,0.4,1,0.8,1.2c1.4,0.8,2.8,1.6,4.3,2.2c3.1,1,5.5,2.9,7.8,5.1c3.1,3,6.3,6,9.5,8.9
		c1.5,1.3,3.4,0.8,5,0.6c3.5-0.5,7-1.6,10.5-1.9c1.8-0.2,3.9-0.2,5.6,1.4c-0.5,0.1-0.9,0.3-1.4,0.4c-0.8,0.1-1.6,0-2.3,0.2
		c-0.5,0.1-1.2,0.6-1.2,0.9c0.1,0.5,0.5,1.1,0.9,1.4c3,2,6,4.1,9.2,5.9c2.9,1.7,6,3.1,9.2,4.4c4.5,1.8,9.1,3.4,13.6,5
		c0.4,0.2,0.8,0.4,1.6,0.8c-1.1,0.4-1.7,0.9-2.5,1c-4.2,0.5-8.4,0.1-12.6-0.7c-2.1-0.4-4.3-0.3-6.5-0.5c-3.2-0.2-6.4-0.2-9.5-0.7
		c-1.7-0.3-3.3-1.3-4.8-2.1c-1.4-0.7-2.6-1.7-4.2-2.7c-0.8,2.3,0.5,4.3,0.5,6.7c-0.7-0.4-1.4-0.5-1.7-0.9c-1.6-1.7-3.3-3.4-4.7-5.3
		c-1.2-1.6-2.5-3.3-3.1-5.2c-0.8-2.4-2.4-3.9-4.2-5.5c-2.4-2.2-4.6-4.5-7-6.6c-1.8-1.6-3.5-3.4-5.5-4.7c-1.5-1-3.3-1.7-5.1-2.3
		c-3.5-1.1-6.9-2.2-10.5-3.1c-3.4-0.8-6.8-0.7-10.2,0.2c-1.5,0.4-2.9,0.7-4.4,1.1c-0.6,0.2-1.1,0.6-1.6,1c0.5,0.5,1,1.1,1.6,1.4
		c2.1,1.1,4.5,1.9,6.4,3.3c5.6,3.9,11.2,7.7,15.2,13.4c2.9,4.2,6,8.2,8.9,12.4c1.7,2.5,2.9,5.2,4.6,7.7c0.9,1.3,2.2,2.2,3.3,3.3
		c1.5,1.4,3.1,2.7,4.6,4c1.1,0.9,2.2,1.9,3.4,2.7c1.1,0.7,2.2,0.5,3.5,0.2c2.1-0.5,4.3-0.8,6.5-1c5.2-0.5,10.1,0.9,15.1,2.1
		c1.2,0.3,2.5,0.2,3.7,0.3c0.7,0.1,1.3,0.4,2.4,0.7c-1.1,0.8-1.7,1.4-2.5,1.8c-1.2,0.7-1.2,1.5,0,2.2c2.8,1.8,5.6,3.5,8.4,5.2
		c2.8,1.8,5.4,3.8,8.3,5.3c4.3,2.2,8.8,3.8,13.6,4.7c1.4,0.3,2.8,0.6,4.1,0.9c1.2,0.2,3.1-1.3,3.5-2.6c0.6-1.7,1.3-3.3,2.2-4.9
		c0.2-0.4,0.9-0.6,1.4-0.8c0.4-0.2,1-0.4,1.3-0.7c1.1-1.5,2-3,3-4.5c0.1-0.2,0.2-0.6,0.4-0.7c2.3-1,1.4-3.7,2.8-5.2
		c0.3-0.3,0-1.3-0.2-1.9c-0.7-2.1,2-5.2,4.3-4c0.9,0.4,1.5,0.1,2.2-0.3c2.8-1.6,5.5-3.2,8.3-4.8c1.3-0.7,2.5-1.6,2.3-3.3
		c-0.1-1.4,0.5-2.5,1.6-3.1c0.6-0.3,1.7-0.2,2.3,0.2c1.6,1.1,3.2,0.8,4.8,0.3c2.4-0.7,4.9-1.5,7.4-1.6c1.9-0.1,4,0.7,5.9,1.3
		c0.7,0.2,1.1,0.5,1.7-0.1c0.4-0.4,0.8-0.8,1.3-1c0.4-0.1,1.2,0,1.3,0.2c1,2.3,1.8,4.7,2.9,7c1.4,2.7,0.2,5.7,1.2,8.5
		c0.2,0.5,0.2,1.2,0.5,1.4c1.2,0.8,1.3,2.1,1.6,3.3c0.5,1.8,1.5,3.2,2.5,4.8c1.1,1.7,1.8,3.5,2.6,5.3c1.5,3.5,2,7.2,3,10.8
		c0.2,0.9-0.1,2-0.4,2.9c-0.4,1.3-1.1,2.5-1.4,3.9c-0.3,1.1-0.1,2.1,1.5,2.2c0.5,0,0.9,0.5,1.4,0.8c-0.5,0.6-1.1,1.3-1.6,1.9
		c0,0.1-0.2,0-0.3,0c-2.3-1.2-3.2,0.7-4.5,2c-3.2,3.1-6.8,5.6-11.1,7.2c-1,0.4-2.2,0.5-3.2,1c4.1,1.2,12.8-3.4,17.2-8.5
		c0.1,0.8,0.3,1.4,0.3,2c-0.3,2.4-0.4,4.9-1,7.3c-0.4,1.7-1.3,3.4-2.5,4.6c-2.5,2.5-5.4,4.6-7.9,6.6c-2.5-1.6-4.8-3.1-7.1-4.5
		c-2.2-1.4-4.4-2.8-6.3-4c-2.4,1.9-4.5,3.6-6.7,5.3c-0.4,0.3-0.9,0.7-1.3,1c-2,1.6-4.3,1.3-5.9-0.7c-1.3-1.7-3.1-3.1-3.6-5.3
		c-0.1-0.2-0.6-0.5-0.8-0.4c-0.4,0.2-0.9,0.5-1.1,0.9c-0.7,1.5-1.1,3.3-2.1,4.5c-1.9,2.3-4,4.6-6.3,6.5c-3.1,2.7-6.8,4.3-10.7,5.7
		c-2.2,0.8-4.3,1.9-6.5,2.7c-1,0.4-2.2,0.5-3.2,0.9c-3,1.2-6,2.4-8.9,3.6c-0.8,0.3-1.7,0.7-2.4,1.2c-0.4,0.3-0.7,1-0.6,1.4
		c0.1,0.3,0.8,0.7,1.3,0.7c4.7-0.1,9.4-0.9,14-2c1.8-0.5,3.8-0.3,5.6-0.8c3.6-1,7.2-2.3,10.7-3.6c4.9-1.8,8.6-5.5,12.8-8.5
		c2.2-1.5,4.1-3.4,6.1-5.1C757.1,300.9,757.3,301,757.5,301.1z M324.2,311.6c0.1,2.8,0.1,5.2-1.5,7.4c-0.3,0.3-0.3,0.9-0.4,1.3
		c-0.8,4.9-1.5,9.9-2.5,14.7c-0.9,4.5-0.9,9.2-2.7,13.5c-0.3,0.7-0.4,1.6-0.3,2.4c0,0.5,0.5,1,0.9,1.2c0.2,0.1,0.9-0.3,1.1-0.6
		c0.4-0.6,0.6-1.3,0.8-2c0.4-1.8,0.7-3.7,1.2-5.5c0.5-2,1.1-3.9,1.6-5.9c0.4-1.7,0.7-3.4,1.2-5.1c1.9-6,3.8-11.9,4.7-18.2
		c0.8-5.1,3.3-9.6,6-13.9c1.8-2.7,4.2-5.1,6.7-7.3c2.3-2.1,5.1-3.7,7.9-5.7c0.2,1,0.5,1.5,0.5,2c-0.2,2,0.3,3.8,1.3,5.6
		c0.3,0.6,0.5,1.2,0.6,1.9c0.9,4.4,1.6,8.8,2.6,13.1c0.3,1.3,0,2.2-0.6,3.1c-2.1,3-3.2,6.3-4.1,9.8c-0.5,1.8-1,3.6-1.2,5.5
		c-0.2,1.7-0.6,3.6,0.6,5.2c0.4,0.5,1,0.7,1.6,0.9c0.2,0.1,0.7-0.3,0.8-0.5c0.2-0.7,0.3-1.4,0.3-2.1c0.1-2.7,0.1-5.4,0.4-8
		c0.4-3,1.9-5.6,3.6-8.1c0.3,0.3,0.5,0.4,0.6,0.5c1.5,3.3,2.9,6.7,4.4,10c0.6,1.3,0.2,2.3-0.2,3.5c-0.8,2.6-1.5,5.2-1.9,7.9
		c-0.3,2,0,4.1,0.3,6c0.3,1.8,1,3.6,1.5,5.4c0.3,1,1.2,1.3,1.9,0.9c0.4-0.2,0.6-1.3,0.5-1.9c-0.6-2-1.2-4.1-2.1-6
		c-1.7-3.6-0.6-6.7,1.4-10.1c0.6,1,1.1,1.8,1.4,2.6c0.7,1.6,1.2,3.3,1.9,4.9c1.3,2.9,2.6,5.8,4,8.6c1.4,2.9,2.8,5.7,4.3,8.5
		c0.2,0.4,1,0.6,1.5,0.9c0.1-0.6,0.5-1.3,0.3-1.7c-1.1-3.2-2.3-6.4-3.5-9.5c-1.1-2.8-2.3-5.6-3.4-8.4c-1.9-4.8-3.7-9.7-5.5-14.5
		c-0.2-0.4-0.1-0.9-0.2-1.4c0.5,0.1,1.1,0,1.5,0.3c1.8,1.2,3.6,2.5,5.4,3.8c4.4,3.2,7.2,7.4,8.7,12.6c0.4,1.4,1.1,2.7,1.6,4.1
		c0.2,0,0.4,0,0.6,0c0.2-0.8,0.7-1.7,0.5-2.4c-0.6-2.7-0.9-5.5-2.4-8c-2.5-3.9-5.2-7.6-9.3-9.8c-2.6-1.4-5.2-2.7-7.7-4.1
		c-0.4-0.2-0.9-0.4-1-0.8c-1.2-3.2-2.4-6.5-3.4-9.7c-0.4-1.1-0.2-2.4-0.4-3.8c1.7,0.5,3.1,0.8,4.4,1.3c2.6,0.9,5.4,1.7,7.7,3.1
		c3.8,2.2,6.9,5.4,9.2,9.3c0.2,0.4,0.7,0.6,1.1,0.8c0.1-0.9-0.2-1.4-0.2-2c-0.2-4.5-3.1-7.4-6.2-10.1c-1.2-1-2.5-2-3.8-2.8
		c-3.5-2.3-7.4-3.6-11.6-3.5c-1.1,0-1.6-0.4-1.7-1.2c-0.5-3.6-1.8-7.2-1.3-10.9c0.1-0.5,0-1,0-1.5c-0.1-2.9,1.5-5.3,4-5.7
		c1.6-0.2,3.3,0,4.9-0.1c2.2-0.2,3.3,1.2,4.1,2.9c1.1,2.1,1.8,4.4,3,6.4c1.9,3.3,4.4,6.3,7.7,8.3c0.6,0.4,1.5,0.4,2.3,0.6
		c0.1-0.2,0.3-0.4,0.4-0.7c-0.5-0.7-0.9-1.4-1.5-2c-1.2-1.1-2.6-2-3.1-3.6c-0.3-0.9-0.6-1.9-1-2.8c-0.9-2.3-1.9-4.6-2.7-6.9
		c-0.1-0.3,0.1-0.8,0.2-1.2c0.9,0.3,1.6,0.5,2.3,0.8c2.5,1,5,2,7.4,3.2c2,1,3.6,2.3,3.5,4.5c-0.1,2.7,0.8,5.2,3.4,7
		c0.9-2.1-1.6-3.8-0.7-6.2c0.6,0.7,1.3,1.2,1.6,1.8c1.7,3.7,4.3,6,8.3,6.7c-3.1-4-6.1-8.1-9.4-12.3c3.6,1.4,6.8,2.7,10,4
		c3.2,1.3,6.1,3.4,9.8,3.4c-2-1.6-4-3.2-6.2-4.5c-3.1-1.8-6.4-3.5-9.5-5.3c-1.8-1-3.6-2.1-5.3-3.2c-0.4-0.3-0.7-0.8-1.3-1.5
		c3.9-1.4,7.4-2.6,10.9-3.9c0.4-0.1,0.8-0.5,1-0.9c0.1-0.2-0.3-0.8-0.6-0.9c-1-0.2-2-0.4-2.9-0.4c-4.1,0.2-7.6,2.2-10.9,4.4
		c-1,0.7-1.6,0.8-2.7,0.6c-2.7-0.7-5.5-1.4-8.2-1.9c-2.5-0.4-5-0.6-7.9-1c0.3-0.8,0.5-1.5,0.8-1.9c1.3-1.7,2.6-3.3,4-4.9
		c0.9-1,1.9-2.1,3.1-2.8c3-2,6.1-3.9,9.1-5.9c0.3-0.2,0.3-0.9,0.5-1.3c-0.5-0.1-1-0.5-1.3-0.4c-0.8,0.4-1.6,0.5-2.5,0.4
		c-0.2,0-0.5,0.1-0.7,0.2c-3.7,1.6-7.3,3.1-10.2,6.3c-2.3,2.6-4.1,5.3-5.5,8.5c-0.2,0.4-0.7,0.9-1.1,0.9c-3,0.1-5.9-0.1-8.8-1.5
		c-2.5-1.2-3.6-2.9-2.5-5.5c0.8-1.8,2.1-3.4,3-5.2c2.3-4.6,6-7.9,9.9-11.1c1.3-1.1,1.9-2.3,2.2-3.9c0.9-4.7,1.4-9.6,2.7-14.2
		c1-3.3,2.9-6.4,4.5-9.6c0.4-0.8,0.8-1.5-0.3-2.4c-1.3,0.6-2.6,1.4-4,2c-3.4,1.4-6.8,2.7-10.1,4.1c-4.3,1.8-8.6,3.8-12.9,5.6
		c-5.2,2.2-10.4,4.2-15.6,6.3c-1.6,0.6-3.1,1.4-4.8,1.8c-3.4,0.8-6.9,1.5-10.4,2.1c-2.2,0.3-4.4,0.6-6.6,0.4
		c-3.8-0.3-7.5-0.9-11.2-1.5c-1.7-0.3-3.5-0.5-5-1.1c-2.5-1-4.9-2.4-7.4-3.5c-3.3-1.5-6.6-2.9-9.4-5.4c-1.5-1.4-3.3-2.3-4.9-3.7
		c-1.5-1.3-3-1.1-4.6-0.6c-2.2,0.7-4.3,1.4-6.5,2.1c-2.2,0.7-4.5,1.3-6.7,2c-0.6,0.2-1.1,1-1.6,1.5c0.5,0.5,1,1.1,1.7,1.4
		c4,2,8.1,3.7,11.1,7.3c1.5,1.9,3.2,3.7,4.7,5.6c3.1,4,4.9,8.8,7,13.4c1.8,4,3.4,8.1,4.3,12.4c0.3,1.4,0.9,3,2,3.8
		c1.6,1.2,3.7,2,5.6,2.6c3.4,1,6.9,1.7,10.4,2.4c3.3,0.7,6.6,1.2,9.8,1.7c1,0.2,2,0.3,3.1,0.4c0-0.1,0.1-0.5,0.3-0.7
		c3.1-2.8,5.9-6.1,9.4-8.2c3.9-2.3,8.5-3.2,13.2-3.3c2,0,3.9,0.2,5.9,0.3c4.9,0.2,7.8,3.1,9.8,7.2c0.4,0.9,0.5,1.9-1,1.9
		c-0.5,0-1,0.3-1.4,0.6c-1.9,1.3-3.8,2.7-5.6,4.1c-0.7,0.5-1.5,0.9-1.9,1.6c-0.8,1.7-2.2,1.5-3.7,1.5c-1.9,0-3.8-0.1-5.6,0.3
		c-1.7,0.3-3.2,1.2-4.9,1.5c-2.3,0.4-4,1.9-5.6,3.4c-1.6,1.4-2.7,3.4-4.2,4.9c-1.2,1.3-1.7,2.8-2,4.4c-0.1,0.4,0.3,0.9,0.5,1.4
		c0.5-0.2,1.1-0.4,1.5-0.7c0.6-0.6,0.9-1.5,1.5-2.1c1.9-2,3.7-4,5.8-5.8c1.8-1.5,3.8-3,5.9-4c1.5-0.7,3.4-0.7,5.1-0.9
		c1.1-0.1,1.2,0.3,0.7,1.3c-0.6,1.2-1,2.5-1.6,3.7c-0.2,0.4-0.5,0.8-0.8,1.1c-0.6,0.7-1.3,1.3-1.7,2.1c-1.4,2.7-2.6,5.5-3.9,8.3
		c-0.2,0.4-0.8,0.8-1.3,1c-1.5,0.6-3.1,0.8-4.4,1.6c-5,3.1-5.9,8-5.6,13.4c0.6-0.3,1-0.7,1.3-1.2c0.9-2,1.6-4.1,2.6-6.1
		C319.1,315.4,321.5,313.6,324.2,311.6z M626.9,79.7c-0.5-0.7-1-1.2-1.5-1.9c-1.9-2.7-3.3-5.6-3.9-8.8c-0.3-1.8-0.4-3.6-0.7-5.3
		c-0.1-0.4-0.5-0.7-0.8-1c-0.3,0.3-0.9,0.5-1,0.9c-0.2,1.7-0.7,3.5-0.3,5.1c1,4.4,3.1,8.4,6.4,11.5c1.7,1.5,3.1,2.6,1,4.8
		c-0.1,0.1-0.1,0.2-0.1,0.3c-0.5,2.9-1,5.8-1.6,8.7c-0.1,0.4-0.3,0.7-0.4,1.1c-0.4-0.2-0.9-0.2-1.2-0.5c-2.5-2.8-4.3-6-4.3-9.9
		c0-0.8-0.2-1.7-0.4-2.5c-0.2-0.8-1-1-1.3-0.2c-0.7,1.5-1.7,3.2-1.5,4.6c0.3,2.2,1.3,4.4,2.5,6.4c1.3,2.1,3.1,3.8,4.6,5.7
		c0.4,0.5,0.8,1.3,0.6,1.7c-1.6,3.1-3.2,6.2-5.1,9.2c-0.9,1.5-1.5,1.3-2.2-0.3c-1.2-2.7-2.4-5.3-3.7-7.9c-0.4-0.9-1.2-1.6-1.5-2.5
		c-0.8-2.6-2.3-4.9-3.8-7.1c-1.3-2.1-2-4.1-1.2-6.7c0.8-2.5,1-5.2,1-7.9c0-2.5-0.5-5.1-1-7.6c-0.4-2-1.3-3.7-3.8-4.7
		c0,1.2-0.2,2.3,0,3.2c0.5,2,1.7,4,1.8,6c0.2,3.1-0.2,6.2-0.4,9.3c0,0.3-0.4,0.6-0.7,0.9c-0.2-0.2-0.5-0.4-0.7-0.6
		c-1-1.5-1.8-3.1-3-4.5c-3.9-4.7-7.9-9.2-11.9-13.8c-1-1.1-2.1-2.2-3.2-3.2c-1.5-1.4-2.9-2.8-4.4-4.2c-1.2-1.1-2.5-2.2-4.2-3.6
		c0.2,0.8,0.1,1.1,0.3,1.3c2.7,3.7,5.4,7.4,8.2,11c1.8,2.4,3.6,4.7,5.4,7c1.4,1.8,2.8,3.6,4.1,5.4c0.3,0.5,0.4,1.1,0.6,1.6
		c-0.6,0.1-1.2,0.5-1.7,0.4c-1.6-0.4-3.2-0.8-4.8-1.4c-1.5-0.6-3-1.2-4.4-2c-1.5-0.8-3-1.6-4.1-2.8c-2.4-2.7-4.5-5.6-6.7-8.3
		c-0.2-0.3-0.6-0.5-1-0.7c-0.2,0.1-0.4,0.2-0.5,0.4c0.5,1.3,1.1,2.5,1.5,3.8c0.9,2.9,3.3,4.9,5.4,6.8c2.9,2.6,6.4,4.7,10.4,5.6
		c2,0.4,4,0.8,5.9,1.3c1.2,0.3,2.9,0.2,3.5,0.9c2.5,3,4.7,6.2,6.8,9.4c1.2,1.8,0.8,2.6-1.4,2.7c-5.8,0.2-11.4-0.4-16.7-2.8
		c-0.7-0.3-1.4-0.8-2-1.3c-0.8-0.6-1.6-1.4-2.4-2c-0.7-0.5-1.4-1.2-2.4-0.5c1.6,3.3,4.1,5.8,7.1,7.5c2.7,1.5,5.9,2.4,9,3.1
		c2.2,0.5,4.5,0.3,6.8,0.4c0.6,0,1.3-0.6,1.7-0.4c1.6,0.8,3.3,1.6,4.6,2.8c1,0.9,1.7,2.4,2.3,3.7c1.2,2.7,1.8,5.5,0,8.2
		c-0.9,1.4-1.6,3-2.6,4.4c-0.5,0.7-1.3,1.3-2,1.8c-0.6,0.4-1.3,0.4-2,0.7c-2.7,1.2-5.8-0.2-6.9-2.9c-0.8-2.2-1.4-4.7-3-6.3
		c-2.5-2.5-5.7-4.6-9.5-5c-0.7,1.3-0.4,1.7,1.2,2.3c1.3,0.6,2.5,1.4,3.7,2.3c2.3,1.6,3.3,4.3,5,6.4c0.8,1.1,0.2,2.1,0.3,3.2
		c0,0.3-1.4,0.6-2.2,0.9c0,0-0.1,0-0.2,0c-3.3,0.1-6.6,0.2-9.7,0.3c0-0.8,0.1-1.6,0-1.7c-2.1-0.7-1.7-2.6-2.1-4
		c-0.5-1.8-1.5-3.2-3-4.2c-0.4-0.2-1-0.1-1.5-0.1c0.1,0.4,0.2,0.9,0.4,1.3c0.3,0.5,0.8,1,0.9,1.5c0.2,1.5,0.7,2.8,1.7,4
		c0.3,0.3,0.3,0.7,0.6,1.2c-0.5,0.1-0.9,0.3-1.2,0.3c-1.2-0.1-2.3-0.2-3.5-0.3c-2.5-0.2-5-0.1-7.4-0.9c-1.3-0.4-2.4-0.4-3.6-0.4
		c-0.6,0-1.2-0.2-1.9-0.2c-1.4,0-2.9,0-4.3,0c0,0.2,0,0.4-0.1,0.5c2.8,0.8,5.6,1.7,8.4,2.4c1.2,0.3,2.5,0.2,3.6,0.4
		c3.7,0.8,7.4,1.6,11.1,2.4c0.5,0.1,1,0.5,1.5,0.7c0,0.2,0.1,0.4,0.1,0.6c-3.6,2.6-7.2,5.2-10.7,7.8c0,0.2,0,0.3,0,0.5
		c0.8,0.1,1.6,0.4,2.4,0.2c1.1-0.2,2.1-0.7,3.1-1.1c2.7-1,4.9-2.7,6.8-4.9c1.1-1.2,1.6-3.1,3.9-3c5.4,0.2,10.8-0.4,15.9-2.4
		c0.2-0.1,0.4,0,0.6,0.1c0,0.3,0.1,0.6,0,0.8c-1,3.9-2.4,7.7-4.7,11c-0.2,0.4-0.7,0.6-0.9,1c-1.4,2.3-3.1,4.3-5.2,6
		c-0.9,0.6-1.6,1.6-1.1,2.9c0.9-0.3,1.9-0.3,2.7-0.8c1.4-0.9,2.7-2,4.1-2.9c2.8-1.9,4.5-4.7,5.8-7.7c1.3-3,2-6.3,2.8-9.5
		c0.5-1.7,2.9-3.5,4.4-3c3.4,1.1,6.3,2.7,7.3,6.5c0.1,0.4,0.3,0.8,0.4,1.1c1.2,3.5,2.9,7-0.3,10.4c-0.2,0.2-0.2,0.6-0.3,0.8
		c-0.9,1.3-1.8,2.7-2.9,3.9c-1,1.1-2.4,1.8-3.4,2.9c-0.5,0.6-0.8,1.6-0.8,2.5c0,1.3,0.4,2.5,0.5,3.8c0.3,2.7,0.6,5.4,0.9,8.1
		c0.2,1.7,0.5,3.5,0.2,5.1c-0.5,3.4-1.4,6.8-2,10.1c-0.1,0.3,0.1,0.9,0.3,1.1c0.3,0.2,0.9,0.1,1.2-0.1c0.7-0.5,1.3-1.1,2-1.6
		c3.2-2.7,6.4-5.4,9.7-8c3.1-2.5,6.1-5,9.2-7.4c1.7-1.4,3.4-2.9,5.2-4.3c2.7-2.1,5.7-3.9,8.2-6.2c3.1-2.8,6.6-5,10.3-6.8
		c6.6-3.2,13.4-5.6,20.9-5.7c3-0.1,6-0.7,9-0.2c4.2,0.8,8.4,1.2,12.5,2.2c3.4,0.8,6.8,2.2,10,3.6c1.4,0.6,2.4,0.1,3.3-0.5
		c3-1.9,6-3.8,9-5.8c1.4-0.9,2.6-1.9,3.9-3c0.7-0.6,0.8-1.5-0.2-1.7c-1.6-0.5-3.4-0.6-5.1-1c-2.2-0.5-4.5-0.7-6.4-1.8
		c-4.8-2.7-9.8-5.3-13.4-9.8c-2.5-3.2-5.4-6-7.9-9.2c-2.3-3-4.4-6.2-6.6-9.3c-0.5-0.7-1.2-1.7-1.9-1.8c-2.6-0.5-5.3-1-8-1
		c-3-0.1-6.1,0.3-9.1,0.6c-3.7,0.3-7.3,0.7-11,1.3c-1.1,0.2-2.2,0.7-2.8,1.9c-0.5,1.2-1.1,2.4-1.7,3.5c-1.8,3.1-3.7,6.1-6.9,8.1
		c-2.3,1.4-4.7,2.6-7.1,4c-2.4,1.4-5,2.1-7.8,2c-1.8-0.1-3.4-0.8-5.1-1.4c-2-0.7-3.5-1.9-4.8-3.4c-0.5-0.6-0.8-1.9-0.5-2.5
		c1.4-2.9,3.1-5.7,4.7-8.5c0.1-0.3,0.7-0.3,1-0.4c2.7-0.6,5.5-0.9,8-2c2.4-1.1,4.6-2.8,6.5-4.6c1.6-1.6,2.7-3.7,3.9-5.6
		c1.4-2.2,2.1-4.7,2.4-7.3c0.1-0.9,0.3-2.1-0.9-2.3c-1.1-0.2-0.9,1.1-1.3,1.7c-1.8,3.2-3.3,6.6-5.3,9.7c-1.2,1.9-3.1,3.5-4.9,4.9
		c-1.3,1-3,1.4-4.6,1.9c-2.4,0.7-3.3-0.3-2.7-2.7c0.6-2.5,1.2-5.1,1.8-7.6c0.6-2.4,1-4.8,1.6-7.2c1-3.8,0.8-7.9,0.9-11.9
		c0.1-2.5,0-5.1-0.3-7.6c-0.4-3.2-1-6.3-1.5-9.5c-0.2-1.1-0.7-1.5-1.8-1.3c-0.2,8.9-0.3,17.7-0.5,26.5
		C627.6,79.5,627.2,79.6,626.9,79.7z M277.9,69.3c-0.1,0.8,0,1.4-0.3,1.8c-1.5,2.3-3.1,4.6-4.7,6.9c-0.5,0.6-1.3,1-1.8,1.6
		c-1.4,1.8-3.1,2.9-5.3,3.3c-1.6,0.3-3.4,0.2-4.6,0.8c-2.2,0.9-2.3-0.5-2.7-1.6c-0.4-1.1-0.6-2.3-0.6-3.5c0.1-2.1,0.4-4.2,0.6-6.2
		c0-0.3-0.4-1-0.5-0.9c-1.5,0.2-3,0.4-4.5,0.8c-3.2,0.7-6,2.4-8.7,4.3c-2.9,2-5.9,3.9-8.3,6.6c-0.6,0.7-1.3,1.4-1.9,2.1
		c-1.4,1.7-2.7,3.5-4,5.3c-1,1.3-2.1,2.6-3,4c-0.7,1.1-1,2.3-1.5,3.5c0.1,0.1,0.3,0.2,0.4,0.3c1.3-0.9,2.8-1.7,4-2.7
		c4.1-3.6,8.4-6.8,13.6-8.7c3.3-1.2,6.5-2.6,10-2.7c1,0,1.5,0.4,1.3,1.4c-0.4,3-0.7,6-1.1,8.9c-0.3,1.9-1,3.7-1.3,5.6
		c-0.4,1.9-0.1,3.9-1.1,5.7c-0.3,0.5-0.1,1.3,0,2c0,0.5,0.3,1,0.2,1.3c-0.7,2-0.5,4.2-0.6,6.3c0,0.5-0.1,1-0.2,1.5
		c-0.3,1.5-0.9,3-0.9,4.6c0,3.4,0.1,6.9-0.7,10.3c-0.4,1.6,0,3.6,1.4,5.2c0.3-0.8,0.5-1.4,0.7-1.9c0.3-1.3,0.7-2.6,0.9-4
		c0.3-2.1,0.3-4.3,0.7-6.4c0.6-3.1,1.8-6,2.4-9.1c1.3-6.6,3.6-12.8,6.3-18.9c0.7-1.7,1.6-3.3,2.5-5c0.6-1.1,2.5-1.2,3.4-0.4
		c1.7,1.6,3.4,3.2,5.3,4.5c2.3,1.6,4.1,3.4,5.3,5.8c0.4,0.8,0.7,1.6,1.1,2.3c1.3,2.5,2.7,5,4.1,7.6c1.5-0.5,3.6-3.7,3.5-6
		c-0.1-1.6-0.4-3.2-0.9-4.8c-0.8-2.3-2.1-4.4-2.6-6.7c-0.5-2.7-1.4-5.2-2.6-7.5c-1.2-2.2-2.7-4.1-4.9-5.4c-0.6-0.4-1.1-0.8-1.7-1.2
		c0.4-1.5,1.2-2.5,2.5-3.1c0.9-0.4,1.7-1.4,2.5-2.1c0.3-0.2,0.4-0.7,0.7-0.8c3.6-1.4,7.2-2.9,10.9-4.1c3.2-1,6.4-1.7,9.7-2.4
		c2.6-0.6,5.2-1.1,7.8-1.4c2.4-0.2,4.9,0,7.4,0c1,0,1.9,0.1,2.9,0c0.4-0.1,1-0.5,1-0.8c0.1-0.5-0.1-1.3-0.4-1.5
		c-0.9-0.6-1.9-1-2.8-1.4c-2-0.8-3.9-1.5-6-2.1c-1.7-0.5-3.5-1.2-5.3-1.2c-3-0.1-6.1,0.1-9.1,0.3c-4.1,0.2-8,1.6-11.9,2.7
		c-3.4,0.9-6.8,1.8-10.2,2.6c-0.4,0.1-0.8-0.2-1-0.2c-0.1-6.7,0.3-13.2,3.8-18.8c3.4-5.4,7-10.8,13.1-13.8c-0.6-0.3-1.3-0.6-1.4-0.4
		c-0.9,1.1-2,0.6-3.1,0.8c-0.3,0.1-0.7,0.1-1,0.3c-4.1,2-7.9,4.5-10.8,8.1c-1.7,2.1-3.1,4.5-4.6,6.8c-2.7,4.1-4.9,8.5-6.6,13.1
		c-0.8,2.2-1.2,4.5-1.8,6.9c0.6-0.4,1.3-1,2.1-1.2c2.2-0.6,4.4-1.2,6.7-1c3.2,0.3,5.1,2.4,7,4.6C277,70,276.8,70.1,277.9,69.3z
		 M230.3,173.5c0.1-0.1,0.3-0.3,0.4-0.4c0-0.3,0-0.7-0.1-1c-0.6-1.8-1.1-3.7-1.8-5.5c-1.6-4.7-4-8.9-7.4-12.5
		c-1.1-1.1-2.3-2.2-3.5-3.2c-3-2.6-5.9-5.4-9.2-7.6c-4.5-3-9.3-5.6-13.9-8.3c-0.9-0.5-1.8-1.1-2.7-1.3c-4.2-1.1-8.4-2.1-12.7-3.1
		c-3.3-0.8-6.5-1.5-9.8-2.1c-2.9-0.5-5.8-0.8-8.7-1.1c-3.2-0.3-6.4-0.4-9.6-0.6c-0.5,0-0.9-0.1-1.4-0.1c-2.4,0.1-4.8,0.1-7.3,0.2
		c-1.3,0.1-1.6,1-1.1,2.1c0.6,1.2,1.2,2.5,2,3.5c2,2.4,3.9,4.9,6.3,7c2.2,1.9,4.9,3.5,7.5,4.9c2.9,1.5,6,3,9.1,3.8
		c4.8,1.3,9.8,1.9,14.7,2.9c3.2,0.7,6.3,1.5,9.4,2.3c2,0.5,4.1,1.1,6.1,1.7c2.6,0.7,5.2,1.2,7.7,2.3c3.5,1.5,6.9,3.2,10.1,5.2
		c3.8,2.3,7.3,5.1,11,7.6C227.1,171.4,228.7,172.4,230.3,173.5z M715.8,175.1c-0.3-0.5-0.4-0.6-0.5-0.7c-2.5-1.1-4.9-2.2-7.4-3.3
		c-1.4-0.7-2.6-0.9-4.2-0.4c-2.5,0.8-3.2-0.1-2.4-2.6c0.3-1.1,0.7-2.1,0.9-3.2c0.4-1.9-0.2-2.7-2.1-2.8c-3.1-0.3-6.2-0.6-9.3-0.9
		c-1.2-0.1-2.5-0.1-3.7-0.3c-3.5-0.7-7-0.3-10.5-0.1c-5.1,0.3-10.2,1-15.3,1.3c-4.4,0.2-8.6,1.2-12.7,2.5c-3.1,1-6,2.8-9.1,4
		c-3.6,1.4-6.5,3.7-9.6,5.9c-1.7,1.3-3.3,2.6-4.9,4c-1.6,1.4-3.2,2.8-5.2,4.5c1.1,0.3,1.8,0.7,2.3,0.6c5.1-1.1,10.3-1.8,15.5-1.8
		c1.7,0,3.4-0.1,5.2,0c2.6,0.1,5.2,0.4,7.8,0.5c2.1,0.1,4.4,0.8,6.3-1c1.8-1.7,3.6-3.4,5.5-5c0.9-0.8,1.9-1.6,3-2.3
		c1.8-1.1,3.6-2.1,5.4-3.1c0.4-0.2,1,0.1,1.5,0.1c-0.2,0.5-0.2,1.1-0.5,1.5c-0.5,0.7-1.3,1.2-1.8,1.9c-0.5,0.5-0.9,1.1-1.1,1.8
		c-0.4,0.9,0,1.3,1,1.1c0.4-0.1,0.8-0.4,1.3-0.5c4.6-1.5,9.2-2.9,14.2-2.2c3.5,0.5,7.1,1,10.6,1.6c4.5,0.8,8.9,1.5,13.4,0.1
		c0.2-0.1,0.5,0,0.7,0C711.7,175.8,713.6,175.5,715.8,175.1z M273.4,198.6c-0.1,0.1-0.2,0.2-0.2,0.3c0.3,0.4,0.5,0.8,0.9,1.1
		c1.9,1.5,3.8,3,5.6,4.6c1.2,1,2.4,1.4,3.9,1.4c0.6,0,1.6,0.3,1.8,0.7c0.2,0.5-0.2,1.3-0.5,1.9c-0.7,1.4-1.4,2.7-2.2,4
		c-0.6,1-0.2,1.6,0.8,2.1c1.2,0.5,2.4,1.1,3.6,1.5c6,2.3,11.7,5.4,18.1,6.4c2.2,0.3,4.3,0.9,6.5,1.4c3.4,0.7,6.8,1.3,10.2,1.9
		c2.6,0.5,5.1,1,7.7,1.1c4.7,0.2,9.4-0.3,14.1-1.2c2-0.4,4.1-0.8,6.1-1.3c1.4-0.3,2.7-0.8,4-1.3c3.1-1.3,6.2-2.8,9.3-4.2
		c0.7-0.3,1.4-0.6,2-1c0.3-0.2,0.6-0.7,0.5-1c-0.1-0.3-0.5-0.7-0.9-0.8c-0.9-0.2-1.8-0.3-2.7-0.4c-2.3-0.2-4.6-0.3-6.8-0.8
		c-3.8-0.8-7.5-1.9-11.2-3c-2.4-0.8-4.7-2-7.2-2.8c-1.6-0.6-3.3-1.4-5.2-0.6c-3.4,1.5-6.7,3.1-10.1,4.5c-2.1,0.9-4.2,1.9-6.5,1.5
		c-0.5-0.1-1-0.3-1.6-0.5c0.3-0.4,0.6-1,1-1.3c1.4-1,2.9-1.9,4.3-2.8c0-0.1-0.1-0.3-0.1-0.5c-0.4-0.1-0.8-0.4-1.2-0.4
		c-2.8-0.1-5.6,0-8.3-0.2c-1.7-0.1-3.3-0.5-4.9-1c-1.4-0.4-2.8-1.2-4.1-1.8c-2.1-0.9-4.2-1.9-6.3-2.8c-1.7-0.8-3.4-1.6-5.1-2.3
		c-3.9-1.5-8.1-1.9-12.2-2.4C275.3,198.6,274.3,198.6,273.4,198.6z M786.1,258.3c-0.3,1-0.5,1.7-0.7,2.5c-0.1,0.5-0.2,1.1-0.5,1.4
		c-3.4,3.4-5.9,7.6-10.5,9.6c-2.5,1.1-5.1,2.2-7.6,3.3c-0.8,0.3-1.3,0.1-1.2-0.7c0.2-1.4-0.7-2.1-1.4-3.1c-0.3-0.5-0.7-1-0.8-1.6
		c-0.8-4.4-1.7-8.8-2.1-13.2c-0.5-4.5-0.5-9.1-0.7-13.7c-0.2-4.3-2.2-7.8-5.1-11.2c-0.5,1.6-1.2,2.9-0.6,4.5
		c0.6,1.8,0.9,3.7,0.7,5.6c-0.2,3.1-0.8,6.1-1.5,9.2c-0.8,3.7-1.6,7.5-1.6,11.3c0,1.1,0,2.3,0,3.4c0,1.9-0.1,3.9,0,5.8
		c0,1-0.4,1.8-1.4,1.7c-1.5-0.2-3-0.4-4.4-0.8c-2.4-0.6-4.7-1.5-7.2-1.9c-1.5-0.3-2.6-0.8-3.5-1.9c-0.7-0.9-1.3-1.9-2.2-2.7
		c-1-0.9-1.5-2.6-3.3-2.6c0,1.3-0.3,2.7,0.1,3.8c0.9,2.8,1.6,5.8,3.2,8.1c2.4,3.2,5.6,5.9,8.5,8.7c2.1,2.1,5,3.5,5.1,7.1
		c1.7-0.4,1.6-1.7,1.7-2.9c0.1-0.7,0-1.6,0.3-2.2c1.1-1.8,2.4-3.6,3.7-5.3c1.3-1.9,2.6-3.8,5.4-3.4c0.8,0.1,1.7,0,2.4-0.5
		c1-0.6,1.8-0.4,2.4,0.3c1,1.1,2,2.3,2.6,3.7c0.7,1.8,0.9,3.8,1.3,5.8c0.2,0.8,0.5,1.6,1.5,1.1c2-1,3.9-2.2,5.8-3.4
		c1-0.6,1.8-1.4,2.7-2.1c1.9-1.7,4.1-3.2,5.7-5.1c1.9-2.3,3.9-4.4,4.8-7.5C788.8,265.6,787.7,262.2,786.1,258.3z M524.2,214.8
		c-0.7-0.2-1.3-0.4-1.9-0.5c-1.2-0.2-2.4-0.2-3.5-0.5c-4.8-1.4-9.6-2.9-14.4-4.3c-1.2-0.4-2.6-0.5-3.8-0.8c-2.2-0.6-4.5-1.4-6.7-1.8
		c-4.2-0.8-8.5-1.4-12.8-2.1c-3.2-0.6-6.4-1.3-9.6-1.8c-3.2-0.5-6.4-0.8-9.6-1.1c-1.6-0.1-2,0.4-1.4,1.9c0.3,0.9,0.8,1.8,1.3,2.5
		c1.5,2,2.9,4.1,4.8,5.8c2.6,2.3,5.6,4.4,8.5,6.3c2.8,1.8,5.6,3.7,8.7,4.8c3.1,1.2,6.6,1.8,9.9,2.2c3.5,0.4,7.1,0.4,10.7,0.3
		c2.2,0,4.5-0.4,6.7-0.8c2.4-0.6,4.8-1.4,7.2-2.2c0.4-0.1,0.8-0.6,1-1.1c0.6-0.9,1-2,1.6-2.9C522,217.5,523,216.3,524.2,214.8z
		 M310.6,239.7c1.4-0.1,2.4-0.1,3.4-0.3c2.5-0.4,5.1-0.7,7.6-1.4c3.2-0.9,6.4-2,9.6-3.1c0.4-0.2,0.7-0.7,1.1-1.1
		c-0.6-0.2-1.1-0.6-1.7-0.7c-1.9-0.2-3.9-0.2-5.8-0.5c-5.1-0.7-10.2-1.5-15.2-2.4c-2.1-0.4-4.2-1.2-6.2-1.8c-2.9-0.9-5.9-1.7-8.7-3
		c-4.8-2.2-9.5-4.6-14.2-7c-1.5-0.8-2.6-0.4-3.7,0.6c-1,1-1.9,2.2-2.9,3.2c-2.7,2.8-2.1,4.1,0.6,6.1c1.3,0.9,2.8,1.5,4.3,2.1
		c4,1.7,7.9,3.6,11.9,5.1c3.2,1.2,6.6,2.3,10,3C304.1,239.2,307.6,239.3,310.6,239.7z M648.3,157.7c0.8-0.1,1.5-0.1,2.2-0.2
		c2.2-0.4,4.5-1,6.7-1.3c3.2-0.4,6.4-0.7,9.6-1c2.4-0.2,4.9-0.6,7.3-0.5c3.4,0,6.8,0.5,10.2,0.6c5.8,0.1,11.4,1.2,17.1,2.4
		c1.5,0.3,3.3,1.1,4.4-0.9c1-1.8,1.9-3.6,2.9-5.4c0.2-0.4,0.3-0.8,0.3-1.2c0.2-1.7-0.3-2.5-2.9-3.2c-2.9-0.8-5.9-1.1-8.9-1.6
		c-1.8-0.3-3.5-0.4-5.3-0.6c-2.2-0.2-4.5-0.6-6.7-0.6c-2.7,0-5.4,0-8.1,0.3c-3,0.3-6.1,0.7-9,1.6c-2.9,0.8-5.7,2.1-8.3,3.4
		c-3.1,1.6-6,3.4-8.9,5.2C649.8,155.2,648.5,155.8,648.3,157.7z M570.2,205.5c0,3.4,0.9,3.9,3.7,2.5c0.8-0.4,1.7-0.8,2.6-1.2
		c2.9-1.4,5.9-2.6,8.7-4.1c3.3-1.8,6.4-4,9.1-6.7c1.2-1.2,1-1.7-0.4-2.6c-3.7-2.3-7.7-1.6-11.6-0.8c-1.4,0.3-2.8,0.7-4.2,1.2
		c-2.5,0.9-4.8,2.1-6.2,4.5C570.3,200.7,570.3,203.2,570.2,205.5z M421,207.7c0.2-2.1-0.4-2.6-2.1-2.4c-4,0.6-8,1-11.9,1.9
		c-4,1-7.8,2.5-11.6,4.1c-1.5,0.6-2.1,1.8-0.9,2.8c2.7,2.2,5.6,3.6,9.1,3.9c1.7,0.1,3.4-0.1,5.1,0.1c2.4,0.2,4.7-0.1,6.8-1.3
		C419.3,214.7,420.3,211,421,207.7z M611.8,200.2c-0.1,0.1-0.3,0.2-0.4,0.3c0.3,0.6,0.4,1.3,0.8,1.8c2,2.5,4.1,4.8,6,7.3
		c2.1,2.9,4,5.9,5.8,9c1.1,2,2,4,4.3,4.8c1.8,0.6,3.6,1.4,5.4,1.9c1,0.2,2,0,3.1-0.1c-0.4-1-0.7-2-1.2-3c-2.1-4.4-5.6-7.8-8.8-11.3
		c-2.2-2.4-4.7-4.6-7.3-6.7C617.3,202.2,614.6,201,611.8,200.2z M284.3,52.2c0.1,0.1,0.2,0.3,0.3,0.4c1.1-0.7,2.3-1.2,3.2-2.1
		c4.3-4.2,9.7-6.4,15-9.1c2.6-1.3,5.4-1.6,8.3-1.8c2.8-0.2,5.6-0.3,8.3-0.3c1.7,0,3.3,0.4,5,0.5c0.1-2.2-2.2-5.1-3.9-4.9
		c-2.4,0.4-4.7-0.1-7.1,0.4c-2.4,0.5-4.9,0.5-7.3,1.6c-2.1,1.1-4.5,1.8-6.6,2.8c-1.5,0.7-2.8,1.7-4.2,2.6c-2.7,1.9-5.5,3.8-8.2,5.9
		C285.9,49.4,284.6,50.4,284.3,52.2z M710.5,340.5c0.4,0.3,0.9,0.6,1.4,0.9c0.4,0.2,1,0.4,1.1,0.7c0.3,1.4,0.9,1.5,2.4,1.3
		c2.8-0.5,5.3-1.5,7.8-2.8c2.6-1.3,5.1-2.7,7.5-4.2c1.8-1.2,3.6-2.5,5.2-3.9c1.6-1.4,3-3.1,4.4-4.7c1.6-1.8,3.7-3.3,4.2-6.3
		c-0.8,0.6-1.4,1-1.8,1.4c-2.3,2.4-4.6,4.7-6.8,7.2c-2,2.2-4.3,4.1-7,5.3c-3.2,1.5-6.6,2.6-10.1,3.4
		C716.1,339.4,713.3,339.9,710.5,340.5z M548.4,224.7c-0.2,0.3-0.4,0.6-0.6,1c0.7,0.4,1.5,0.7,2.1,1.2c2.7,2.3,7.1,2.8,9.7,0.6
		c2-1.8,3.7-3.9,4.5-6.6c0.3-0.8,0-1.3-0.9-1.3c-0.5,0-1.1,0.1-1.6,0.3c-2.3,0.8-4.5,1.7-6.8,2.5C552.7,223.2,550.6,224,548.4,224.7
		z M430.7,197.4c0.6,0.1,1.2,0.3,1.7,0.2c1.3-0.1,2.6-0.4,3.9-0.5c3.2-0.2,6.5-0.4,9.7-0.7c0.4,0,0.9-0.2,1-0.5
		c0.1-0.4-0.1-0.9-0.3-1.3c-0.2-0.4-0.4-0.7-0.7-1c-1.8-2-3.8-3.8-6.7-3.4c-2.6,0.3-4.8,1.8-6.8,3.5
		C431.6,194.7,430.6,195.7,430.7,197.4z M683.1,257.1c-0.8-0.5-1.4-0.9-2-1.4c-0.7-0.5-1.3-0.9-2-1.5c-2.4-1.9-2.5-2.8-0.8-5.2
		c0.3-0.4,0.7-0.7,0.9-1c0.7-0.8,0.4-1.4-0.6-1.6c-1.4-0.3-2.8-0.6-4.2-0.6c-1.4,0-2.7,0.3-4.1,0.5c-0.1,0.2-0.1,0.4-0.2,0.6
		c1.8,2,3.5,4.1,5.3,6.1c-0.1,0.2-0.2,0.4-0.3,0.7c-1.9,0-3.8,0-5.6,0c-0.1,0.2-0.1,0.4-0.2,0.6c0.6,0.5,1.1,1.1,1.8,1.3
		c2.4,0.8,4.8,1.6,7.3,2.1C679.8,258.1,681.4,258.3,683.1,257.1z M530.4,133.9c-1.2,0.6-2.5,1.3-3.8,2.1c-1.3,0.9-2.2,1.9-2.7,3.6
		c-0.6,2,0.4,2.9,1.3,4.1c0.2,0.3,0.2,0.7,0.5,0.9c0.3,0.3,1,0.7,1.2,0.6c1.4-0.7,3-1.4,3.8-2.5c1.4-2,2.2-4.4,3.2-6.6
		c0.1-0.3-0.1-1.1-0.3-1.2C532.8,134.4,531.8,134.2,530.4,133.9z M339.8,135.5c-1.2-3.4-9.5-8-12.2-6.9c0.4,0.5,0.8,0.9,1.1,1.3
		c0.8,1.3,1.6,2.6,2.4,3.8c0.8,1.3,0.1,2.1-0.9,2.8c-0.8,0.6-1.5,1.2-2.2,1.9c-0.2,0.2-0.1,1.1,0,1.1c2.4,0.9,4.8,1.8,7.3,2.5
		c1.1,0.3,1.4-0.7,1-1.5c-0.8-1.7-1.8-3.3-2.6-5c-0.3-0.5-0.4-1.1-0.6-2C335.5,134.2,337.6,134.8,339.8,135.5z M245.3,96.8
		c-0.1-0.1-0.2-0.2-0.3-0.3c-0.7,0.7-1.6,1.2-2.2,2c-1.8,2.4-3.6,4.8-5.2,7.3c-1.7,2.7-3.1,5.7-4.7,8.5c-1.9,3.5-3.3,7.1-2.8,11.2
		c0.1,1.2,0.3,2.4,1.9,2.8c0.2-1.5,0.5-2.9,0.6-4.3c0.1-1.4,0.2-2.7,0.3-4.1c0-0.3,0.2-0.6,0.4-0.8c1.3-1,1.8-3.1,1.2-4.1
		c0.6-0.7,1.2-1.2,1.4-1.8c1.4-3.7,3.2-7.2,5.4-10.4C242.7,100.7,244,98.7,245.3,96.8z M668.8,188.4c0,0.2,0.1,0.4,0.1,0.5
		c0.5,0.2,1.1,0.5,1.6,0.5c1.5-0.1,3-0.4,4.5-0.6c3.2-0.5,6-1.9,8.6-3.7c1.3-0.9,1.2-2.1-0.4-2.5c-2.4-0.7-4.9-1.5-7.4-1.8
		c-1.1-0.2-2.4,0.6-3.6,1c0,0.1,0,0.3,0.1,0.4c1.2,0.1,2.4,0.1,3.6,0.3c0.5,0.1,1.1,0.6,1.3,1c0.1,0.3-0.3,1.1-0.7,1.3
		c-1.7,0.8-3.6,1.4-5.3,2.1C670.3,187.4,669.6,187.9,668.8,188.4z M321.7,198.2c-0.6-0.4-1-1-1.6-1.1c-3.1-0.8-6.3-1.1-9.5-0.4
		c-1.5,0.3-3,0.7-4.4,1.2c-1.1,0.4-1.5,1.2-0.4,2c1.8,1.2,3.7,2.2,5.5,3.4c1.4,1,2.8,0.8,4.5,0.4c-0.5-0.5-1.1-0.9-1.7-1.2
		c-0.6-0.3-1.2-0.6-1.7-1c-0.3-0.3-0.5-0.9-0.4-1.2c0.1-0.3,0.7-0.5,1.1-0.6c0.5-0.1,1-0.2,1.5-0.3c1.4-0.1,2.8-0.5,4.2-0.3
		C320.1,199.4,320.8,199.2,321.7,198.2z M778.7,230.2c-0.4,0.8-0.8,1.4-0.8,2c-0.1,2.5,0.1,5.1,0,7.6c-0.1,5-1.6,9.8-3.1,14.5
		c-0.3,0.9-0.6,1.7-1.1,2.8C779.1,254.9,782.8,235.3,778.7,230.2z M343.8,309.8c-0.1-4.3-1.5-7.7-2.9-11.2c-0.4-1-1.1-0.6-1.6-0.2
		c-1.4,1.1-1.4,2.5-0.6,4.1c1.4,2.8,2.2,5.6,1.3,8.8c-0.3,1.1-0.4,2.3-0.5,3.4c0,0.3,0.4,0.8,0.7,1c0.2,0.1,0.7-0.1,0.9-0.3
		C342.7,313.7,344.2,311.9,343.8,309.8z M130.8,170.1c0-0.2,0-0.3-0.1-0.5c2.4-1.1,4.9-2.2,7.3-3.3c-0.1-0.2-0.1-0.4-0.2-0.6
		c-1.5,0.1-3,0.1-4.5,0.4c-3.4,0.8-6.5,2.3-8.6,5.2c-0.7,1-0.5,1.7,0.7,1.9c3.1,0.6,6.1,0.2,9-0.8c0.6-0.2,1-0.8,1.6-1.2
		c-0.1-0.2-0.1-0.3-0.2-0.5C134.2,170.5,132.5,170.3,130.8,170.1z M155.9,199.6c-0.3,0-0.6,0-0.9,0c-0.5,1.5-1.2,2.9-1.4,4.4
		c-0.3,2-0.5,4-0.3,6c0.2,1.6,1,1.8,2.1,0.7c1-1,1.8-2.1,2.7-3.3c1.3-1.7,2.6-3.4,3.8-5.2c0.2-0.4-0.1-1.1-0.1-1.6
		c-0.4,0.1-1,0-1.3,0.3c-0.9,0.8-1.7,1.8-2.5,2.6c-0.4,0.4-0.8,0.7-1.3,1.2C156.3,202.8,156.1,201.2,155.9,199.6z M738.6,245
		c-0.1,0-0.1-0.1-0.2-0.1c-0.4,2.2-1.2,4.4-1.3,6.6c-0.2,3.6,1.8,6.5,3.9,9.2c1.1,1.5,2.4,2.9,3.6,4.3c0.5,0.6,1.1,1.2,1.7,1.7
		c0.3-2.2-1-3.6-1.9-5.1c-1.3-2.1-2.8-4.1-3.6-6.3C739.8,252,739.4,248.5,738.6,245z M269.4,97c-0.1,0-0.2-0.1-0.4-0.1
		c-0.4,1.5-1,3-1.1,4.6c-0.1,2.1,0.1,4.3,0.1,6.4c0,0.6-0.4,1.3-0.4,1.9c0.2,2.3,0.3,4.6,0.8,6.8c0.6,2.7,1.6,5.3,2.5,7.9
		c0.3,0,0.5-0.1,0.8-0.1c0.1-0.9,0.5-1.8,0.3-2.6c-0.8-3.6-2.2-7.2-2.5-10.8c-0.2-2.3,0-4.8-0.2-7.2
		C269.3,101.5,269.4,99.2,269.4,97z M332.9,333.3c1.5-2,2.6-4.3,2.7-6.6c0.1-3.9-0.7-7.8-2.5-11.4c-0.3-0.6-0.9-1.1-1.4-1.6
		c-0.2,0.7-0.5,1.5-0.6,2.2c-0.1,0.3,0.2,0.7,0.3,1c0.6,2.4,1.5,4.7,1.7,7.1c0.1,2.1-0.6,4.3-0.9,6.4
		C332,331.4,331.6,332.4,332.9,333.3z M634.1,81c7.2-1.2,9.3-11.5,5.5-16.9c-0.2,0.4-0.3,0.8-0.4,1.1c-0.1,1.8,0.1,3.7-0.3,5.4
		c-0.6,2.7-1,5.6-3.2,7.7C635,79,634.6,80.1,634.1,81z M523.6,224.6c0.9,0.3,1.2,0.6,1.5,0.6c2.6-0.5,5.3-0.9,7.8-1.5
		c0.5-0.1,1.1-1.1,1-1.5c-0.1-0.7-0.7-1.3-1.2-1.8c-2.3-2.1-2.4-2.1-4.6-0.1C526.6,221.5,525.3,222.9,523.6,224.6z M247.5,61.7
		c0.5,0.2,1,0.5,1.4,0.6c2.4,0.7,4.6,1.5,6.5,3.2c0.4,0.3,1.4,0.6,1.6,0.4c0.4-0.4,0.6-1.3,0.4-1.8c-0.4-0.9-1.1-1.9-1.8-2.6
		c-1.1-1-2.3-1.8-3.5-2.6c-0.3-0.2-0.9-0.2-1.2,0C249.8,59.8,248.8,60.7,247.5,61.7z M320,169.4c1.2,2,2.1,4,3.4,5.8
		c0.3,0.5,1.6,0.2,2.4,0.3c-0.2-1-0.3-1.8-0.4-2.8c1.6,0.7,2.7,1.2,4.1,1.9C327.8,170.8,323.5,168.3,320,169.4z M671.5,211.6
		c0.2,0.6,0.5,1.2,0.8,2.1c-1.4,0-2.6,0-4.1,0c3.5,3,5.8,3.2,8.9,3.1c1.1,0,1.3-0.6,1-1.4C677.4,213.5,673.7,211.4,671.5,211.6z
		 M594.3,69.4c-0.1-1.8-0.1-3.5-0.4-5.1c-0.5-2-1.3-4.1-2.2-6c-0.8-1.6-1.9-3.1-3-4.5c-0.3-0.4-1.5-0.5-1.8-0.3
		c-0.6,0.6-0.8,1.5,0.4,1.9c0.3,0.1,0.5,0.4,0.7,0.6c1.2,1.3,2,2.9,3,4.4c1.1,1.6,1.3,3.3,1.8,5C593.1,66.8,592.2,68.5,594.3,69.4z
		 M57.4,97.8c-2.2-2.6-5.3-2.5-8.2-3.2c0.1,1.4,1.8,3.6,3,3.7C54,98.6,55.8,99.7,57.4,97.8z M62.4,87.2c-0.8,1.7-1.6,3.1-2.1,4.6
		c-0.2,0.6,0.5,1.5,0.8,2.3c0.5-0.2,1.2-0.3,1.5-0.7c2.9-3.2,2.6-2.4,0.3-5.5C62.8,87.6,62.7,87.5,62.4,87.2z M34.1,22.9
		c1.1-0.4,2.5,0.3,3.4-1.2c0.8-1.3,1.1-2.6,0.6-4.1C35.2,18.4,33.8,20.3,34.1,22.9z M45,30.7c-0.2-0.2-0.3-0.3-0.5-0.5
		c-1.1,0.6-2.3,1-3.2,1.8c-0.4,0.4-0.5,1.8-0.1,2.2c0.7,0.9,1.6,0.3,2.1-0.5C44,32.8,44.5,31.8,45,30.7z"/>
	<path fill="#222222" d="M387,112.7c1.4-1,2.5-1.8,3.6-2.6c3.2-2.5,6.3-5,9.4-7.6c1-0.9,1.5-0.6,2.4,0.2c1.9,1.8,3.8,3.5,6,4.9
		c2.1,1.3,4.5,2.3,6.9,2.9c4.2,1.1,8.5,0.6,12.6-1c0.7-0.3,1.4-0.5,2.7-0.8c-0.9-0.4-1.5-0.9-2.1-0.9c-3,0-5.9,0.2-8.9,0.3
		c-3.3,0.1-6.3-1.2-9.4-1.9c-3-0.6-4.5-2.8-6.4-4.7c-0.9-0.8-0.6-1.5,0.4-2c4.2-2.2,8.3-4.5,12.4-6.8c0.6-0.3,1.2-0.7,1.8-1.1
		c1-0.8,1.9-1,3.1-0.1c2,1.4,4,2.9,6.6,3.2c0.7,0.1,1.4,0.7,2.1,1.1c0.3-0.3,0.8-0.6,1.4-1.1c-0.5-1.7-2.4-1.5-3.7-2.1
		c-1.7-0.8-3.4-1.6-5.6-2.6c1.3-1,2.1-1.8,3.1-2.3c1.8-0.8,3.7-1.4,5.5-2.2c1.6-0.7,3.1-1.6,4.7-2.5c1.9-1,3.8-2.1,5.8-2.9
		c2.9-1.3,6-2.3,8.9-3.5c1.5-0.6,2.9-1.4,4.3-2.2c0.3-0.2,0.6-0.5,0.9-0.8c-0.4-0.1-0.9-0.5-1.3-0.4c-1.1,0.2-2.3,0.5-3.4,0.9
		c-2.2,0.8-4.4,1.6-6.5,2.5c-3.5,1.5-6.9,3.1-10.3,4.7c-3.1,1.5-6.1,3.1-9.2,4.6c-0.5,0.2-1.2,0-1.8,0c0.2-0.5,0.3-1,0.6-1.4
		c1.3-1.8,2.5-3.7,4.1-5.2c1.3-1.4,3-2.4,4.6-3.6c0.8-0.6,1.6-1.2,2.6-1.9c-0.3-0.2-0.6-0.4-0.7-0.4c-2,0.7-4.1,1.3-6,2.3
		c-1.2,0.7-2.3,1.8-3.1,3c-1.7,2.4-3.4,4.9-4.9,7.5c-0.8,1.4-1.8,2.2-3.2,2.9c-3.6,1.9-7.1,4.1-10.6,6.2c-0.3,0.2-0.7,0.3-0.9,0.2
		c-0.3-0.2-0.6-0.6-0.6-1c0.1-2.6,0.8-5.1,1.8-7.5c1-2.7,3.4-4.3,4.6-6.7c0.1-0.3,0.1-0.7,0.2-1c-0.4,0.1-0.8,0.1-1,0.3
		c-1.2,1.1-2.5,2.1-3.4,3.4c-1.7,2.3-3.3,4.6-4.6,7.1c-0.9,1.9-1.7,4-1.9,6c-0.2,1.6-1,2.3-2.1,3c-2,1.4-3.8,2.9-5.8,4.2
		c-0.6,0.4-1.3,0.6-2.2,1c0-1.4-0.3-2.7,0.1-3.8c1-3,2.3-5.9,3.5-8.8c0.5-1.1,0.9-2.2,1.3-3.4c0.1-0.2-0.2-0.6-0.3-1.1
		c-3.5,1.8-5,4.9-5.8,8.3c-0.6,3-0.6,6.2-1.1,9.2c-0.1,0.8-0.7,1.6-1.3,2.2c-1.7,1.5-3.6,2.8-5.7,4.4c-0.2-1.3-1.8-2.1-0.6-3.6
		c0.5-0.6,0.4-1.7,0.5-2.5c0.5-3.6,0.8-7.2,1.6-10.7c0.7-2.9,2.1-5.7,3.1-8.5c0.1-0.2,0.2-0.5,0.2-0.7c0.1-0.6,0.1-1.2,0.2-1.8
		c-0.7,0.2-1.7,0.3-2,0.7c-2.4,3.3-4.3,6.9-5,11c-0.6,3.4-1.3,6.8-1.9,10.2c-0.4,2.5-0.6,5-0.9,7.6c-0.1,0.8-0.5,1.7-0.9,2.3
		c-1.7,2.6-3.5,5.1-5.3,7.6c-4.7-1.5-5.8-5.2-5.6-9.2c0.1-1.5-0.1-3.1,0.1-4.6c0.1-1.6,0.4-3.2,0.6-4.8c0.2-1.4,0.6-2.7,0.8-4
		c0.2-1,0.5-1.6,1.8-1.1c2.2,0.8,5.6-0.4,7.2-2.4c-1.9-0.9-3.8-0.2-5.7-0.3c-0.6,0-1.4,0-1.7-0.4c-0.3-0.3-0.2-1.2,0-1.7
		c1.2-2.9,2.7-5.5,4.9-7.8c1.8-1.9,3-4.3,4.5-6.5c0.4-0.6,0.5-1.3,0.7-2.1c-3.3-0.2-4.7,2.4-6.2,4.3c-1.9,2.4-3.3,5.3-4.9,8
		c-0.2,0.3-0.5,0.5-0.8,0.7c-0.2-0.4-0.6-0.7-0.6-1.1c0.3-2.9,0.7-5.9,1-8.8c0.1-0.7,0.3-1.5,0.4-2.2c0-0.2-0.2-0.4-0.3-0.6
		c-0.2,0.1-0.5,0.2-0.6,0.3c-2.5,3.1-3.5,6.6-3.1,10.5c0.1,1,0,2.1,0.4,2.9c1,1.9,0.8,3.7,0.3,5.7c-0.8,2.9-1.3,5.8-2.1,9.2
		c-0.8-0.5-1.4-0.8-1.8-1.3c-1.4-2-2.8-4-3.9-6.1c-1.1-2.2-1.8-4.5-2.6-6.8c-1.4,0.6-1.7,1.1-1.6,2.7c0.3,3.9,2.1,7,4.6,9.8
		c1.2,1.4,2.7,2.6,4,3.9c0.3,0.3,0.7,0.9,0.7,1.3c-0.1,3.3-0.4,6.6-0.6,9.9c-0.1,1-1.9,1.7-3,1.1c-1.8-0.9-3.5-2-5.2-3.1
		c-1.9-1.3-3.6-2.7-5.7-4.3c0.1,0.8-0.1,1.5,0.2,1.9c1.2,2,2.1,4,4.5,5.2c2.2,1.1,4.3,2.2,6.8,2.3c1.6,0.1,2,0.8,1.6,2.4
		c-0.7,3.2-3.4,4.9-6.5,4.1c-1.3-0.3-2.6-0.7-3.9-1.1c-0.5-0.2-0.9-0.5-1.2-0.9c-2.5-3.1-5.2-6.1-7.4-9.5c-1.2-1.9-1.9-4.4-2.2-6.7
		c-0.4-2.9-0.5-6,0-8.9c0.6-3.8,1.8-7.4,3.7-10.9c1.8-3.3,3.7-6.4,6.5-8.8c3.8-3.3,8-6.3,11.9-9.5c2.8-2.2,5.5-4.5,8.1-6.9
		c1.6-1.5,3.3-3,4.7-4.7c1.9-2.4,3.5-5.1,5.2-7.7c0.6-0.9,0.9-1.9,1.5-2.8c0.2-0.4,0.8-0.8,1.2-0.8c0.4,0,0.8,0.6,1,1
		c1.2,4.2,2.5,8.4,3.5,12.7c0.6,2.7,0.9,5.4,1.2,8.1c0.2,1.5,0.2,3,0.4,4.4c0.1,0.5,0.5,1.1,0.9,1.3c0.3,0.1,1-0.3,1.3-0.7
		c2.7-3.9,6.4-6.3,10.6-8.1c1.3-0.5,2.4-1.3,3.6-1.9c2-1,4-1.3,6.2-1.4c3.9-0.1,7.9-0.8,11.8-1.1c2.6-0.2,5.3-0.3,7.9-0.4
		c3.3-0.1,6.5,0,9.8,0c3.6,0,7,0.9,10.5,1.7c2.1,0.5,4.3,0.7,6.5,1.1c3.5,0.5,7,1.1,10.6,1.5c1.3,0.1,2.6-0.2,3.9-0.2
		c0.6,0,1.2,0.3,1.9,0.6c-1.3,2.4-3.4,3.5-5.1,5c-2.3,2-4.7,3.9-6.9,6.1c-2.5,2.6-4.9,5.5-7.1,8.4c-1.2,1.5-2.1,3.2-3.1,4.9
		c-1.1,1.8-2.3,3.6-3.3,5.5c-2.8,5.1-5.4,10.3-8.2,15.4c-3.3,5.9-8.1,10.3-13.8,14c-4.7,3-9.5,5-15.1,5.1c-0.5,0-1.4,0.5-1.5,0.9
		c-0.1,0.5,0.2,1.3,0.6,1.8c2.2,2.8,4.1,5.7,4.9,9.1c0.8,3.4,1.1,6.8,1.7,10.2c0.5,2.5,0.9,5.1,1.6,7.6c0.5,2.2-0.6,3.4-3.4,3.9
		c-3.8,0.7-7.6,1.5-11.3,2.5c-4.4,1.3-8.7,3-13.1,4.4c-1.9,0.6-3.7,1.4-5.6,1.8c-3.1,0.8-6.2,0.7-9.1-0.9c-1.3-0.7-2.6-1.3-4-1.8
		c-2.2-0.9-4.2-2.2-5.7-4c-1.9-2.1-3.9-4.2-4.6-7c-0.6-2.5-1-5.1-1.6-7.6c-0.7-3.3,0-6.5,1.3-9.5c1.1-2.6,2.7-5.1,4.3-7.5
		c0.8-1.3,2.1-1.6,3.6-1.5c1.9,0.2,3,1.3,3.8,2.8c0.1,0.3-0.1,0.8-0.2,1.1c-1.9,3.9-1.3,8-1.1,12.1c0.1,2.2,0.6,4.2,2,5.9
		c0.7,0.8,1.4,1.5,2.2,2.2c0.3,0.2,0.9,0.2,1.2,0c0.2-0.1,0.2-0.8,0.1-1.1c-0.7-1.6-1.6-3.1-2.1-4.7c-0.7-2.4-1.5-4.8-1.7-7.2
		c-0.2-1.9,0.4-3.9,0.9-5.9c0.3-1.1,1.1-0.9,1.8-0.3c1.8,1.7,3.4,3.7,5.5,5c2.1,1.4,2.6,3,2.7,5.3c0.1,2.8,0.8,5.6,2.4,8
		c1.9,2.9,4,5.6,8.4,5.1c-0.3-0.6-0.5-1.2-0.9-1.6c-0.9-1-1.8-2-2.8-2.8c-2.4-1.9-3-4.8-4.2-7.4c-0.2-0.4,0.2-0.9,0.3-1.4
		c0.4,0.1,0.8,0.1,1.1,0.3c2.9,1.7,5.8,3.5,8.8,5.1c1,0.5,2.2,0.6,3.3,1c0.6,0.2,1.2,0.4,2,0.4c-0.4-0.5-0.8-1.2-1.3-1.5
		c-3.6-2.5-7.2-4.8-10.7-7.3c-0.5-0.3-0.7-1-1-1.5c0.5-0.2,0.9-0.6,1.4-0.6c3-0.3,6-0.6,8.9-0.6c1.7,0,3.4,0.8,5.1,1.3
		c0.3,0.1,0.7-0.1,1-0.1c-0.3-0.1-0.6-0.2-0.7-0.4c-0.4-0.4-0.6-1.1-1-1.4c-2.1-1.2-4.5-1.8-6.9-1.8c-0.5,0-1.1,0-1.6,0.1
		c-2.5,0.3-5,0.4-7.2,1.6c-1.7,0.9-2.9,0.1-4.1-0.9c-1.8-1.5-3.6-3-5.3-4.6c-0.3-0.3-0.7-0.7-0.7-1c0.1-0.4,0.6-0.7,1-0.9
		c1.6-0.7,3.2-1.6,4.9-2c3.3-0.8,6.6-2.1,10.1-0.9c1.1,0.4,2.3,0.4,3.7,0.6c-0.5-2.2-2.1-2.8-3.5-3.3c-3.3-1-6.7-1-10,0.2
		c-2.5,0.9-5,1.9-7.1,3.8c-0.3,0.3-1.5,0.1-1.8-0.3c-1.8-1.9-3.6-4-5.2-6.1c-1.4-1.8-0.8-4.2,1-5.6c2.7-2.2,5.4-4.6,8.1-6.8
		c1.7-1.4,3.5-2.7,5.3-4c0.3-0.2,1-0.1,1.3,0.1c3.7,3.1,8.1,5.3,12.4,7.4c0.7,0.3,1.4,0.5,2.2,0.6c3.9,1,7.8,1.5,11.8,1.4
		c1.9-0.1,3.9-0.8,5.8-1.2c0.3-0.1,0.5-0.4,0.8-0.6c-0.3-0.2-0.6-0.6-0.9-0.6c-3-0.2-6-0.3-9-0.7c-3.7-0.4-7.4-1-11-1.6
		c-1.8-0.3-3.3-1.2-4.7-2.4C390.9,115.9,389.1,114.5,387,112.7z M443.6,90.1c-1.8-0.6-3-0.2-3.9,1.1c-0.1,0.1-0.3,0.1-0.4,0.2
		c-2.4,1-4.8,2.1-7.3,3.2C437.1,95.9,440.6,93.8,443.6,90.1z"/>
	<path fill="#222222" d="M982.2,293.6c-1.4-3.4-2.8-6.6-1.6-10.1c1.5-4.3,4.9-5.5,8.7-4.7c1.2,0.3,2.4,1.9,3,3.2
		c0.8,1.6,0.7,3.5-0.1,5.2c-0.5,0.9-0.7,2-1.2,2.9c-0.5,0.9-1.2,1.7-1.9,2.6c1.8,1.4,3.7,1.8,5.8,1.3c0.6-0.1,1.3,0,1.8-0.2
		c2.2-1,4.9-1.7,6.4-3.3c2.2-2.3,4.4-4.9,5.4-8.2c1.2-3.8,2.8-7.6,3.5-11.5c0.8-4.5,1.9-9.3,0.2-13.8c-1.2-3.1-2.7-6.1-5.5-8.2
		c-1.8-1.3-3.4-2.7-5.2-4c-1.9-1.3-3.8-2.7-5.8-3.8c-1.2-0.6-2.6-0.8-3.9-1c-4.7-0.8-9.3-1.5-14.1-1.7c-5.7-0.3-11.1,0.8-16.6,2.1
		c-2.6,0.6-5.3,0.8-7.9,1.1c-3.1,0.4-6.3,0.7-9.4,1.1c-6,0.7-11.9,0.9-17.9,0.3c-2-0.2-4.1-0.1-6-0.7c-4.6-1.3-9.1-2.8-13.6-4.3
		c-3.5-1.2-7-2.3-10.3-4c-3.8-1.9-7.5-4.2-11.1-6.7c-3.4-2.4-6.6-5.1-9.7-7.8c-2.7-2.4-5.2-5.2-7.8-7.8c-1.6-1.6-2.3-1.6-4.3-0.8
		c-3.6,1.4-7.1,2.8-10.8,4c-2.9,0.9-5.9,1.7-8.9,2.3c-2.1,0.5-4.2,0.6-6.3,1c-5.1,1.2-10.2,1.4-15.3,1.3c-5.2-0.2-10.4-0.9-15.6-1.5
		c-2.2-0.2-4.5-0.4-6.6-1c-3.8-1-7.4-2.3-11.2-3.3c-4.9-1.3-9.1-3.9-13.4-6.3c-1.2-0.7-2.2-1.6-3.3-2.5c-4.1-3.7-7.9-7.7-10.9-12.4
		c-1-1.6-2.2-3-3.4-4.5c-1-1.2-0.8-2,0.6-2.4c2-0.5,4.1-0.8,5.1-3c1.1,0.6,1.8-1.1,3.4-0.2c3.7,2.1,7.5,3.9,11.9,4.4
		c1.8,0.2,3.5,0.9,5.3,1.2c2.2,0.4,4.4,0.8,6.7,0.9c5.1,0.4,10.2,0.8,15.3,0.9c2.5,0.1,5-0.5,7.5-0.5c2.8-0.1,5.6,0,8.4,0
		c3.8-0.1,7.6-0.2,11.4-0.3c4.3-0.1,8.6-0.2,12.7,1c1.7,0.5,3.3,1.3,4.9,2.2c2.9,1.7,5.7,3.5,8.5,5.3c2.1,1.4,4.1,3,6.3,4.3
		c1.9,1.2,2.4,0.9,3-1.2c0.9-2.8,1.6-5.7,2.7-8.5c1.8-4.4,4.1-8.4,8-11.4c3.2-2.4,6.2-5.2,9.5-7.5c2.4-1.7,5.3-2.8,7.9-4.1
		c0.3-0.2,0.8,0.1,1.8,0.3c-1.6,1.4-2.7,2.6-4,3.5c-5.8,4-10.6,9.2-15.1,14.6c-2.5,3-4,6.7-5.3,10.3c-0.2,0.4-0.2,1.2,0,1.3
		c0.4,0.3,1.1,0.4,1.5,0.3c0.8-0.2,1.4-0.8,2.1-1.2c5.2-2.8,10.7-5.2,16.4-6.9c3-0.9,6-2.1,9.1-2.7c2.4-0.4,5-0.1,7.5-0.2
		c1.3,0,2.6-0.1,3.9,0c4.7,0.5,9.2,1.6,13.3,3.9c1.9,1,4,1.7,5.8,2.8c2,1.2,3.7,2.8,5.6,4.3c0.8,0.7,1.6,1.5,2.5,2.1
		c0.4,0.2,1.4,0.1,1.6-0.2c1.8-2.5,4.4-2.6,7.2-2.6c2.6,0,4.8,0.9,7.1,2.1c1.2,0.7,3,0.2,4.1,1.5c0.4,0.5,0.8,1.3,0.7,1.9
		c-0.1,0.5-0.8,1.2-1.4,1.4c-2.2,1-4.5,1.6-6.5,2.7c-1.4,0.8-2.8,1.1-4.4,1.1c-0.4,0-0.8,0.1-1.4,0.1c0.8,2.1,1.8,3.9,2.3,5.9
		c0.7,2.6-0.4,4.9-2.1,6.9c-1.1,1.3-3.1,0.9-3.8-0.7c-0.7-1.7-1.2-3.4-1.8-5.1c-0.5-1.2-1.3-2.3-1.5-3.6c-0.2-1.2,0-2.6,0.4-3.8
		c0.7-1.8,0.6-2.7-1-3.8c-3-2.1-5.8-4.4-8.9-6.4c-2.4-1.5-5-2.7-7.7-3.9c-2-0.9-4.2-1.4-6.2-2.2c-4-1.6-8.1-1-12.1-0.2
		c-4.7,1-9.4,2.4-14.1,3.7c-6.4,1.7-11.8,5.6-17.7,8.5c-0.5,0.3-1.1,0.6-1.6,0.8c-2.2,1.1-2.4,2.5-0.7,4.4c1.2,1.3,2.6,2.5,3.8,3.8
		c4.9,5.2,10.2,9.9,16.3,13.5c2.6,1.5,5.3,2.7,8,3.9c3.1,1.3,6.2,2.5,9.3,3.6c2.9,1,5.8,2,8.7,2.5c4.5,0.8,9.1,1.3,13.6,1.7
		c4.8,0.4,9.5-0.3,14.2-0.9c3.1-0.4,6.1-1.1,9.1-1.9c0.9-0.2,1.9-1,2.3-1.8c1.5-3.3,3.5-6.1,5.9-8.8c2.6-3,5.6-5.5,9-7.3
		c1.6-0.9,3.4-1.4,5.1-2.1c0.1,0.2,0.3,0.4,0.4,0.7c-0.5,0.4-1,0.8-1.5,1.2c-2.2,1.7-4.7,3.1-6.6,5.1c-2.3,2.4-4,5.2-6,7.9
		c-0.6,0.8-1.6,1.9-0.7,2.7c0.8,0.7,2.2,1,3.3,0.9c4.1-0.3,8.2-1.2,12.3-1.3c3.6-0.1,7.3,0.3,10.9,1.1c5.2,1.3,10.2,3.2,14.5,6.3
		c4.8,3.4,8.8,7.6,10.6,13.4c0.8,2.6,1.2,5.3,1.6,8c0.8,4.6-0.2,9-1.8,13.3c-1.1,3.1-2,6.4-3.2,9.4c-0.6,1.5-1.8,2.8-2.9,4.1
		c-2.1,2.6-4.8,4.6-7.7,6.2c-1.7,0.9-3.7,1.7-6,1.5c-2.4-0.2-4.7-0.6-7.1-1.2c-1-0.3-2.4,0.5-3.6,0.8c-2,0.5-4.1,1.4-6.1,1.4
		c-2.3-0.1-4.8,0.1-7.1-1.2c-1.5-0.8-3.4-1.1-4.9-1.9c-4.2-2.1-7.9-4.8-9-9.7c-0.3-1.4-0.2-2.9-0.1-4.3c0.3-3.8-2.4-8-5.7-9.8
		c-2.3-1.3-4.2-0.5-6.2,0.5c-2.4,1.2-4.4,2.7-6,4.8c-1.1,1.4-1.1,1.9,0.5,2.7c0.7,0.4,1.9,0.5,1.5,1.6c-0.3,0.7-1,1.3-1.7,1.6
		c-2,0.8-4-0.4-5-2.2c-1.4-2.5-0.1-4.4,1.2-6.2c2.5-3.5,5.7-6.2,9.9-7.3c2.3-0.6,4.7,0.1,6.8,1.2c2,1.1,3.5,2.7,4.5,4.8
		c0.8,1.7,2.2,3,3.3,4.6c1.3,1.9,1.4,3.9,0.6,6c-0.9,2.6,0.5,6,3,7.7c3.4,2.3,7.1,3.5,11,4.2C977.1,295,979.7,294.8,982.2,293.6z
		 M764.1,187.2c-0.1,0.2-0.2,0.3-0.4,0.5c0.2,0.6,0.4,1.2,0.7,1.7c1.5,2.2,3,4.5,4.8,6.5c1.3,1.6,2.7,3.1,4.4,4.3
		c2.8,2,5.6,4.1,9,5.3c3.7,1.3,7.1,3.4,10.9,4.6c4.4,1.5,9,2.3,13.5,3.6c3.7,1.1,7.4,0.9,11.2,0.8c5.5-0.2,11-0.7,16.5-1.2
		c2.8-0.2,5.7-0.5,8.5-1c4-0.8,8-1.7,12-2.7c2-0.5,3.9-1.2,5.8-1.9c1.3-0.5,1.6-1.3,0.6-2.5c-1.2-1.4-2.6-2.7-4.1-3.8
		c-1.6-1.2-3.4-2.3-5.2-3.1c-2.6-1.2-5.3-2.2-8.1-3c-1.8-0.5-3.9-0.4-5.7-0.9c-4.5-1.2-9-0.6-13.5-0.3c-5.1,0.2-10.2,0.8-15.4,1.2
		c-3.2,0.2-6.5,0.2-9.7,0.3c-4.2,0.1-8.4,0.1-12.5-0.9c-3.2-0.8-6.4-1.8-9.6-2.8c-3.2-1-6.3-2.2-9.4-3.3
		C766.8,188.1,765.5,187.7,764.1,187.2z M983.1,288.3c0,0.3,0,0.6,0,0.9c-0.1,1.2,0.6,1.9,1.6,2.1c0.5,0.1,1.1-0.8,1.6-1.2
		c0.2-0.2,0.4-0.4,0.5-0.6c1.8-1.8,2.2-3.9,1.6-6.3c-0.3-1-0.7-1.1-1.5-0.9C985,282.8,983.1,285.9,983.1,288.3z M944.2,203
		c0.8,0.6,1.4,1.3,2.1,1.7c0.6,0.4,1.5,0.9,2,0.7c2-0.7,3.9-1.6,5.9-2.4C952.4,200.3,947.3,200,944.2,203z M948.3,214.9
		c-0.5-1.1-1.1-2.5-1.9-3.7c-0.3-0.4-1.1-0.5-1.6-0.7c-0.2,0.6-0.7,1.4-0.5,1.8c0.6,1.5,1.5,3,2.3,4.4c0.1,0.2,0.9,0.1,1.1-0.1
		C948.1,216.3,948.1,215.7,948.3,214.9z"/>
	<path fill="#222222" d="M820.1,100.5c0.3,0.4,0.6,0.8,0.9,1.2c1.1,1.8,2,3.7,3.3,5.5c2.9,4,6.1,7.8,8.7,11.9
		c1.2,1.8,1.5,4.2,1.9,6.5c1,4.8-0.1,9.5-1.2,14.2c-0.1,0.5,0,1,0,1.5c2.1-0.3,2.8-1.9,3.7-3.2c0.9-1.3,1.7-2.6,2.6-3.9
		c0.1-0.2,0.4-0.2,0.9-0.3c-0.3,1.1-0.4,1.9-0.7,2.7c-1.8,5.6-3.6,11.2-8.9,14.8c-2,1.4-4.2,2.5-6.3,3.8c-0.7,0.4-1.4,1-1.9,1.7
		c-2.2,3.4-5.2,5.9-8.2,8.5c-1.7,1.4-1.7,2.1,0.3,2.9c2,0.7,4.2,1.4,6.3,1.6c2.7,0.3,5.5,0.2,8.3,0c4.2-0.4,8.4-1.1,12.6-1.8
		c0.8-0.1,1.8-0.9,2.2-1.6c0.8-1.3,1.4-2.8,1.9-4.3c0.9-3.2,3.6-5.2,5.2-8c0.2-0.3,0.7-0.4,1.1-0.6c0.9,2.2-1.8,4.1,0,6.5
		c2.1-1.6,4.2-3.1,6.2-4.8c1.7-1.5,3.7-2.4,5.7-3.3c3.8-1.5,7-3.9,9.5-7.3c3.4-4.5,7.9-7.5,13.3-9.1c0.2-0.1,0.4,0,0.6,0
		c0.2,0,0.4,0.1,1,0.1c-0.8,1.5-1.5,2.8-2.3,4c-2.1,3.6-4.5,7.2-6.4,10.9c-1.3,2.6-1.9,5.5-3,8.2c-0.3,0.8-1.1,1.5-1.8,2.2
		c-3.3,3.8-7.2,6.6-12,8.2c-0.6,0.2-1,0.7-1.9,1.3c2,0.8,3.6,1.4,5.2,2.1c0,0.2,0,0.5-0.1,0.7c-1.6,0.4-3.1,0.9-4.8,1.1
		c-2.6,0.3-5.3,0.5-7.9,0.3c-2-0.2-4.2-0.7-6-1.6c-2.3-1.3-4.4-0.9-6.6-0.3c-3.7,0.9-7.4,1.6-11.2,1.8c-3.9,0.2-7.7-0.3-11.5-1.2
		c-3.8-0.9-7.7-1.4-11.6-1.9c-0.8-0.1-1.7,0.2-2.4,0.7c-1.8,1.2-3.9,1.1-5.9,1.4c-2.9,0.4-5.9,0.7-8.9,0.6c-4-0.1-8-0.6-12-1.1
		c-2.1-0.3-2.6-1.7-1.9-3.8c0.5-1.5,1.1-1.9,2.8-1.6c5.7,1.1,11.4,2.5,17.3,2.3c1.8,0,3.7-0.7,5.3-1.6c4.6-2.7,9.1-5.6,13.6-8.6
		c1.2-0.8,2.2-2,3.1-3.1c0.5-0.7,0.6-1.3-0.4-2.1c-2.7-2-5.2-4.3-7.6-6.6c-0.8-0.8-1.1-2.1-1.6-3.1c-0.4-0.9-0.9-1.7-1.2-2.6
		c-0.2-0.5,0-1.1,0-1.7c0.4,0.1,1,0.1,1.3,0.4c1.3,1,2.5,2.1,3.8,3.1c0.4,0.3,0.9,0.6,1.4,0.8c1.2,0.4,1.8-0.1,1.5-1.4
		c-0.8-3.1-1-6.1-0.2-9.2c0.5-2.1,1.4-4,2-6c0.4-1.3,0.6-2.5,0.8-3.8c0.2-1.7,0.4-3.5,0.3-5.2c-0.1-1.8-0.2-3.7-0.6-5.5
		c-0.6-2.8-0.3-5.4,0.4-8.1c0.4-1.5,0.8-3,1.2-4.5C819.8,100.6,819.9,100.6,820.1,100.5z M854.7,168.3c0.1,0.2,0.1,0.4,0.2,0.5
		c0.5,0,1.1,0.2,1.5,0c1.5-0.7,3-1.3,4.2-2.3c2.2-1.7,4.2-3.6,5.2-6.3c0.2-0.4,0.3-1.1,0-1.4c-0.3-0.3-1-0.6-1.5-0.5
		c-0.8,0.1-1.7,0.3-2.5,0.5c-2.7,0.8-5.4,1.7-6.9,4.8c1.8-0.3,3.6-0.5,5.4-0.8c0,0.1,0.1,0.2,0.1,0.3
		C858.5,165,856.6,166.6,854.7,168.3z M825.8,136.7c0.4,0.6,0.6,0.8,0.7,1.1c0.2,0.7,0.3,1.4,0.7,2c0.3,0.5,0.8,0.8,1.2,1.1
		c0.2-0.4,0.6-0.8,0.6-1.2c0.1-1.3-0.1-2.5,0-3.8c0.1-2.1-0.7-4-1.7-5.7c-0.6-1-1.4-0.9-1.9,0.2c-1,2.3-1.9,4.7-2.8,7.1
		c-0.4,0.9-0.8,1.9-1,2.9c-0.1,0.6,0.3,1.2,0.5,1.9c0.5-0.2,1.1-0.3,1.4-0.7c0.5-0.8,0.9-1.7,1.3-2.5
		C824.9,138.4,825.3,137.7,825.8,136.7z"/>
	<path fill="#222222" d="M797.5,274.3c-0.5,0.2-1.4,0.6-1.6,0.5c-0.4-0.5-0.5-1.2-0.7-1.8c0.7,0.3,1.4,0.6,2.1,0.9
		C797.4,274,797.4,274.1,797.5,274.3z"/>
</g>
</svg>
